<svg width="20" height="20" viewBox="0 0 20 20" fill="none" xmlns="http://www.w3.org/2000/svg">
<path d="M10.8329 1.66659C11.0539 1.66659 11.2659 1.75438 11.4222 1.91066C11.5785 2.06694 11.6663 2.27891 11.6663 2.49992C11.6663 2.72093 11.5785 2.93289 11.4222 3.08917C11.2659 3.24545 11.0539 3.33325 10.8329 3.33325C10.1537 3.3334 9.48171 3.47192 8.85782 3.74036C8.23394 4.0088 7.67129 4.40153 7.20419 4.89459C6.73709 5.38766 6.37534 5.97072 6.14102 6.6082C5.90669 7.24568 5.8047 7.92422 5.84126 8.60242C5.8471 8.72742 5.8246 8.85242 5.7771 8.96742L4.9096 11.0483L5.32876 11.1324C5.58585 11.1841 5.82019 11.3153 5.9986 11.5074C6.17702 11.6996 6.29048 11.943 6.32293 12.2033L6.47793 13.4366C6.50311 13.6381 6.60101 13.8235 6.75323 13.9579C6.90545 14.0923 7.10152 14.1665 7.3046 14.1666H8.7496C9.08112 14.1666 9.39906 14.2983 9.63348 14.5327C9.8679 14.7671 9.9996 15.0851 9.9996 15.4166V16.6666H13.3329V13.3383C13.3329 12.9241 13.5371 12.5574 13.8413 12.3283L14.0754 12.1391C14.81 11.5123 15.3484 10.6872 15.6263 9.76242C15.6905 9.55204 15.8353 9.37558 16.0291 9.27153C16.2229 9.16747 16.45 9.14426 16.6608 9.20695C16.8716 9.26964 17.0491 9.41315 17.1546 9.60619C17.2601 9.79922 17.2849 10.0261 17.2238 10.2374C16.8349 11.5367 16.059 12.6865 14.9996 13.5333V17.0833C14.9996 17.4148 14.8679 17.7327 14.6335 17.9671C14.3991 18.2016 14.0811 18.3333 13.7496 18.3333H9.58293C9.25141 18.3333 8.93347 18.2016 8.69905 17.9671C8.46463 17.7327 8.33293 17.4148 8.33293 17.0833V15.8333H7.3046C6.69522 15.8333 6.10682 15.6107 5.64998 15.2075C5.19314 14.8042 4.89933 14.2479 4.82376 13.6433L4.70626 12.7074L4.08543 12.5841C3.90402 12.5479 3.7329 12.4719 3.58443 12.3615C3.43596 12.2512 3.31383 12.1092 3.22685 11.946C3.13988 11.7827 3.09023 11.6022 3.08148 11.4174C3.07273 11.2326 3.1051 11.0482 3.17626 10.8774L4.17043 8.48909L4.16626 8.33325C4.16626 6.56514 4.86864 4.86945 6.11888 3.61921C7.36913 2.36896 9.06482 1.66659 10.8329 1.66659ZM15.8329 0.833252C16.0069 0.833148 16.1765 0.887493 16.3181 0.988668C16.4596 1.08984 16.5659 1.23277 16.6221 1.39742L16.7296 1.71242C16.9796 2.44492 17.5546 3.02075 18.2879 3.27075L18.6029 3.37825C18.7673 3.43456 18.9099 3.54082 19.0109 3.68216C19.1118 3.82351 19.1661 3.99288 19.1661 4.16659C19.1661 4.34029 19.1118 4.50966 19.0109 4.65101C18.9099 4.79235 18.7673 4.89861 18.6029 4.95492L18.2879 5.06325C17.5546 5.31325 16.9796 5.88825 16.7296 6.62159L16.6213 6.93575C16.565 7.10008 16.4587 7.24271 16.3174 7.34368C16.176 7.44466 16.0066 7.49895 15.8329 7.49895C15.6592 7.49895 15.4899 7.44466 15.3485 7.34368C15.2072 7.24271 15.1009 7.10008 15.0446 6.93575L14.9371 6.62075C14.8137 6.2592 14.609 5.93075 14.3389 5.66061C14.0688 5.39047 13.7403 5.18583 13.3788 5.06242L13.0638 4.95492C12.8994 4.89861 12.7568 4.79235 12.6558 4.65101C12.5549 4.50966 12.5006 4.34029 12.5006 4.16659C12.5006 3.99288 12.5549 3.82351 12.6558 3.68216C12.7568 3.54082 12.8994 3.43456 13.0638 3.37825L13.3788 3.26992C14.1113 3.01992 14.6871 2.44492 14.9371 1.71159L15.0454 1.39742L15.0971 1.27575C15.168 1.14216 15.274 1.03039 15.4036 0.952437C15.5333 0.874483 15.6817 0.833282 15.8329 0.833252ZM15.8329 3.49659C15.6361 3.74462 15.4116 3.96941 15.1638 4.16659C15.4121 4.36381 15.6352 4.58686 15.8329 4.83575C16.0307 4.58742 16.2538 4.36436 16.5021 4.16659C16.2543 3.96941 16.0298 3.74462 15.8329 3.49659Z" fill="#F4405D"/>
</svg>
