<svg width="21" height="21" viewBox="0 0 21 21" fill="none" xmlns="http://www.w3.org/2000/svg">
<path d="M9.1875 3.9375C9.1875 3.24131 9.46406 2.57363 9.95634 2.08134C10.4486 1.58906 11.1163 1.3125 11.8125 1.3125C12.5087 1.3125 13.1764 1.58906 13.6687 2.08134C14.1609 2.57363 14.4375 3.24131 14.4375 3.9375H16.4062C16.9284 3.9375 17.4292 4.14492 17.7984 4.51413C18.1676 4.88335 18.375 5.38411 18.375 5.90625V9.1875H17.0625C16.7144 9.1875 16.3806 9.32578 16.1344 9.57192C15.8883 9.81806 15.75 10.1519 15.75 10.5C15.75 10.8481 15.8883 11.1819 16.1344 11.4281C16.3806 11.6742 16.7144 11.8125 17.0625 11.8125H18.375V15.0938C18.375 15.6159 18.1676 16.1167 17.7984 16.4859C17.4292 16.8551 16.9284 17.0625 16.4062 17.0625H14.4375C14.4375 17.7587 14.1609 18.4264 13.6687 18.9187C13.1764 19.4109 12.5087 19.6875 11.8125 19.6875C11.1163 19.6875 10.4486 19.4109 9.95634 18.9187C9.46406 18.4264 9.1875 17.7587 9.1875 17.0625H7.21875C6.69661 17.0625 6.19585 16.8551 5.82663 16.4859C5.45742 16.1167 5.25 15.6159 5.25 15.0938V13.125C4.55381 13.125 3.88613 12.8484 3.39384 12.3562C2.90156 11.8639 2.625 11.1962 2.625 10.5C2.625 9.80381 2.90156 9.13613 3.39384 8.64384C3.88613 8.15156 4.55381 7.875 5.25 7.875V5.90625C5.25 5.38411 5.45742 4.88335 5.82663 4.51413C6.19585 4.14492 6.69661 3.9375 7.21875 3.9375H9.1875ZM11.8125 2.625C11.4644 2.625 11.1306 2.76328 10.8844 3.00942C10.6383 3.25556 10.5 3.5894 10.5 3.9375V5.25H7.21875C7.0447 5.25 6.87778 5.31914 6.75471 5.44221C6.63164 5.56528 6.5625 5.7322 6.5625 5.90625V9.1875H5.25C4.9019 9.1875 4.56806 9.32578 4.32192 9.57192C4.07578 9.81806 3.9375 10.1519 3.9375 10.5C3.9375 10.8481 4.07578 11.1819 4.32192 11.4281C4.56806 11.6742 4.9019 11.8125 5.25 11.8125H6.5625V15.0938C6.5625 15.2678 6.63164 15.4347 6.75471 15.5578C6.87778 15.6809 7.0447 15.75 7.21875 15.75H10.5V17.0625C10.5 17.4106 10.6383 17.7444 10.8844 17.9906C11.1306 18.2367 11.4644 18.375 11.8125 18.375C12.1606 18.375 12.4944 18.2367 12.7406 17.9906C12.9867 17.7444 13.125 17.4106 13.125 17.0625V15.75H16.4062C16.5803 15.75 16.7472 15.6809 16.8703 15.5578C16.9934 15.4347 17.0625 15.2678 17.0625 15.0938V13.125C16.3663 13.125 15.6986 12.8484 15.2063 12.3562C14.7141 11.8639 14.4375 11.1962 14.4375 10.5C14.4375 9.80381 14.7141 9.13613 15.2063 8.64384C15.6986 8.15156 16.3663 7.875 17.0625 7.875V5.90625C17.0625 5.7322 16.9934 5.56528 16.8703 5.44221C16.7472 5.31914 16.5803 5.25 16.4062 5.25H13.125V3.9375C13.125 3.5894 12.9867 3.25556 12.7406 3.00942C12.4944 2.76328 12.1606 2.625 11.8125 2.625Z" fill="#A68AF9"/>
</svg>
