<svg width="22" height="22" viewBox="0 0 22 22" fill="none" xmlns="http://www.w3.org/2000/svg">
<path d="M15.8125 4.8125H6.1875C2.77578 4.8125 0 7.58828 0 11C0 14.4117 2.77578 17.1875 6.1875 17.1875H15.8125C19.2242 17.1875 22 14.4117 22 11C22 7.58828 19.2242 4.8125 15.8125 4.8125ZM15.8125 15.8125C14.8607 15.8125 13.9302 15.5303 13.1388 15.0014C12.3474 14.4726 11.7306 13.721 11.3663 12.8417C11.0021 11.9623 10.9068 10.9947 11.0925 10.0611C11.2782 9.12759 11.7365 8.27009 12.4095 7.59705C13.0826 6.92401 13.9401 6.46566 14.8736 6.27997C15.8072 6.09428 16.7748 6.18958 17.6542 6.55383C18.5335 6.91808 19.2851 7.53491 19.8139 8.32632C20.3428 9.11773 20.625 10.0482 20.625 11C20.6236 12.2759 20.1162 13.4992 19.2139 14.4014C18.3117 15.3037 17.0884 15.8111 15.8125 15.8125Z" fill="#E57333"/>
<path d="M5.424 14.08C4.99733 14.08 4.62933 13.9627 4.32 13.728C4.016 13.4933 3.78133 13.1627 3.616 12.736C3.45067 12.304 3.368 11.792 3.368 11.2C3.368 10.608 3.45067 10.0987 3.616 9.672C3.78133 9.24 4.016 8.90667 4.32 8.672C4.62933 8.43733 4.99733 8.32 5.424 8.32C5.85067 8.32 6.21867 8.43733 6.528 8.672C6.83733 8.90667 7.07467 9.24 7.24 9.672C7.40533 10.0987 7.488 10.608 7.488 11.2C7.488 11.792 7.40533 12.304 7.24 12.736C7.07467 13.1627 6.83733 13.4933 6.528 13.728C6.21867 13.9627 5.85067 14.08 5.424 14.08ZM5.424 13.296C5.81333 13.296 6.11467 13.1147 6.328 12.752C6.54133 12.384 6.648 11.8667 6.648 11.2C6.648 10.5333 6.54133 10.0187 6.328 9.656C6.11467 9.288 5.81333 9.104 5.424 9.104C5.03467 9.104 4.73333 9.288 4.52 9.656C4.30667 10.0187 4.2 10.5333 4.2 11.2C4.2 11.8667 4.30667 12.384 4.52 12.752C4.73333 13.1147 5.03467 13.296 5.424 13.296Z" fill="white"/>
<path d="M15.736 13.608V9.064L16.032 9.288L14.928 9.872L14.696 9.12L16.192 8.32H16.608V13.608H15.736ZM14.848 14V13.168H17.52V14H14.848Z" fill="#E57333"/>
</svg>
