<svg width="16" height="16" viewBox="0 0 16 16" fill="none" xmlns="http://www.w3.org/2000/svg">
<g clip-path="url(#clip0_496_2491)">
<mask id="mask0_496_2491" style="mask-type:luminance" maskUnits="userSpaceOnUse" x="0" y="0" width="16" height="16">
<path d="M0 0H16V16H0V0Z" fill="white"/>
</mask>
<g mask="url(#mask0_496_2491)">
<path fill-rule="evenodd" clip-rule="evenodd" d="M4.31204 4.29004C4.32239 4.16562 4.36308 4.04562 4.43055 3.94057C4.49802 3.83551 4.59021 3.74859 4.69905 3.68741C4.80789 3.62623 4.93006 3.59266 5.05488 3.58963C5.1797 3.5866 5.30336 3.61421 5.41504 3.67004C5.50357 3.71992 5.60131 3.75129 5.70233 3.76225C5.80335 3.77321 5.90554 3.76352 6.00271 3.73379C6.09987 3.70405 6.18998 3.65487 6.26756 3.58925C6.34514 3.52363 6.40858 3.44292 6.45402 3.35204C6.49947 3.26115 6.52597 3.16198 6.53192 3.06054C6.53787 2.9591 6.52314 2.85751 6.48863 2.76193C6.45413 2.66636 6.40056 2.57879 6.33118 2.50455C6.2618 2.43031 6.17806 2.37094 6.08504 2.33004C5.75421 2.16475 5.38793 2.08301 5.01822 2.09197C4.6485 2.10094 4.28662 2.20034 3.96419 2.38148C3.64177 2.56262 3.36863 2.81999 3.16865 3.13108C2.96868 3.44217 2.84795 3.79751 2.81704 4.16604L2.70604 5.50004H1.75004C1.55113 5.50004 1.36036 5.57906 1.21971 5.71971C1.07906 5.86036 1.00004 6.05113 1.00004 6.25004C1.00004 6.44895 1.07906 6.63972 1.21971 6.78037C1.36036 6.92102 1.55113 7.00004 1.75004 7.00004H2.58004L2.18804 11.71C2.17768 11.8345 2.13699 11.9545 2.06952 12.0595C2.00206 12.1646 1.90987 12.2515 1.80103 12.3127C1.69219 12.3739 1.57001 12.4074 1.44519 12.4105C1.32037 12.4135 1.19672 12.3859 1.08504 12.33C0.908821 12.2526 0.709565 12.2458 0.528511 12.3112C0.347457 12.3766 0.198469 12.509 0.112384 12.6812C0.0262981 12.8534 0.00970696 13.0521 0.0660442 13.2361C0.122381 13.4202 0.247334 13.5755 0.415038 13.67C0.745863 13.8353 1.11214 13.9171 1.48186 13.9081C1.85157 13.8991 2.21346 13.7997 2.53588 13.6186C2.8583 13.4375 3.13144 13.1801 3.33142 12.869C3.5314 12.5579 3.65212 12.2026 3.68304 11.834L4.08604 7.00004H5.25004C5.34853 7.00004 5.44606 6.98064 5.53705 6.94295C5.62804 6.90526 5.71072 6.85002 5.78037 6.78037C5.85001 6.71073 5.90526 6.62805 5.94295 6.53706C5.98064 6.44606 6.00004 6.34853 6.00004 6.25004C6.00004 6.15155 5.98064 6.05402 5.94295 5.96303C5.90526 5.87204 5.85001 5.78936 5.78037 5.71971C5.71072 5.65007 5.62804 5.59482 5.53705 5.55713C5.44606 5.51944 5.34853 5.50004 5.25004 5.50004H4.21004L4.31204 4.29004ZM10.326 6.52004C10.1971 6.37268 10.0157 6.28157 9.82049 6.26619C9.6253 6.2508 9.43184 6.31236 9.28142 6.4377C9.13101 6.56305 9.03557 6.74225 9.01551 6.93701C8.99544 7.13177 9.05234 7.32666 9.17404 7.48004L10.024 8.50004L9.17404 9.52004C9.05234 9.67342 8.99544 9.86831 9.01551 10.0631C9.03557 10.2578 9.13101 10.437 9.28142 10.5624C9.43184 10.6877 9.6253 10.7493 9.82049 10.7339C10.0157 10.7185 10.1971 10.6274 10.326 10.48L11 9.67204L11.674 10.48C11.803 10.6274 11.9844 10.7185 12.1796 10.7339C12.3748 10.7493 12.5682 10.6877 12.7187 10.5624C12.8691 10.437 12.9645 10.2578 12.9846 10.0631C13.0046 9.86831 12.9477 9.67342 12.826 9.52004L11.976 8.50004L12.826 7.48004C12.9477 7.32666 13.0046 7.13177 12.9846 6.93701C12.9645 6.74225 12.8691 6.56305 12.7187 6.4377C12.5682 6.31236 12.3748 6.2508 12.1796 6.26619C11.9844 6.28157 11.803 6.37268 11.674 6.52004L11 7.32804L10.326 6.52004ZM8.02004 4.55004C8.20549 4.6216 8.35495 4.76386 8.43558 4.94555C8.51621 5.12724 8.52141 5.33352 8.45004 5.51904L8.30504 5.89704C7.66076 7.57223 7.66076 9.42685 8.30504 11.102L8.45004 11.48C8.52151 11.6657 8.51631 11.8721 8.43558 12.054C8.35484 12.2358 8.20519 12.3781 8.01954 12.4495C7.83389 12.521 7.62744 12.5158 7.44563 12.4351C7.26381 12.3543 7.12151 12.2047 7.05004 12.019L6.90504 11.641C6.12744 9.61923 6.12744 7.38085 6.90504 5.35904L7.05004 4.98104C7.08537 4.88901 7.1385 4.80484 7.20639 4.73335C7.27427 4.66187 7.35559 4.60447 7.44568 4.56444C7.53577 4.52441 7.63287 4.50253 7.73143 4.50006C7.82998 4.49759 7.92805 4.51458 8.02004 4.55004ZM13.981 4.55004C14.073 4.51455 14.171 4.49752 14.2695 4.49992C14.368 4.50232 14.4651 4.52411 14.5551 4.56405C14.6452 4.60398 14.7266 4.66127 14.7945 4.73265C14.8624 4.80403 14.9156 4.8881 14.951 4.98004L15.096 5.35904C15.8736 7.38085 15.8736 9.61923 15.096 11.641L14.95 12.019C14.9158 12.1125 14.8634 12.1981 14.7957 12.2711C14.728 12.344 14.6466 12.4028 14.556 12.4439C14.4654 12.485 14.3676 12.5078 14.2681 12.5107C14.1687 12.5137 14.0696 12.4968 13.9768 12.4611C13.8839 12.4254 13.7991 12.3716 13.7272 12.3029C13.6553 12.2341 13.5979 12.1517 13.5582 12.0605C13.5184 11.9692 13.4973 11.871 13.4959 11.7716C13.4945 11.6721 13.5129 11.5733 13.55 11.481L13.696 11.102C14.3403 9.42685 14.3403 7.57223 13.696 5.89704L13.55 5.51904C13.5146 5.42706 13.4976 5.32898 13.5001 5.23043C13.5025 5.13188 13.5244 5.03478 13.5644 4.94469C13.6045 4.85459 13.6619 4.77328 13.7333 4.70539C13.8048 4.6375 13.889 4.58437 13.981 4.54904" fill="#EE4444"/>
</g>
</g>
<defs>
<clipPath id="clip0_496_2491">
<rect width="16" height="16" fill="white"/>
</clipPath>
</defs>
</svg>
