<svg width="17" height="17" viewBox="0 0 17 17" fill="none" xmlns="http://www.w3.org/2000/svg">
<path d="M5.04688 4.25C5.04688 4.03866 5.13083 3.83597 5.28027 3.68652C5.42972 3.53708 5.63241 3.45312 5.84375 3.45312H14.3438C14.5551 3.45312 14.7578 3.53708 14.9072 3.68652C15.0567 3.83597 15.1406 4.03866 15.1406 4.25C15.1406 4.46134 15.0567 4.66403 14.9072 4.81348C14.7578 4.96292 14.5551 5.04688 14.3438 5.04688H5.84375C5.63241 5.04688 5.42972 4.96292 5.28027 4.81348C5.13083 4.66403 5.04688 4.46134 5.04688 4.25ZM14.3438 7.70312H5.84375C5.63241 7.70312 5.42972 7.78708 5.28027 7.93652C5.13083 8.08597 5.04688 8.28866 5.04688 8.5C5.04688 8.71134 5.13083 8.91403 5.28027 9.06348C5.42972 9.21292 5.63241 9.29688 5.84375 9.29688H14.3438C14.5551 9.29688 14.7578 9.21292 14.9072 9.06348C15.0567 8.91403 15.1406 8.71134 15.1406 8.5C15.1406 8.28866 15.0567 8.08597 14.9072 7.93652C14.7578 7.78708 14.5551 7.70312 14.3438 7.70312ZM14.3438 11.9531H5.84375C5.63241 11.9531 5.42972 12.0371 5.28027 12.1865C5.13083 12.336 5.04688 12.5387 5.04688 12.75C5.04688 12.9613 5.13083 13.164 5.28027 13.3135C5.42972 13.4629 5.63241 13.5469 5.84375 13.5469H14.3438C14.5551 13.5469 14.7578 13.4629 14.9072 13.3135C15.0567 13.164 15.1406 12.9613 15.1406 12.75C15.1406 12.5387 15.0567 12.336 14.9072 12.1865C14.7578 12.0371 14.5551 11.9531 14.3438 11.9531ZM2.92188 7.4375C2.71173 7.4375 2.50631 7.49981 2.33158 7.61656C2.15685 7.73331 2.02067 7.89925 1.94025 8.0934C1.85984 8.28755 1.83879 8.50118 1.87979 8.70728C1.92079 8.91339 2.02198 9.10271 2.17057 9.2513C2.31917 9.39989 2.50849 9.50109 2.71459 9.54208C2.9207 9.58308 3.13433 9.56204 3.32848 9.48162C3.52262 9.4012 3.68856 9.26502 3.80531 9.09029C3.92206 8.91557 3.98438 8.71014 3.98438 8.5C3.98438 8.21821 3.87243 7.94796 3.67318 7.7487C3.47392 7.54944 3.20367 7.4375 2.92188 7.4375ZM2.92188 3.1875C2.71173 3.1875 2.50631 3.24981 2.33158 3.36656C2.15685 3.48331 2.02067 3.64925 1.94025 3.8434C1.85984 4.03755 1.83879 4.25118 1.87979 4.45728C1.92079 4.66339 2.02198 4.85271 2.17057 5.0013C2.31917 5.14989 2.50849 5.25109 2.71459 5.29208C2.9207 5.33308 3.13433 5.31204 3.32848 5.23162C3.52262 5.1512 3.68856 5.01502 3.80531 4.84029C3.92206 4.66557 3.98438 4.46014 3.98438 4.25C3.98438 3.96821 3.87243 3.69796 3.67318 3.4987C3.47392 3.29944 3.20367 3.1875 2.92188 3.1875ZM2.92188 11.6875C2.71173 11.6875 2.50631 11.7498 2.33158 11.8666C2.15685 11.9833 2.02067 12.1493 1.94025 12.3434C1.85984 12.5375 1.83879 12.7512 1.87979 12.9573C1.92079 13.1634 2.02198 13.3527 2.17057 13.5013C2.31917 13.6499 2.50849 13.7511 2.71459 13.7921C2.9207 13.8331 3.13433 13.812 3.32848 13.7316C3.52262 13.6512 3.68856 13.515 3.80531 13.3403C3.92206 13.1656 3.98438 12.9601 3.98438 12.75C3.98438 12.4682 3.87243 12.198 3.67318 11.9987C3.47392 11.7994 3.20367 11.6875 2.92188 11.6875Z" fill="#0FB881"/>
</svg>
