<svg width="20" height="20" viewBox="0 0 20 20" fill="none" xmlns="http://www.w3.org/2000/svg">
<path d="M16.25 3.125H3.75C3.25272 3.125 2.77581 3.32254 2.42417 3.67417C2.07254 4.02581 1.875 4.50272 1.875 5V13.75C1.875 14.2473 2.07254 14.7242 2.42417 15.0758C2.77581 15.4275 3.25272 15.625 3.75 15.625H16.25C16.7473 15.625 17.2242 15.4275 17.5758 15.0758C17.9275 14.7242 18.125 14.2473 18.125 13.75V5C18.125 4.50272 17.9275 4.02581 17.5758 3.67417C17.2242 3.32254 16.7473 3.125 16.25 3.125ZM16.875 13.75C16.875 13.9158 16.8092 14.0747 16.6919 14.1919C16.5747 14.3092 16.4158 14.375 16.25 14.375H3.75C3.58424 14.375 3.42527 14.3092 3.30806 14.1919C3.19085 14.0747 3.125 13.9158 3.125 13.75V5C3.125 4.83424 3.19085 4.67527 3.30806 4.55806C3.42527 4.44085 3.58424 4.375 3.75 4.375H16.25C16.4158 4.375 16.5747 4.44085 16.6919 4.55806C16.8092 4.67527 16.875 4.83424 16.875 5V13.75ZM13.125 17.5C13.125 17.6658 13.0592 17.8247 12.9419 17.9419C12.8247 18.0592 12.6658 18.125 12.5 18.125H7.5C7.33424 18.125 7.17527 18.0592 7.05806 17.9419C6.94085 17.8247 6.875 17.6658 6.875 17.5C6.875 17.3342 6.94085 17.1753 7.05806 17.0581C7.17527 16.9408 7.33424 16.875 7.5 16.875H12.5C12.6658 16.875 12.8247 16.9408 12.9419 17.0581C13.0592 17.1753 13.125 17.3342 13.125 17.5Z" fill="#0DA5E8"/>
<path d="M6.48906 9.34692L8.64184 11.4997C8.74369 11.6016 8.79462 11.7312 8.79462 11.8886C8.79462 12.046 8.74369 12.1756 8.64184 12.2775C8.53999 12.3793 8.41036 12.4303 8.25295 12.4303C8.09554 12.4303 7.96591 12.3793 7.86406 12.2775L5.30851 9.72192C5.25295 9.66637 5.21351 9.60618 5.19017 9.54137C5.16684 9.47655 5.15554 9.40711 5.15628 9.33303C5.15702 9.25896 5.16869 9.18952 5.19128 9.1247C5.21388 9.05989 5.25314 8.9997 5.30906 8.94415L7.86462 6.38859C7.97573 6.27748 8.10777 6.22192 8.26073 6.22192C8.41369 6.22192 8.54554 6.27748 8.65628 6.38859C8.76702 6.4997 8.82258 6.63174 8.82295 6.7847C8.82332 6.93766 8.76777 7.06952 8.65628 7.18026L6.48906 9.34692ZM14.4613 9.31915L12.3085 7.16637C12.2067 7.06452 12.1557 6.93489 12.1557 6.77748C12.1557 6.62007 12.2067 6.49044 12.3085 6.38859C12.4104 6.28674 12.54 6.23581 12.6974 6.23581C12.8548 6.23581 12.9844 6.28674 13.0863 6.38859L15.6418 8.94415C15.6974 8.9997 15.7368 9.05989 15.7602 9.1247C15.7835 9.18952 15.795 9.25896 15.7946 9.33303C15.7942 9.40711 15.7828 9.47655 15.7602 9.54137C15.7376 9.60618 15.6981 9.66637 15.6418 9.72192L13.0863 12.2775C12.9752 12.3886 12.8455 12.4419 12.6974 12.4375C12.5492 12.433 12.4196 12.3751 12.3085 12.2636C12.1974 12.1521 12.1418 12.0203 12.1418 11.868C12.1418 11.7158 12.1974 11.5838 12.3085 11.4719L14.4613 9.31915Z" fill="#0DA5E8"/>
</svg>
