<svg width="20" height="20" viewBox="0 0 20 20" fill="none" xmlns="http://www.w3.org/2000/svg">
<path d="M17.5 14.1667H2.5M15 11.6667L17.5 14.1667L15 16.6667M5 3.33337L2.5 5.83337L5 8.33337M2.5 5.83337H17.5" stroke="#8A5BF7" stroke-width="1.5" stroke-linecap="round" stroke-linejoin="round"/>
<path d="M6.19398 11.6666V11.1666H6.75898V8.66663H6.19398V8.16663H7.86398V8.66663H7.29898V11.1666H7.86398V11.6666H6.19398ZM8.68668 11.6666L8.52168 11.2566L9.59168 10.0516C9.64835 9.99163 9.70668 9.92329 9.76668 9.84663C9.83001 9.76663 9.89001 9.68496 9.94668 9.60163C10.0033 9.51829 10.0483 9.43663 10.0817 9.35663C10.1183 9.27329 10.1367 9.19496 10.1367 9.12163C10.1367 9.01496 10.115 8.92496 10.0717 8.85163C10.0317 8.77496 9.97168 8.71663 9.89168 8.67663C9.81501 8.63663 9.72168 8.61663 9.61168 8.61663C9.51501 8.61663 9.42001 8.64496 9.32668 8.70163C9.23335 8.75829 9.14835 8.83829 9.07168 8.94163C8.99501 9.04496 8.93501 9.16496 8.89168 9.30163L8.47668 9.04163C8.53335 8.84829 8.61835 8.68329 8.73168 8.54663C8.84835 8.40663 8.98668 8.29996 9.14668 8.22663C9.31001 8.15329 9.48668 8.11663 9.67668 8.11663C9.87335 8.11663 10.0483 8.15829 10.2017 8.24163C10.355 8.32163 10.475 8.43496 10.5617 8.58163C10.6483 8.72496 10.6917 8.89163 10.6917 9.08163C10.6917 9.15829 10.6833 9.23663 10.6667 9.31663C10.65 9.39663 10.6233 9.47996 10.5867 9.56663C10.55 9.64996 10.5033 9.73829 10.4467 9.83163C10.39 9.92163 10.3217 10.0166 10.2417 10.1166C10.165 10.2166 10.0767 10.3216 9.97668 10.4316L9.18168 11.2966L9.08168 11.1466H10.8017V11.6666H8.68668ZM12.8709 11.7166C12.6276 11.7166 12.4043 11.6733 12.2009 11.5866C11.9976 11.5 11.8209 11.3766 11.6709 11.2166C11.5209 11.0533 11.4043 10.8616 11.3209 10.6416C11.2409 10.4216 11.2009 10.18 11.2009 9.91663C11.2009 9.66663 11.2443 9.43496 11.3309 9.22163C11.4209 9.00496 11.5443 8.81496 11.7009 8.65163C11.8576 8.48829 12.0393 8.36163 12.2459 8.27163C12.4526 8.18163 12.6759 8.13663 12.9159 8.13663C13.0859 8.13663 13.2509 8.16329 13.4109 8.21663C13.5743 8.26663 13.7209 8.33829 13.8509 8.43163C13.9843 8.52163 14.0926 8.62496 14.1759 8.74163L13.8159 9.11663C13.7193 9.01996 13.6209 8.93996 13.5209 8.87663C13.4243 8.80996 13.3243 8.75996 13.2209 8.72663C13.1209 8.69329 13.0193 8.67663 12.9159 8.67663C12.7526 8.67663 12.5993 8.70829 12.4559 8.77163C12.3159 8.83163 12.1926 8.91663 12.0859 9.02663C11.9826 9.13663 11.9009 9.26829 11.8409 9.42163C11.7809 9.57163 11.7509 9.73663 11.7509 9.91663C11.7509 10.1066 11.7793 10.28 11.8359 10.4366C11.8959 10.59 11.9793 10.7216 12.0859 10.8316C12.1926 10.9416 12.3193 11.0266 12.4659 11.0866C12.6159 11.1433 12.7809 11.1716 12.9609 11.1716C13.0709 11.1716 13.1793 11.1566 13.2859 11.1266C13.3926 11.0966 13.4926 11.0533 13.5859 10.9966C13.6793 10.94 13.7643 10.8733 13.8409 10.7966L14.1109 11.2366C14.0343 11.3266 13.9293 11.4083 13.7959 11.4816C13.6659 11.555 13.5193 11.6133 13.3559 11.6566C13.1959 11.6966 13.0343 11.7166 12.8709 11.7166Z" fill="#8A5BF7"/>
</svg>
