<svg width="19" height="19" viewBox="0 0 19 19" fill="none" xmlns="http://www.w3.org/2000/svg">
<path fill-rule="evenodd" clip-rule="evenodd" d="M5.93711 10.45C6.06309 10.45 6.18391 10.5 6.27298 10.5891C6.36206 10.6782 6.41211 10.799 6.41211 10.925V15.675C6.41211 15.8009 6.36206 15.9217 6.27298 16.0108C6.18391 16.0999 6.06309 16.15 5.93711 16.15H4.51211C4.38613 16.15 4.26531 16.0999 4.17623 16.0108C4.08715 15.9217 4.03711 15.8009 4.03711 15.675V10.925C4.03711 10.799 4.08715 10.6782 4.17623 10.5891C4.26531 10.5 4.38613 10.45 4.51211 10.45H5.93711Z" fill="#F49E09"/>
<path d="M6.8875 15.675V10.925H5.9375V15.675H6.8875ZM4.5125 16.625H5.9375V15.675H4.5125V16.625ZM3.5625 10.925V15.675H4.5125V10.925H3.5625ZM5.9375 9.97498H4.5125V10.925H5.9375V9.97498ZM4.5125 10.925V9.97498C4.26054 9.97498 4.01891 10.0751 3.84075 10.2532C3.66259 10.4314 3.5625 10.673 3.5625 10.925H4.5125ZM4.5125 15.675H3.5625C3.5625 15.9269 3.66259 16.1686 3.84075 16.3467C4.01891 16.5249 4.26054 16.625 4.5125 16.625V15.675ZM6.8875 10.925C6.8875 10.673 6.78741 10.4314 6.60925 10.2532C6.43109 10.0751 6.18946 9.97498 5.9375 9.97498V10.925H6.8875ZM5.9375 15.675V16.625C6.18946 16.625 6.43109 16.5249 6.60925 16.3467C6.78741 16.1686 6.8875 15.9269 6.8875 15.675H5.9375Z" fill="#F49E09"/>
<path fill-rule="evenodd" clip-rule="evenodd" d="M10.2125 6.65002C10.3385 6.65002 10.4593 6.70007 10.5484 6.78915C10.6375 6.87823 10.6875 6.99905 10.6875 7.12502V15.675C10.6875 15.801 10.6375 15.9218 10.5484 16.0109C10.4593 16.1 10.3385 16.15 10.2125 16.15H8.7875C8.66152 16.15 8.5407 16.1 8.45162 16.0109C8.36254 15.9218 8.3125 15.801 8.3125 15.675V7.12502C8.3125 6.99905 8.36254 6.87823 8.45162 6.78915C8.5407 6.70007 8.66152 6.65002 8.7875 6.65002H10.2125Z" fill="#F49E09"/>
<path d="M11.1629 15.675V7.12505H10.2129V15.675H11.1629ZM8.78789 16.625H10.2129V15.675H8.78789V16.625ZM7.83789 7.12505V15.675H8.78789V7.12505H7.83789ZM10.2129 6.17505H8.78789V7.12505H10.2129V6.17505ZM8.78789 7.12505V6.17505C8.53593 6.17505 8.2943 6.27514 8.11614 6.4533C7.93798 6.63146 7.83789 6.87309 7.83789 7.12505H8.78789ZM8.78789 15.675H7.83789C7.83789 15.927 7.93798 16.1686 8.11614 16.3468C8.2943 16.525 8.53593 16.625 8.78789 16.625V15.675ZM11.1629 7.12505C11.1629 6.87309 11.0628 6.63146 10.8846 6.4533C10.7065 6.27514 10.4648 6.17505 10.2129 6.17505V7.12505H11.1629ZM10.2129 15.675V16.625C10.4648 16.625 10.7065 16.525 10.8846 16.3468C11.0628 16.1686 11.1629 15.927 11.1629 15.675H10.2129Z" fill="#F49E09"/>
<path fill-rule="evenodd" clip-rule="evenodd" d="M14.4879 2.84998C14.6139 2.84998 14.7347 2.90002 14.8238 2.9891C14.9128 3.07818 14.9629 3.199 14.9629 3.32498V15.675C14.9629 15.801 14.9128 15.9218 14.8238 16.0109C14.7347 16.0999 14.6139 16.15 14.4879 16.15H13.0629C12.9369 16.15 12.8161 16.0999 12.727 16.0109C12.6379 15.9218 12.5879 15.801 12.5879 15.675V3.32498C12.5879 3.199 12.6379 3.07818 12.727 2.9891C12.8161 2.90002 12.9369 2.84998 13.0629 2.84998H14.4879Z" fill="#F49E09"/>
<path d="M15.4383 15.675V3.325H14.4883V15.675H15.4383ZM13.0633 16.625H14.4883V15.675H13.0633V16.625ZM12.1133 3.325V15.675H13.0633V3.325H12.1133ZM14.4883 2.375H13.0633V3.325H14.4883V2.375ZM13.0633 3.325V2.375C12.8113 2.375 12.5697 2.47509 12.3915 2.65325C12.2134 2.83141 12.1133 3.07304 12.1133 3.325H13.0633ZM13.0633 15.675H12.1133C12.1133 15.927 12.2134 16.1686 12.3915 16.3468C12.5697 16.5249 12.8113 16.625 13.0633 16.625V15.675ZM15.4383 3.325C15.4383 3.07304 15.3382 2.83141 15.16 2.65325C14.9819 2.47509 14.7402 2.375 14.4883 2.375V3.325H15.4383ZM14.4883 15.675V16.625C14.7402 16.625 14.9819 16.5249 15.16 16.3468C15.3382 16.1686 15.4383 15.927 15.4383 15.675H14.4883Z" fill="#F49E09"/>
<path d="M17.1004 16.15H1.90039" stroke="#F49E09" stroke-width="1.5" stroke-linecap="round" stroke-linejoin="round"/>
</svg>
