<svg width="22" height="22" viewBox="0 0 22 22" fill="none" xmlns="http://www.w3.org/2000/svg">
<path d="M10.9993 12.8333C12.0119 12.8333 12.8327 12.0125 12.8327 11C12.8327 9.98744 12.0119 9.16663 10.9993 9.16663C9.98683 9.16663 9.16602 9.98744 9.16602 11C9.16602 12.0125 9.98683 12.8333 10.9993 12.8333Z" stroke="#3B82F6" stroke-width="2" stroke-linecap="round" stroke-linejoin="round"/>
<path d="M14.8873 7.11333C15.3987 7.62413 15.8044 8.23072 16.0811 8.89841C16.3579 9.5661 16.5004 10.2818 16.5004 11.0046C16.5004 11.7274 16.3579 12.4431 16.0811 13.1108C15.8044 13.7784 15.3987 14.385 14.8873 14.8958M7.11398 14.8867C6.60261 14.3759 6.19694 13.7693 5.92015 13.1016C5.64337 12.4339 5.5009 11.7182 5.5009 10.9954C5.5009 10.2726 5.64337 9.55693 5.92015 8.88924C6.19694 8.22155 6.60261 7.61497 7.11398 7.10417M17.4815 4.51917C19.2 6.23817 20.1654 8.56933 20.1654 11C20.1654 13.4307 19.2 15.7618 17.4815 17.4808M4.51981 17.4808C2.80133 15.7618 1.83594 13.4307 1.83594 11C1.83594 8.56933 2.80133 6.23817 4.51981 4.51917" stroke="#3B82F6" stroke-width="2" stroke-linecap="round" stroke-linejoin="round"/>
</svg>
