<svg width="19" height="19" viewBox="0 0 19 19" fill="none" xmlns="http://www.w3.org/2000/svg">
<path d="M0.847656 9.49993C0.847656 8.16993 1.51266 5.50586 4.84173 5.50586C8.8358 5.50586 10.1658 13.494 14.1599 13.494C17.4889 13.494 18.1539 10.8313 18.1539 9.49993C18.1539 8.16993 17.4889 5.50586 14.1599 5.50586C10.1658 5.50586 8.8358 13.494 4.84173 13.494C1.51266 13.494 0.847656 10.8299 0.847656 9.49993Z" stroke="#6265F0" stroke-width="1.25" stroke-linecap="round" stroke-linejoin="round"/>
<circle cx="16" cy="4" r="3" fill="#6265F0"/>
<path d="M14.9695 5.02983C14.8232 5.02983 14.6925 5.00462 14.5774 4.95419C14.4631 4.90376 14.3725 4.83381 14.3058 4.74432C14.2397 4.65412 14.2042 4.54972 14.1992 4.43111H14.5337C14.538 4.49574 14.5597 4.55185 14.5987 4.59943C14.6385 4.64631 14.6903 4.68253 14.7543 4.7081C14.8182 4.73366 14.8892 4.74645 14.9673 4.74645C15.0533 4.74645 15.1293 4.73153 15.1953 4.7017C15.2621 4.67187 15.3143 4.63033 15.3519 4.57706C15.3896 4.52308 15.4084 4.46094 15.4084 4.39062C15.4084 4.31747 15.3896 4.2532 15.3519 4.1978C15.315 4.14169 15.2607 4.09766 15.1889 4.0657C15.1179 4.03374 15.032 4.01776 14.9311 4.01776H14.7468V3.74929H14.9311C15.0121 3.74929 15.0831 3.73473 15.1442 3.70561C15.206 3.67649 15.2543 3.63601 15.2891 3.58416C15.3239 3.53161 15.3413 3.47017 15.3413 3.39986C15.3413 3.33239 15.326 3.27379 15.2955 3.22408C15.2656 3.17365 15.223 3.13423 15.1676 3.10582C15.1129 3.07741 15.0483 3.06321 14.9737 3.06321C14.9027 3.06321 14.8363 3.07635 14.7745 3.10263C14.7134 3.1282 14.6637 3.16513 14.6254 3.21342C14.587 3.26101 14.5664 3.31818 14.5636 3.38494H14.245C14.2486 3.26705 14.2834 3.16335 14.3494 3.07386C14.4162 2.98437 14.5043 2.91442 14.6136 2.86399C14.723 2.81357 14.8445 2.78835 14.978 2.78835C15.1179 2.78835 15.2386 2.8157 15.3402 2.87038C15.4425 2.92436 15.5213 2.99645 15.5767 3.08665C15.6328 3.17685 15.6605 3.27557 15.6598 3.38281C15.6605 3.50497 15.6264 3.60866 15.5575 3.69389C15.4893 3.77912 15.3984 3.83629 15.2848 3.86541V3.88246C15.4297 3.90447 15.5419 3.962 15.6214 4.05504C15.7017 4.14808 15.7415 4.26349 15.7408 4.40128C15.7415 4.52131 15.7081 4.62891 15.6406 4.72408C15.5739 4.81925 15.4826 4.89418 15.3668 4.94886C15.2511 5.00284 15.1186 5.02983 14.9695 5.02983ZM16.3991 3.36364L16.7603 4.00071L17.1246 3.36364H17.473L16.9627 4.18182L17.4773 5H17.1289L16.7603 4.38849L16.3928 5H16.0433L16.5526 4.18182L16.0497 3.36364H16.3991Z" fill="white"/>
</svg>
