<svg width="18" height="18" viewBox="0 0 18 18" fill="none" xmlns="http://www.w3.org/2000/svg">
<path d="M14.25 10.125H14.0625C14.0128 10.125 13.9651 10.1052 13.9299 10.0701C13.8948 10.0349 13.875 9.98723 13.875 9.9375V4.875C13.875 3.58207 13.3614 2.34209 12.4471 1.42785C11.5329 0.513615 10.2929 0 9 0C7.70707 0 6.46709 0.513615 5.55285 1.42785C4.63861 2.34209 4.125 3.58207 4.125 4.875V9.9375C4.125 9.98723 4.10525 10.0349 4.07008 10.0701C4.03492 10.1052 3.98723 10.125 3.9375 10.125H3.75C3.55109 10.125 3.36032 10.204 3.21967 10.3447C3.07902 10.4853 3 10.6761 3 10.875C3 11.0739 3.07902 11.2647 3.21967 11.4053C3.36032 11.546 3.55109 11.625 3.75 11.625H5.8125C5.86223 11.625 5.90992 11.6448 5.94508 11.6799C5.98025 11.7151 6 11.7628 6 11.8125V17.25C6 17.4489 6.07902 17.6397 6.21967 17.7803C6.36032 17.921 6.55109 18 6.75 18C6.94891 18 7.13968 17.921 7.28033 17.7803C7.42098 17.6397 7.5 17.4489 7.5 17.25V11.8125C7.5 11.7628 7.51975 11.7151 7.55492 11.6799C7.59008 11.6448 7.63777 11.625 7.6875 11.625H10.3125C10.3622 11.625 10.4099 11.6448 10.4451 11.6799C10.4802 11.7151 10.5 11.7628 10.5 11.8125V17.25C10.5 17.4489 10.579 17.6397 10.7197 17.7803C10.8603 17.921 11.0511 18 11.25 18C11.4489 18 11.6397 17.921 11.7803 17.7803C11.921 17.6397 12 17.4489 12 17.25V11.8125C12 11.7628 12.0198 11.7151 12.0549 11.6799C12.0901 11.6448 12.1378 11.625 12.1875 11.625H14.25C14.4489 11.625 14.6397 11.546 14.7803 11.4053C14.921 11.2647 15 11.0739 15 10.875C15 10.6761 14.921 10.4853 14.7803 10.3447C14.6397 10.204 14.4489 10.125 14.25 10.125ZM7.1025 5.625C7.00314 5.51837 6.94905 5.37733 6.95162 5.23161C6.95419 5.08588 7.01322 4.94684 7.11628 4.84378C7.21934 4.74072 7.35838 4.68169 7.50411 4.67912C7.64983 4.67655 7.79087 4.73064 7.8975 4.83L8.865 5.7975C8.88249 5.81565 8.90346 5.83008 8.92666 5.83994C8.94985 5.8498 8.9748 5.85488 9 5.85488C9.0252 5.85488 9.05015 5.8498 9.07334 5.83994C9.09654 5.83008 9.11751 5.81565 9.135 5.7975L10.1025 4.83C10.2091 4.73064 10.3502 4.67655 10.4959 4.67912C10.6416 4.68169 10.7807 4.74072 10.8837 4.84378C10.9868 4.94684 11.0458 5.08588 11.0484 5.23161C11.051 5.37733 10.9969 5.51837 10.8975 5.625L9.615 6.93C9.58256 6.96469 9.56389 7.01002 9.5625 7.0575V9.9375C9.5625 9.98723 9.54275 10.0349 9.50758 10.0701C9.47242 10.1052 9.42473 10.125 9.375 10.125H8.625C8.57527 10.125 8.52758 10.1052 8.49242 10.0701C8.45725 10.0349 8.4375 9.98723 8.4375 9.9375V7.0575C8.43611 7.01002 8.41744 6.96469 8.385 6.93L7.1025 5.625Z" fill="#22C45D"/>
</svg>
