<svg width="20" height="20" viewBox="0 0 20 20" fill="none" xmlns="http://www.w3.org/2000/svg">
<path fill-rule="evenodd" clip-rule="evenodd" d="M5.00084 2.5C5.59124 2.49912 6.1629 2.70722 6.61456 3.08744C7.06623 3.46766 7.36877 3.99546 7.46858 4.57736C7.56839 5.15926 7.45904 5.75771 7.15989 6.26671C6.86075 6.77571 6.39112 7.16242 5.83417 7.35834V7.5C5.83417 7.94203 6.00977 8.36595 6.32233 8.67851C6.63489 8.99107 7.05881 9.16667 7.50084 9.16667H12.5008C13.3849 9.16667 14.2327 9.51786 14.8579 10.143C15.483 10.7681 15.8342 11.6159 15.8342 12.5V12.6417C16.3904 12.8383 16.8593 13.2252 17.1578 13.734C17.4564 14.2428 17.5654 14.8409 17.4657 15.4223C17.366 16.0038 17.0639 16.5313 16.6128 16.9116C16.1618 17.2918 15.5908 17.5004 15.0008 17.5004C14.4109 17.5004 13.8399 17.2918 13.3889 16.9116C12.9378 16.5313 12.6357 16.0038 12.536 15.4223C12.4363 14.8409 12.5453 14.2428 12.8439 13.734C13.1424 13.2252 13.6113 12.8383 14.1675 12.6417V12.5C14.1675 12.058 13.9919 11.6341 13.6793 11.3215C13.3668 11.0089 12.9429 10.8333 12.5008 10.8333H7.50084C6.91578 10.8336 6.34097 10.6798 5.83417 10.3875V12.6425C6.39042 12.8391 6.85925 13.226 7.1578 13.7348C7.45636 14.2437 7.56541 14.8417 7.46568 15.4232C7.36595 16.0046 7.06386 16.5321 6.61281 16.9124C6.16177 17.2927 5.5908 17.5012 5.00084 17.5012C4.41088 17.5012 3.83991 17.2927 3.38886 16.9124C2.93781 16.5321 2.63573 16.0046 2.536 15.4232C2.43627 14.8417 2.54532 14.2437 2.84387 13.7348C3.14243 13.226 3.61126 12.8391 4.16751 12.6425V7.3575C3.61214 7.1603 3.14426 6.77329 2.8464 6.26476C2.54855 5.75622 2.43986 5.15883 2.53951 4.57798C2.63916 3.99712 2.94074 3.47012 3.39106 3.08994C3.84138 2.70976 4.4115 2.50083 5.00084 2.5ZM15.0008 14.1667C14.7798 14.1667 14.5679 14.2545 14.4116 14.4107C14.2553 14.567 14.1675 14.779 14.1675 15C14.1675 15.221 14.2553 15.433 14.4116 15.5893C14.5679 15.7455 14.7798 15.8333 15.0008 15.8333C15.2219 15.8333 15.4338 15.7455 15.5901 15.5893C15.7464 15.433 15.8342 15.221 15.8342 15C15.8342 14.779 15.7464 14.567 15.5901 14.4107C15.4338 14.2545 15.2219 14.1667 15.0008 14.1667ZM5.00084 14.1667C4.77982 14.1667 4.56786 14.2545 4.41158 14.4107C4.2553 14.567 4.16751 14.779 4.16751 15C4.16751 15.221 4.2553 15.433 4.41158 15.5893C4.56786 15.7455 4.77982 15.8333 5.00084 15.8333C5.22185 15.8333 5.43381 15.7455 5.59009 15.5893C5.74637 15.433 5.83417 15.221 5.83417 15C5.83417 14.779 5.74637 14.567 5.59009 14.4107C5.43381 14.2545 5.22185 14.1667 5.00084 14.1667ZM5.00084 4.16667C4.77982 4.16667 4.56786 4.25447 4.41158 4.41075C4.2553 4.56703 4.16751 4.77899 4.16751 5C4.16751 5.22102 4.2553 5.43298 4.41158 5.58926C4.56786 5.74554 4.77982 5.83334 5.00084 5.83334C5.22185 5.83334 5.43381 5.74554 5.59009 5.58926C5.74637 5.43298 5.83417 5.22102 5.83417 5C5.83417 4.77899 5.74637 4.56703 5.59009 4.41075C5.43381 4.25447 5.22185 4.16667 5.00084 4.16667Z" fill="#04B6D4"/>
</svg>
