<svg width="18" height="18" viewBox="0 0 18 18" fill="none" xmlns="http://www.w3.org/2000/svg">
<path d="M8.15625 5.06247C8.15625 5.28625 8.06736 5.50086 7.90912 5.65909C7.75089 5.81732 7.53628 5.90622 7.3125 5.90622H2.8125C2.58872 5.90622 2.37411 5.81732 2.21588 5.65909C2.05764 5.50086 1.96875 5.28625 1.96875 5.06247C1.96875 4.83869 2.05764 4.62408 2.21588 4.46585C2.37411 4.30761 2.58872 4.21872 2.8125 4.21872H7.3125C7.53628 4.21872 7.75089 4.30761 7.90912 4.46585C8.06736 4.62408 8.15625 4.83869 8.15625 5.06247ZM7.3125 12.0937H5.90625V10.6875C5.90625 10.4637 5.81736 10.2491 5.65912 10.0908C5.50089 9.93261 5.28628 9.84372 5.0625 9.84372C4.83872 9.84372 4.62411 9.93261 4.46588 10.0908C4.30764 10.2491 4.21875 10.4637 4.21875 10.6875V12.0937H2.8125C2.58872 12.0937 2.37411 12.1826 2.21588 12.3408C2.05764 12.4991 1.96875 12.7137 1.96875 12.9375C1.96875 13.1612 2.05764 13.3759 2.21588 13.5341C2.37411 13.6923 2.58872 13.7812 2.8125 13.7812H4.21875V15.1875C4.21875 15.4112 4.30764 15.6259 4.46588 15.7841C4.62411 15.9423 4.83872 16.0312 5.0625 16.0312C5.28628 16.0312 5.50089 15.9423 5.65912 15.7841C5.81736 15.6259 5.90625 15.4112 5.90625 15.1875V13.7812H7.3125C7.53628 13.7812 7.75089 13.6923 7.90912 13.5341C8.06736 13.3759 8.15625 13.1612 8.15625 12.9375C8.15625 12.7137 8.06736 12.4991 7.90912 12.3408C7.75089 12.1826 7.53628 12.0937 7.3125 12.0937ZM10.6875 12.375H15.1875C15.4113 12.375 15.6259 12.2861 15.7841 12.1278C15.9424 11.9696 16.0312 11.755 16.0312 11.5312C16.0312 11.3074 15.9424 11.0928 15.7841 10.9346C15.6259 10.7764 15.4113 10.6875 15.1875 10.6875H10.6875C10.4637 10.6875 10.2491 10.7764 10.0909 10.9346C9.93265 11.0928 9.84375 11.3074 9.84375 11.5312C9.84375 11.755 9.93265 11.9696 10.0909 12.1278C10.2491 12.2861 10.4637 12.375 10.6875 12.375ZM15.1875 13.5H10.6875C10.4637 13.5 10.2491 13.5889 10.0909 13.7471C9.93265 13.9053 9.84375 14.1199 9.84375 14.3437C9.84375 14.5675 9.93265 14.7821 10.0909 14.9403C10.2491 15.0986 10.4637 15.1875 10.6875 15.1875H15.1875C15.4113 15.1875 15.6259 15.0986 15.7841 14.9403C15.9424 14.7821 16.0312 14.5675 16.0312 14.3437C16.0312 14.1199 15.9424 13.9053 15.7841 13.7471C15.6259 13.5889 15.4113 13.5 15.1875 13.5ZM10.653 7.34692C10.7314 7.42558 10.8246 7.488 10.9271 7.53058C11.0297 7.57317 11.1397 7.59509 11.2507 7.59509C11.3618 7.59509 11.4717 7.57317 11.5743 7.53058C11.6768 7.488 11.77 7.42558 11.8484 7.34692L12.9375 6.25778L14.028 7.34903C14.1866 7.50754 14.4015 7.59659 14.6257 7.59659C14.8499 7.59659 15.0649 7.50754 15.2234 7.34903C15.3819 7.19052 15.4709 6.97554 15.4709 6.75138C15.4709 6.52721 15.3819 6.31223 15.2234 6.15372L14.1328 5.06247L15.2241 3.97192C15.3826 3.81341 15.4716 3.59843 15.4716 3.37427C15.4716 3.1501 15.3826 2.93512 15.2241 2.77661C15.0656 2.6181 14.8506 2.52905 14.6264 2.52905C14.4022 2.52905 14.1873 2.6181 14.0288 2.77661L12.9375 3.86716L11.847 2.77802C11.6884 2.61951 11.4735 2.53046 11.2493 2.53046C11.0251 2.53046 10.8101 2.61951 10.6516 2.77802C10.4931 2.93652 10.4041 3.15151 10.4041 3.37567C10.4041 3.59984 10.4931 3.81482 10.6516 3.97333L11.7422 5.06247L10.653 6.15302C10.5746 6.23138 10.5124 6.32443 10.4699 6.42686C10.4274 6.52929 10.4056 6.63909 10.4056 6.74997C10.4056 6.86085 10.4274 6.97065 10.4699 7.07308C10.5124 7.17551 10.5746 7.26856 10.653 7.34692Z" fill="#84CB17"/>
</svg>
