<svg width="21" height="21" viewBox="0 0 21 21" fill="none" xmlns="http://www.w3.org/2000/svg">
<path d="M16.625 2.625H4.375C3.4125 2.625 2.625 3.4125 2.625 4.375V5.25H11.375C11.7075 5.25 12.005 5.43375 12.1538 5.73125L13.23 7.88375C14.14 7.945 14.875 8.6975 14.875 9.625C14.875 10.5525 14.0875 11.375 13.125 11.375C12.1625 11.375 11.375 10.5875 11.375 9.625C11.375 9.26625 11.48 8.9425 11.6637 8.6625L10.8325 7H2.625V16.625C2.625 17.5875 3.4125 18.375 4.375 18.375H16.625C17.5875 18.375 18.375 17.5875 18.375 16.625V15.75H9.625C9.2925 15.75 8.995 15.5663 8.84625 15.2688L7.77 13.1163C6.86 13.055 6.125 12.3025 6.125 11.375C6.125 10.4475 6.9125 9.625 7.875 9.625C8.8375 9.625 9.625 10.4125 9.625 11.375C9.625 11.7338 9.52 12.0575 9.33625 12.3375L10.1675 14H18.375V4.375C18.375 3.4125 17.5875 2.625 16.625 2.625Z" fill="#EB4899"/>
</svg>
