<svg width="33" height="16" viewBox="0 0 33 16" fill="none" xmlns="http://www.w3.org/2000/svg">
<path d="M3.63847 4.16675C2.96925 5.51308 2.62229 6.9966 2.62502 8.50008C2.62502 10.0568 2.98956 11.528 3.63847 12.8334M11.2922 12.8334C11.9613 11.487 12.308 10.0035 12.3051 8.50008C12.3051 6.94333 11.9406 5.47216 11.2922 4.16675M5.87502 6.87508H6.54993C6.66757 6.87513 6.782 6.91348 6.87591 6.98433C6.96983 7.05518 7.03812 7.15468 7.07047 7.26779L7.92956 10.274C7.96191 10.3871 8.0302 10.4866 8.12412 10.5575C8.21803 10.6283 8.33246 10.6667 8.4501 10.6667H9.12502M9.66668 6.87508H9.62335C9.46705 6.87502 9.31258 6.90877 9.17056 6.97403C9.02853 7.0393 8.90231 7.13452 8.80056 7.25316L6.20002 10.2887C6.0982 10.4074 5.9719 10.5026 5.82977 10.5679C5.68765 10.6332 5.53308 10.6669 5.37668 10.6667H5.33335" stroke="#E9B308" stroke-linecap="round" stroke-linejoin="round"/>
<path d="M15.3867 8.4165C15.3867 8.30876 15.4295 8.20543 15.5057 8.12924C15.5819 8.05306 15.6852 8.01025 15.793 8.01025H21.2096C21.3174 8.01025 21.4207 8.05306 21.4969 8.12924C21.5731 8.20543 21.6159 8.30876 21.6159 8.4165C21.6159 8.52425 21.5731 8.62758 21.4969 8.70377C21.4207 8.77995 21.3174 8.82275 21.2096 8.82275H15.793C15.6852 8.82275 15.5819 8.77995 15.5057 8.70377C15.4295 8.62758 15.3867 8.52425 15.3867 8.4165ZM15.3867 10.5832C15.3867 10.4754 15.4295 10.3721 15.5057 10.2959C15.5819 10.2197 15.6852 10.1769 15.793 10.1769H21.2096C21.3174 10.1769 21.4207 10.2197 21.4969 10.2959C21.5731 10.3721 21.6159 10.4754 21.6159 10.5832C21.6159 10.6909 21.5731 10.7942 21.4969 10.8704C21.4207 10.9466 21.3174 10.9894 21.2096 10.9894H15.793C15.6852 10.9894 15.5819 10.9466 15.5057 10.8704C15.4295 10.7942 15.3867 10.6909 15.3867 10.5832Z" fill="#E9B308"/>
<path d="M25.5 6.5C25.5 5.67188 26.1719 5 27 5C27.8281 5 28.5 5.67188 28.5 6.5C28.5 7.16719 28.0641 7.73281 27.4609 7.92812C27.0172 8.07188 26.5 8.47969 26.5 9.125V9.5C26.5 9.77656 26.7234 10 27 10C27.2766 10 27.5 9.77656 27.5 9.5V9.125C27.5 9.09844 27.5094 9.06094 27.5547 9.01094C27.6016 8.95938 27.6781 8.90937 27.7688 8.87969C28.7734 8.55625 29.5 7.61406 29.5 6.5C29.5 5.11875 28.3812 4 27 4C25.6187 4 24.5 5.11875 24.5 6.5C24.5 6.77656 24.7234 7 25 7C25.2766 7 25.5 6.77656 25.5 6.5ZM27 12C27.3453 12 27.625 11.7203 27.625 11.375C27.625 11.0297 27.3453 10.75 27 10.75C26.6547 10.75 26.375 11.0297 26.375 11.375C26.375 11.7203 26.6547 12 27 12Z" fill="#E9B308"/>
</svg>
