<svg width="42" height="41" viewBox="0 0 42 41" fill="none" xmlns="http://www.w3.org/2000/svg">
<path d="M21 40.5C32.3218 40.5 41.5 31.5457 41.5 20.5C41.5 9.4543 32.3218 0.5 21 0.5C9.67816 0.5 0.5 9.4543 0.5 20.5C0.5 31.5457 9.67816 40.5 21 40.5Z" fill="#EFEFF2" stroke="#CACAD0"/>
<path d="M25 22.5H24.21L23.93 22.23C24.944 21.0541 25.5012 19.5527 25.5 18C25.5 16.2761 24.8152 14.6228 23.5962 13.4038C22.3772 12.1848 20.7239 11.5 19 11.5C17.2761 11.5 15.6228 12.1848 14.4038 13.4038C13.1848 14.6228 12.5 16.2761 12.5 18C12.5 19.7239 13.1848 21.3772 14.4038 22.5962C15.6228 23.8152 17.2761 24.5 19 24.5C20.61 24.5 22.09 23.91 23.23 22.93L23.5 23.21V24L28.5 29L30 27.5L25 22.5ZM19 22.5C16.5 22.5 14.5 20.5 14.5 18C14.5 15.5 16.5 13.5 19 13.5C21.5 13.5 23.5 15.5 23.5 18C23.5 20.5 21.5 22.5 19 22.5ZM16.5 17.5H21.5V18.5H16.5V17.5Z" fill="#565656"/>
</svg>
