<svg width="42" height="41" viewBox="0 0 42 41" fill="none" xmlns="http://www.w3.org/2000/svg">
<path d="M21 40.5C32.3218 40.5 41.5 31.5457 41.5 20.5C41.5 9.4543 32.3218 0.5 21 0.5C9.67816 0.5 0.5 9.4543 0.5 20.5C0.5 31.5457 9.67816 40.5 21 40.5Z" fill="#EFEFF2" stroke="#CACAD0"/>
<path d="M10.5 20.5H13.5M27.5 20.5H30.5M20.5 10.5V13.5M20.5 27.5V30.5" stroke="#565656" stroke-width="2" stroke-linecap="round" stroke-linejoin="round"/>
<path d="M20.5 27.5C24.366 27.5 27.5 24.366 27.5 20.5C27.5 16.634 24.366 13.5 20.5 13.5C16.634 13.5 13.5 16.634 13.5 20.5C13.5 24.366 16.634 27.5 20.5 27.5Z" stroke="#565656" stroke-width="2" stroke-linecap="round" stroke-linejoin="round"/>
</svg>
