<svg width="42" height="41" viewBox="0 0 42 41" fill="none" xmlns="http://www.w3.org/2000/svg">
<path d="M21 40.5C32.3218 40.5 41.5 31.5457 41.5 20.5C41.5 9.4543 32.3218 0.5 21 0.5C9.67816 0.5 0.5 9.4543 0.5 20.5C0.5 31.5457 9.67816 40.5 21 40.5Z" fill="#EFEFF2" stroke="#CACAD0"/>
<path d="M25 22.5H24.21L23.93 22.23C24.944 21.0541 25.5012 19.5527 25.5 18C25.5 16.7144 25.1188 15.4577 24.4046 14.3888C23.6903 13.3199 22.6752 12.4868 21.4874 11.9948C20.2997 11.5028 18.9928 11.3741 17.7319 11.6249C16.471 11.8757 15.3128 12.4948 14.4038 13.4038C13.4948 14.3128 12.8757 15.471 12.6249 16.7319C12.3741 17.9928 12.5028 19.2997 12.9948 20.4874C13.4868 21.6752 14.3199 22.6903 15.3888 23.4046C16.4577 24.1188 17.7144 24.5 19 24.5C20.61 24.5 22.09 23.91 23.23 22.93L23.5 23.21V24L28.5 28.99L29.99 27.5L25 22.5ZM19 22.5C16.51 22.5 14.5 20.49 14.5 18C14.5 15.51 16.51 13.5 19 13.5C21.49 13.5 23.5 15.51 23.5 18C23.5 20.49 21.49 22.5 19 22.5Z" fill="#565656"/>
<path d="M21.5 18.5H19.5V20.5H18.5V18.5H16.5V17.5H18.5V15.5H19.5V17.5H21.5V18.5Z" fill="#565656"/>
</svg>
