<svg width="20" height="20" viewBox="0 0 20 20" fill="none" xmlns="http://www.w3.org/2000/svg">
<path d="M10.9514 2.15401C10.6723 2.25006 10.4305 2.43123 10.2599 2.67198C10.0893 2.91273 9.99851 3.20094 10.0004 3.49601C10.0004 3.79601 10.0904 4.07701 10.2604 4.31701C10.4304 4.55701 10.6704 4.74801 10.9704 4.84901L12.0324 5.19901C12.1824 5.24901 12.3224 5.32901 12.5024 5.48901C12.6124 5.59901 12.7024 5.72901 12.7934 5.96001L13.1534 7.05201C13.2434 7.30201 13.4034 7.53201 13.6734 7.74301C13.8134 7.84301 13.9637 7.91301 14.1244 7.95301C14.0444 8.12301 14.0044 8.31301 14.0044 8.50301C14.0044 8.77401 14.0844 9.03601 14.2444 9.25601C14.4044 9.47601 14.6244 9.63601 14.8944 9.73601L15.6554 9.98601C15.7354 10.016 15.8154 10.066 15.8754 10.127C15.9454 10.187 15.9854 10.267 16.0154 10.347L16.2754 11.148C16.3754 11.398 16.5354 11.609 16.7554 11.77C16.9754 11.919 17.2344 11.998 17.5024 11.999C17.6754 11.999 17.8434 11.977 18.0004 11.919V12C18.0004 12.7957 17.6843 13.5587 17.1217 14.1213C16.5591 14.6839 15.796 15 15.0004 15H10.5004V17H13.5004C13.633 17 13.7601 17.0527 13.8539 17.1465C13.9477 17.2402 14.0004 17.3674 14.0004 17.5C14.0004 17.6326 13.9477 17.7598 13.8539 17.8536C13.7601 17.9473 13.633 18 13.5004 18H6.50035C6.36774 18 6.24057 17.9473 6.1468 17.8536C6.05303 17.7598 6.00035 17.6326 6.00035 17.5C6.00035 17.3674 6.05303 17.2402 6.1468 17.1465C6.24057 17.0527 6.36774 17 6.50035 17H9.50035V15H5.00035C4.2047 15 3.44164 14.6839 2.87903 14.1213C2.31642 13.5587 2.00035 12.7957 2.00035 12V4.91501C1.66736 4.79642 1.38691 4.56412 1.2084 4.25903C1.02989 3.95394 0.96478 3.59564 1.02454 3.24725C1.0843 2.89887 1.26509 2.58274 1.53506 2.35458C1.80504 2.12642 2.14688 2.00086 2.50035 2.00001H11.4324L10.9514 2.15401ZM7.50035 11C7.36774 11 7.24057 11.0527 7.1468 11.1465C7.05303 11.2402 7.00035 11.3674 7.00035 11.5C7.00035 11.6326 7.05303 11.7598 7.1468 11.8536C7.24057 11.9473 7.36774 12 7.50035 12H12.5004C12.633 12 12.7601 11.9473 12.8539 11.8536C12.9477 11.7598 13.0004 11.6326 13.0004 11.5C13.0004 11.3674 12.9477 11.2402 12.8539 11.1465C12.7601 11.0527 12.633 11 12.5004 11H7.50035ZM17.4974 12H17.5074L17.5024 11.999L17.4974 12ZM6.50035 9.00001C6.36774 9.00001 6.24057 9.05269 6.1468 9.14646C6.05303 9.24023 6.00035 9.3674 6.00035 9.50001C6.00035 9.63262 6.05303 9.7598 6.1468 9.85357C6.24057 9.94734 6.36774 10 6.50035 10H13.5004C13.633 10 13.7601 9.94734 13.8539 9.85357C13.9477 9.7598 14.0004 9.63262 14.0004 9.50001C14.0004 9.3674 13.9477 9.24023 13.8539 9.14646C13.7601 9.05269 13.633 9.00001 13.5004 9.00001H6.50035ZM7.50035 7.00001C7.36774 7.00001 7.24057 7.05269 7.1468 7.14646C7.05303 7.24023 7.00035 7.3674 7.00035 7.50001C7.00035 7.63262 7.05303 7.7598 7.1468 7.85357C7.24057 7.94733 7.36774 8.00001 7.50035 8.00001H12.5004C12.633 8.00001 12.7601 7.94733 12.8539 7.85357C12.9477 7.7598 13.0004 7.63262 13.0004 7.50001C13.0004 7.3674 12.9477 7.24023 12.8539 7.14646C12.7601 7.05269 12.633 7.00001 12.5004 7.00001H7.50035ZM17.4844 6.00001C17.5469 5.99964 17.608 6.01881 17.6591 6.05485C17.7102 6.09088 17.7487 6.14199 17.7694 6.20101L18.0194 6.96701C18.0971 7.19945 18.2278 7.41062 18.4012 7.58383C18.5745 7.75704 18.7858 7.88754 19.0184 7.96501L19.7834 8.21301L19.7984 8.21701C19.8424 8.23269 19.8822 8.25834 19.9146 8.29196C19.9471 8.32557 19.9714 8.36624 19.9855 8.41079C19.9996 8.45533 20.0033 8.50254 19.9961 8.54872C19.989 8.59491 19.9713 8.63882 19.9444 8.67701C19.9083 8.72798 19.8573 8.76643 19.7984 8.78701L19.0334 9.03501C18.8008 9.11249 18.5895 9.24299 18.4162 9.4162C18.2428 9.58941 18.1121 9.80058 18.0344 10.033L17.7854 10.799C17.7646 10.8581 17.7261 10.9093 17.675 10.9455C17.624 10.9817 17.5629 11.0011 17.5004 11.0011C17.4378 11.0011 17.3767 10.9817 17.3257 10.9455C17.2746 10.9093 17.2361 10.8581 17.2154 10.799L16.9654 10.033C16.8883 9.79995 16.758 9.58805 16.5847 9.41412C16.4115 9.24019 16.2001 9.10902 15.9674 9.03101L15.2024 8.78301C15.1583 8.76733 15.1185 8.74168 15.0861 8.70807C15.0536 8.67445 15.0293 8.63378 15.0152 8.58924C15.0011 8.5447 14.9974 8.49749 15.0046 8.4513C15.0117 8.40512 15.0294 8.36121 15.0564 8.32301C15.0924 8.27205 15.1434 8.2336 15.2024 8.21301L15.9674 7.96501C16.1971 7.88557 16.4054 7.75418 16.5761 7.58109C16.7467 7.40799 16.8752 7.19785 16.9514 6.96701L17.2004 6.20001C17.2211 6.14134 17.2596 6.09056 17.3105 6.05473C17.3613 6.01889 17.4221 5.99977 17.4844 6.00001ZM14.4784 1.30834e-05C14.5661 -0.000679617 14.6519 0.0261497 14.7237 0.0767309C14.7954 0.127312 14.8495 0.199102 14.8784 0.282013L15.2264 1.35401C15.3344 1.67959 15.5171 1.97538 15.7598 2.21777C16.0026 2.46016 16.2986 2.64242 16.6244 2.75001L17.6964 3.09901L17.7184 3.10401C17.8002 3.13375 17.8708 3.18794 17.9208 3.25923C17.9707 3.33053 17.9975 3.41546 17.9975 3.50251C17.9975 3.58956 17.9707 3.6745 17.9208 3.74579C17.8708 3.81709 17.8002 3.87128 17.7184 3.90101L16.6454 4.25001C16.32 4.3583 16.0243 4.54081 15.7817 4.7831C15.539 5.02539 15.3561 5.32082 15.2474 5.64601L14.9004 6.71801C14.8785 6.77962 14.8427 6.83532 14.7957 6.88076C14.7487 6.92619 14.6919 6.96012 14.6296 6.97989C14.5673 6.99965 14.5012 7.00471 14.4367 6.99467C14.3721 6.98463 14.3107 6.95976 14.2574 6.92201L14.2374 6.90701C14.1757 6.85732 14.129 6.79157 14.1024 6.71701L13.7544 5.64701C13.6457 5.32079 13.4628 5.02426 13.2201 4.78078C12.9773 4.53731 12.6813 4.35356 12.3554 4.24401L11.2834 3.89601C11.2015 3.86628 11.1309 3.81209 11.0809 3.74079C11.031 3.6695 11.0042 3.58456 11.0042 3.49751C11.0042 3.41046 11.031 3.32553 11.0809 3.25423C11.1309 3.18294 11.2015 3.12875 11.2834 3.09901L12.3554 2.75001C12.6768 2.63897 12.9683 2.45523 13.2072 2.21309C13.446 1.97096 13.6257 1.67697 13.7324 1.35401L14.0804 0.282013C14.1092 0.199102 14.1633 0.127312 14.235 0.0767309C14.3068 0.0261497 14.3926 -0.000679617 14.4804 1.30834e-05" fill="white"/>
</svg>
