<svg width="20" height="20" viewBox="0 0 20 20" fill="none" xmlns="http://www.w3.org/2000/svg">
<path d="M4 4C4 2.89687 4.89687 2 6 2H10.6719C11.2031 2 11.7125 2.20937 12.0875 2.58437L15.4156 5.91562C15.7906 6.29062 16 6.8 16 7.33125V16C16 17.1031 15.1031 18 14 18H6C4.89687 18 4 17.1031 4 16V4ZM10.5 3.82812V6.75C10.5 7.16562 10.8344 7.5 11.25 7.5H14.1719L10.5 3.82812ZM7.75 10C7.33437 10 7 10.3344 7 10.75C7 11.1656 7.33437 11.5 7.75 11.5H12.25C12.6656 11.5 13 11.1656 13 10.75C13 10.3344 12.6656 10 12.25 10H7.75ZM7.75 13C7.33437 13 7 13.3344 7 13.75C7 14.1656 7.33437 14.5 7.75 14.5H12.25C12.6656 14.5 13 14.1656 13 13.75C13 13.3344 12.6656 13 12.25 13H7.75Z" fill="white"/>
</svg>
