<svg width="86" height="36" viewBox="0 0 86 36" fill="none" xmlns="http://www.w3.org/2000/svg">
<rect width="86" height="36" rx="9" fill="#7D7D7D"/>
<path d="M45.274 24V14.2H47.374V22.11H51.812V24H45.274ZM53.6522 24V16.594H55.6402V24H53.6522ZM54.6322 15.068C54.2496 15.068 53.9509 14.9747 53.7362 14.788C53.5216 14.6013 53.4142 14.3353 53.4142 13.99C53.4142 13.6727 53.5216 13.416 53.7362 13.22C53.9602 13.0147 54.2589 12.912 54.6322 12.912C55.0149 12.912 55.3136 13.01 55.5282 13.206C55.7429 13.3927 55.8502 13.654 55.8502 13.99C55.8502 14.3167 55.7382 14.578 55.5142 14.774C55.2996 14.97 55.0056 15.068 54.6322 15.068ZM60.0875 24L56.9795 16.594H59.1635L61.1375 22.124L60.6755 22.208L62.7475 16.594H64.8755L61.6135 24H60.0875ZM69.3986 24.14C68.596 24.14 67.896 23.9767 67.2986 23.65C66.7013 23.3233 66.2346 22.8753 65.8986 22.306C65.5626 21.7367 65.3946 21.0833 65.3946 20.346C65.3946 19.7767 65.488 19.254 65.6746 18.778C65.8613 18.302 66.1226 17.8913 66.4586 17.546C66.7946 17.1913 67.1913 16.9207 67.6486 16.734C68.1153 16.538 68.6193 16.44 69.1606 16.44C69.6646 16.44 70.1313 16.5333 70.5606 16.72C70.99 16.8973 71.3586 17.154 71.6666 17.49C71.984 17.8167 72.2266 18.204 72.3946 18.652C72.5626 19.1 72.6373 19.59 72.6186 20.122L72.6046 20.738H66.6546L66.3326 19.52H70.9666L70.7426 19.772V19.464C70.724 19.212 70.64 18.9833 70.4906 18.778C70.3506 18.5727 70.1686 18.414 69.9446 18.302C69.7206 18.19 69.4686 18.134 69.1886 18.134C68.778 18.134 68.428 18.2133 68.1386 18.372C67.8586 18.5307 67.644 18.764 67.4946 19.072C67.3453 19.38 67.2706 19.7533 67.2706 20.192C67.2706 20.64 67.364 21.0273 67.5506 21.354C67.7466 21.6807 68.0173 21.9373 68.3626 22.124C68.7173 22.3013 69.1326 22.39 69.6086 22.39C69.9353 22.39 70.234 22.3387 70.5046 22.236C70.7753 22.1333 71.0646 21.956 71.3726 21.704L72.3246 23.034C72.054 23.2767 71.7553 23.482 71.4286 23.65C71.102 23.8087 70.766 23.93 70.4206 24.014C70.0753 24.098 69.7346 24.14 69.3986 24.14Z" fill="white"/>
<circle cx="17.5" cy="18.5" r="10.5" fill="white"/>
<path d="M12.5156 20.3362C12.7344 20.9037 13.0365 21.4218 13.4219 21.8906C13.5052 21.9948 13.5496 22.1146 13.555 22.25C13.5604 22.3854 13.516 22.5 13.4219 22.5937C13.3277 22.6875 13.2106 22.7291 13.0706 22.7187C12.9306 22.7083 12.8133 22.6458 12.7188 22.5312C12.25 21.9791 11.8881 21.3619 11.6331 20.6794C11.3781 19.9969 11.2504 19.2704 11.25 18.5C11.2496 17.7296 11.3773 17.0029 11.6331 16.32C11.889 15.6371 12.2508 15.02 12.7188 14.4687C12.8125 14.3541 12.9298 14.2944 13.0706 14.2894C13.2115 14.2844 13.3285 14.3285 13.4219 14.4219C13.5152 14.5152 13.5596 14.6273 13.555 14.7581C13.5504 14.8889 13.506 15.006 13.4219 15.1094C13.0365 15.5781 12.7344 16.0964 12.5156 16.6644C12.2969 17.2323 12.1875 17.8441 12.1875 18.5C12.1875 19.1558 12.2969 19.7679 12.5156 20.3362ZM14.2425 19.6175C14.3621 19.9662 14.5313 20.2864 14.75 20.5781C14.8333 20.6927 14.875 20.8125 14.875 20.9375C14.875 21.0625 14.8281 21.1718 14.7344 21.2656C14.6406 21.3593 14.5313 21.4037 14.4063 21.3987C14.2813 21.3937 14.1771 21.3389 14.0938 21.2344C13.7917 20.8594 13.5548 20.44 13.3831 19.9762C13.2115 19.5125 13.1254 19.0204 13.125 18.5C13.1246 17.9796 13.2106 17.4873 13.3831 17.0231C13.5556 16.5589 13.7925 16.1398 14.0938 15.7656C14.1771 15.6614 14.2813 15.6069 14.4063 15.6019C14.5313 15.5969 14.6406 15.641 14.7344 15.7344C14.8281 15.8277 14.875 15.9371 14.875 16.0625C14.875 16.1879 14.8333 16.3077 14.75 16.4219C14.5313 16.7135 14.3621 17.0337 14.2425 17.3825C14.1229 17.7312 14.0629 18.1037 14.0625 18.5C14.0621 18.8962 14.1221 19.2687 14.2425 19.6175ZM16.875 21.3125C16.875 21.0729 16.7944 20.836 16.6331 20.6019C16.4719 20.3677 16.2921 20.1229 16.0938 19.8675C15.8954 19.6121 15.7158 19.3462 15.555 19.07C15.3942 18.7937 15.3133 18.4996 15.3125 18.1875C15.3125 17.5833 15.526 17.0677 15.9531 16.6406C16.3802 16.2135 16.8958 16 17.5 16C18.1042 16 18.6198 16.2135 19.0469 16.6406C19.474 17.0677 19.6875 17.5833 19.6875 18.1875C19.6875 18.5 19.6069 18.7944 19.4456 19.0706C19.2844 19.3469 19.1046 19.6123 18.9063 19.8669C18.7079 20.1214 18.5283 20.3664 18.3675 20.6019C18.2067 20.8373 18.1258 21.0741 18.125 21.3125H16.875ZM16.875 22.25V21.9375H18.125V22.25C18.125 22.4271 18.065 22.5756 17.945 22.6956C17.825 22.8156 17.6767 22.8754 17.5 22.875C17.3233 22.8746 17.175 22.8146 17.055 22.695C16.935 22.5754 16.875 22.4271 16.875 22.25ZM20.7581 17.3825C20.6381 17.0337 20.4688 16.7135 20.25 16.4219C20.1667 16.3073 20.125 16.1875 20.125 16.0625C20.125 15.9375 20.1719 15.8281 20.2656 15.7344C20.3594 15.6406 20.4688 15.5964 20.5938 15.6019C20.7188 15.6073 20.8229 15.6619 20.9063 15.7656C21.2083 16.1406 21.4454 16.56 21.6175 17.0237C21.7896 17.4875 21.8754 17.9796 21.875 18.5C21.8746 19.0204 21.7885 19.5127 21.6169 19.9769C21.4452 20.441 21.2083 20.8602 20.9063 21.2344C20.8229 21.3385 20.7188 21.3933 20.5938 21.3987C20.4688 21.4041 20.3594 21.3598 20.2656 21.2656C20.1719 21.1714 20.125 21.0621 20.125 20.9375C20.125 20.8129 20.1667 20.6931 20.25 20.5781C20.4688 20.2864 20.6381 19.9662 20.7581 19.6175C20.8781 19.2687 20.9379 18.8962 20.9375 18.5C20.9371 18.1037 20.8771 17.7314 20.7575 17.3831M22.4844 16.6644C22.2656 16.0964 21.9635 15.5781 21.5781 15.1094C21.4948 15.0052 21.4506 14.8854 21.4456 14.75C21.4406 14.6146 21.4848 14.5 21.5781 14.4062C21.6715 14.3125 21.7888 14.2708 21.93 14.2812C22.0713 14.2916 22.1883 14.3541 22.2813 14.4687C22.75 15.0208 23.1121 15.6381 23.3675 16.3206C23.6229 17.0031 23.7504 17.7296 23.75 18.5C23.7496 19.2704 23.6221 19.9971 23.3675 20.68C23.1129 21.3629 22.7508 21.98 22.2813 22.5312C22.1875 22.6458 22.0704 22.7058 21.93 22.7112C21.7896 22.7166 21.6723 22.6723 21.5781 22.5781C21.484 22.4839 21.4398 22.3721 21.4456 22.2425C21.4515 22.1129 21.4956 21.9956 21.5781 21.8906C21.9635 21.4218 22.2656 20.9035 22.4844 20.3356C22.7031 19.7677 22.8125 19.1558 22.8125 18.5C22.8125 17.8441 22.7031 17.2323 22.4844 16.6644Z" fill="#4E4E4E"/>
</svg>
