<svg width="85" height="36" viewBox="0 0 85 36" fill="none" xmlns="http://www.w3.org/2000/svg">
<rect width="85" height="36" rx="9" fill="#0D9B72"/>
<path d="M42.274 24V14.2H44.374V22.11H48.812V24H42.274ZM50.6522 24V16.594H52.6402V24H50.6522ZM51.6322 15.068C51.2496 15.068 50.9509 14.9747 50.7362 14.788C50.5216 14.6013 50.4142 14.3353 50.4142 13.99C50.4142 13.6727 50.5216 13.416 50.7362 13.22C50.9602 13.0147 51.2589 12.912 51.6322 12.912C52.0149 12.912 52.3136 13.01 52.5282 13.206C52.7429 13.3927 52.8502 13.654 52.8502 13.99C52.8502 14.3167 52.7382 14.578 52.5142 14.774C52.2996 14.97 52.0056 15.068 51.6322 15.068ZM57.0875 24L53.9795 16.594H56.1635L58.1375 22.124L57.6755 22.208L59.7475 16.594H61.8755L58.6135 24H57.0875ZM66.3986 24.14C65.596 24.14 64.896 23.9767 64.2986 23.65C63.7013 23.3233 63.2346 22.8753 62.8986 22.306C62.5626 21.7367 62.3946 21.0833 62.3946 20.346C62.3946 19.7767 62.488 19.254 62.6746 18.778C62.8613 18.302 63.1226 17.8913 63.4586 17.546C63.7946 17.1913 64.1913 16.9207 64.6486 16.734C65.1153 16.538 65.6193 16.44 66.1606 16.44C66.6646 16.44 67.1313 16.5333 67.5606 16.72C67.99 16.8973 68.3586 17.154 68.6666 17.49C68.984 17.8167 69.2266 18.204 69.3946 18.652C69.5626 19.1 69.6373 19.59 69.6186 20.122L69.6046 20.738H63.6546L63.3326 19.52H67.9666L67.7426 19.772V19.464C67.724 19.212 67.64 18.9833 67.4906 18.778C67.3506 18.5727 67.1686 18.414 66.9446 18.302C66.7206 18.19 66.4686 18.134 66.1886 18.134C65.778 18.134 65.428 18.2133 65.1386 18.372C64.8586 18.5307 64.644 18.764 64.4946 19.072C64.3453 19.38 64.2706 19.7533 64.2706 20.192C64.2706 20.64 64.364 21.0273 64.5506 21.354C64.7466 21.6807 65.0173 21.9373 65.3626 22.124C65.7173 22.3013 66.1326 22.39 66.6086 22.39C66.9353 22.39 67.234 22.3387 67.5046 22.236C67.7753 22.1333 68.0646 21.956 68.3726 21.704L69.3246 23.034C69.054 23.2767 68.7553 23.482 68.4286 23.65C68.102 23.8087 67.766 23.93 67.4206 24.014C67.0753 24.098 66.7346 24.14 66.3986 24.14Z" fill="white"/>
<circle cx="17.5" cy="18.5" r="10.5" fill="white"/>
<g clip-path="url(#clip0_569_3031)">
<path d="M17.5 11.9375C16.2021 11.9375 14.9333 12.3224 13.8541 13.0435C12.7749 13.7646 11.9337 14.7895 11.437 15.9886C10.9403 17.1878 10.8104 18.5073 11.0636 19.7803C11.3168 21.0533 11.9418 22.2226 12.8596 23.1404C13.7774 24.0582 14.9467 24.6832 16.2197 24.9364C17.4927 25.1896 18.8122 25.0597 20.0114 24.563C21.2105 24.0663 22.2354 23.2251 22.9565 22.1459C23.6776 21.0667 24.0625 19.7979 24.0625 18.5C24.0625 16.7595 23.3711 15.0903 22.1404 13.8596C20.9097 12.6289 19.2405 11.9375 17.5 11.9375ZM20.3125 20.375C20.3125 20.6236 20.2137 20.8621 20.0379 21.0379C19.8621 21.2137 19.6236 21.3125 19.375 21.3125H15.625C15.3764 21.3125 15.1379 21.2137 14.9621 21.0379C14.7863 20.8621 14.6875 20.6236 14.6875 20.375V16.625C14.6875 16.3764 14.7863 16.1379 14.9621 15.9621C15.1379 15.7863 15.3764 15.6875 15.625 15.6875H19.375C19.6236 15.6875 19.8621 15.7863 20.0379 15.9621C20.2137 16.1379 20.3125 16.3764 20.3125 16.625V20.375Z" fill="#E57333"/>
</g>
<defs>
<clipPath id="clip0_569_3031">
<rect width="15" height="15" fill="white" transform="translate(10 11)"/>
</clipPath>
</defs>
</svg>
