<svg width="12" height="12" viewBox="0 0 12 12" fill="none" xmlns="http://www.w3.org/2000/svg">
<path d="M3.75 10.5C3.55109 10.5 3.36032 10.421 3.21967 10.2803C3.07902 10.1397 3 9.94891 3 9.75V2.25C3 2.05109 3.07902 1.86032 3.21967 1.71967C3.36032 1.57902 3.55109 1.5 3.75 1.5H6V3.375C6 3.67337 6.11853 3.95952 6.3295 4.1705C6.54048 4.38147 6.82663 4.5 7.125 4.5H9V4.51875C9.258 4.54275 9.508 4.58975 9.75 4.65975V4.0605C9.75 3.762 9.6315 3.47625 9.42075 3.26475L7.23525 1.07925C7.13073 0.9748 7.00666 0.891963 6.87013 0.835469C6.73359 0.778976 6.58726 0.749933 6.4395 0.75H3.75C3.35218 0.75 2.97064 0.908035 2.68934 1.18934C2.40804 1.47064 2.25 1.85218 2.25 2.25V9.75C2.25 10.1478 2.40804 10.5294 2.68934 10.8107C2.97064 11.092 3.35218 11.25 3.75 11.25H5.44575C5.25597 11.0182 5.09153 10.7668 4.95525 10.5H3.75ZM6.75 1.65525L8.84475 3.75H7.125C7.02554 3.75 6.93016 3.71049 6.85983 3.64017C6.78951 3.56984 6.75 3.47446 6.75 3.375V1.65525ZM8.625 5.25C7.72989 5.25 6.87145 5.60558 6.23851 6.23851C5.60558 6.87145 5.25 7.72989 5.25 8.625C5.25 9.52011 5.60558 10.3785 6.23851 11.0115C6.87145 11.6444 7.72989 12 8.625 12C9.52011 12 10.3785 11.6444 11.0115 11.0115C11.6444 10.3785 12 9.52011 12 8.625C12 7.72989 11.6444 6.87145 11.0115 6.23851C10.3785 5.60558 9.52011 5.25 8.625 5.25ZM10.5 9H9V10.5C9 10.5995 8.96049 10.6948 8.89017 10.7652C8.81984 10.8355 8.72446 10.875 8.625 10.875C8.52554 10.875 8.43016 10.8355 8.35983 10.7652C8.28951 10.6948 8.25 10.5995 8.25 10.5V9H6.75C6.65054 9 6.55516 8.96049 6.48483 8.89017C6.41451 8.81984 6.375 8.72446 6.375 8.625C6.375 8.52554 6.41451 8.43016 6.48483 8.35983C6.55516 8.28951 6.65054 8.25 6.75 8.25H8.25V6.75C8.25 6.65054 8.28951 6.55516 8.35983 6.48483C8.43016 6.41451 8.52554 6.375 8.625 6.375C8.72446 6.375 8.81984 6.41451 8.89017 6.48483C8.96049 6.55516 9 6.65054 9 6.75V8.25H10.5C10.5995 8.25 10.6948 8.28951 10.7652 8.35983C10.8355 8.43016 10.875 8.52554 10.875 8.625C10.875 8.72446 10.8355 8.81984 10.7652 8.89017C10.6948 8.96049 10.5995 9 10.5 9Z" fill="#4A75D1"/>
</svg>
