<svg width="17" height="17" viewBox="0 0 17 17" fill="none" xmlns="http://www.w3.org/2000/svg">
<path d="M3.54134 11.3333L2.83301 14.1667L5.66634 13.4583L13.8731 5.25157C14.1387 4.98591 14.2879 4.62564 14.2879 4.24999C14.2879 3.87434 14.1387 3.51407 13.8731 3.24841L13.7513 3.12657C13.4856 2.86099 13.1253 2.71179 12.7497 2.71179C12.374 2.71179 12.0138 2.86099 11.7481 3.12657L3.54134 11.3333Z" fill="#E2E9F8" stroke="#E2E9F8" stroke-linecap="round" stroke-linejoin="round"/>
<path d="M12.042 6.37402L5.40918 13.0068L3.51953 13.4795L3.99316 11.5879L10.624 4.95605L12.042 6.37402Z" fill="#E2E9F8" stroke="#E2E9F8"/>
<path d="M10.6247 4.25L12.7497 6.375L10.6247 4.25ZM9.20801 14.1667H14.8747H9.20801Z" fill="#E2E9F8"/>
<path d="M10.6247 4.25L12.7497 6.375M9.20801 14.1667H14.8747" stroke="#E2E9F8" stroke-linecap="round" stroke-linejoin="round"/>
</svg>
