<svg width="102" height="48" viewBox="0 0 102 48" fill="none" xmlns="http://www.w3.org/2000/svg">
<g filter="url(#filter0_d_142_4556)">
<rect x="6" y="6" width="90" height="36" rx="9" fill="#E8632B"/>
<path d="M52.088 29.16C51.3947 29.16 50.76 29.0747 50.184 28.904C49.6187 28.7333 49.112 28.4827 48.664 28.152C48.2267 27.8213 47.832 27.4213 47.48 26.952L48.984 25.24C49.5067 25.9653 50.024 26.4613 50.536 26.728C51.0587 26.984 51.624 27.112 52.232 27.112C52.5627 27.112 52.856 27.0693 53.112 26.984C53.3787 26.888 53.5867 26.7547 53.736 26.584C53.8853 26.4133 53.96 26.2107 53.96 25.976C53.96 25.8053 53.9227 25.6507 53.848 25.512C53.7733 25.3627 53.6667 25.2347 53.528 25.128C53.3893 25.0107 53.224 24.9093 53.032 24.824C52.84 24.728 52.6267 24.648 52.392 24.584C52.1573 24.5093 51.9013 24.4507 51.624 24.408C51.0267 24.2693 50.504 24.104 50.056 23.912C49.608 23.7093 49.2347 23.464 48.936 23.176C48.6373 22.8773 48.4133 22.5413 48.264 22.168C48.1253 21.7947 48.056 21.3733 48.056 20.904C48.056 20.424 48.1627 19.9813 48.376 19.576C48.5893 19.16 48.8827 18.8027 49.256 18.504C49.64 18.2053 50.0773 17.976 50.568 17.816C51.0693 17.656 51.5973 17.576 52.152 17.576C52.8347 17.576 53.432 17.656 53.944 17.816C54.456 17.9653 54.8987 18.184 55.272 18.472C55.656 18.76 55.976 19.112 56.232 19.528L54.712 21C54.488 20.7013 54.2427 20.4507 53.976 20.248C53.72 20.0453 53.4373 19.896 53.128 19.8C52.8293 19.6933 52.52 19.64 52.2 19.64C51.848 19.64 51.544 19.688 51.288 19.784C51.032 19.8693 50.8293 19.9973 50.68 20.168C50.5413 20.3387 50.472 20.5467 50.472 20.792C50.472 20.984 50.52 21.1547 50.616 21.304C50.712 21.4533 50.8507 21.5867 51.032 21.704C51.2133 21.8107 51.432 21.9067 51.688 21.992C51.944 22.0773 52.2267 22.152 52.536 22.216C53.1227 22.3333 53.6507 22.488 54.12 22.68C54.5893 22.872 54.9893 23.1067 55.32 23.384C55.6613 23.6507 55.9227 23.9707 56.104 24.344C56.2853 24.7067 56.376 25.1173 56.376 25.576C56.376 26.3333 56.1947 26.9787 55.832 27.512C55.4693 28.0453 54.968 28.456 54.328 28.744C53.688 29.0213 52.9413 29.16 52.088 29.16ZM59.0458 29V18.392H61.3177V29H59.0458ZM57.4618 22.568V20.536H63.0458V22.568H57.4618ZM68.3845 29.16C67.5205 29.16 66.7472 28.9733 66.0645 28.6C65.3925 28.216 64.8592 27.6933 64.4645 27.032C64.0805 26.3707 63.8885 25.6133 63.8885 24.76C63.8885 23.9067 64.0805 23.1547 64.4645 22.504C64.8592 21.8427 65.3925 21.32 66.0645 20.936C66.7472 20.552 67.5205 20.36 68.3845 20.36C69.2378 20.36 70.0005 20.552 70.6725 20.936C71.3552 21.32 71.8885 21.8427 72.2725 22.504C72.6565 23.1547 72.8485 23.9067 72.8485 24.76C72.8485 25.6133 72.6565 26.3707 72.2725 27.032C71.8885 27.6933 71.3552 28.216 70.6725 28.6C70.0005 28.9733 69.2378 29.16 68.3845 29.16ZM68.3845 27.176C68.8005 27.176 69.1738 27.0747 69.5045 26.872C69.8352 26.6587 70.0912 26.3707 70.2725 26.008C70.4645 25.6347 70.5605 25.2187 70.5605 24.76C70.5605 24.2907 70.4645 23.8747 70.2725 23.512C70.0912 23.1387 69.8352 22.8507 69.5045 22.648C69.1738 22.4347 68.8005 22.328 68.3845 22.328C67.9578 22.328 67.5792 22.4347 67.2485 22.648C66.9178 22.8613 66.6565 23.1493 66.4645 23.512C66.2725 23.8747 66.1818 24.2907 66.1925 24.76C66.1818 25.2187 66.2725 25.6347 66.4645 26.008C66.6565 26.3707 66.9178 26.6587 67.2485 26.872C67.5792 27.0747 67.9578 27.176 68.3845 27.176ZM74.5579 32.52V20.536H76.7499L76.8139 22.44L76.3979 22.296C76.4725 21.9547 76.6539 21.64 76.9419 21.352C77.2405 21.064 77.6085 20.8293 78.0459 20.648C78.4832 20.4667 78.9419 20.376 79.4219 20.376C80.1579 20.376 80.8085 20.568 81.3739 20.952C81.9499 21.3253 82.4032 21.8427 82.7339 22.504C83.0752 23.1547 83.2459 23.9067 83.2459 24.76C83.2459 25.6027 83.0805 26.3547 82.7499 27.016C82.4192 27.6773 81.9659 28.2 81.3899 28.584C80.8139 28.9573 80.1579 29.144 79.4219 29.144C78.9312 29.144 78.4619 29.0533 78.0139 28.872C77.5765 28.68 77.2032 28.4293 76.8939 28.12C76.5845 27.8107 76.3925 27.48 76.3179 27.128L76.8459 26.904V32.52H74.5579ZM78.9099 27.192C79.3259 27.192 79.6939 27.0907 80.0139 26.888C80.3339 26.6853 80.5845 26.4027 80.7659 26.04C80.9472 25.6667 81.0379 25.24 81.0379 24.76C81.0379 24.28 80.9472 23.8587 80.7659 23.496C80.5845 23.1333 80.3339 22.8507 80.0139 22.648C79.7045 22.4453 79.3365 22.344 78.9099 22.344C78.4832 22.344 78.1099 22.4453 77.7899 22.648C77.4699 22.84 77.2192 23.1227 77.0379 23.496C76.8565 23.8587 76.7659 24.28 76.7659 24.76C76.7659 25.24 76.8565 25.6667 77.0379 26.04C77.2192 26.4027 77.4699 26.6853 77.7899 26.888C78.1099 27.0907 78.4832 27.192 78.9099 27.192Z" fill="white"/>
<circle cx="22.5" cy="23.5" r="10.5" fill="white"/>
<path d="M22.4294 18.8C21.4843 18.8 20.7218 18.8 20.1224 18.8809C19.5001 18.9639 18.9761 19.1437 18.5599 19.5592C18.1437 19.9754 17.9653 20.4994 17.8817 21.1216C17.8008 21.721 17.8008 22.4836 17.8008 23.4287V23.5047C17.8008 24.4498 17.8008 25.2124 17.8817 25.8118C17.9646 26.434 18.1444 26.9581 18.5599 27.3743C18.9761 27.7905 19.5001 27.9688 20.1224 28.0532C20.7218 28.1334 21.4843 28.1334 22.4294 28.1334H22.5055C23.4506 28.1334 24.2131 28.1334 24.8125 28.0532C25.4348 27.9688 25.9588 27.7905 26.375 27.3743C26.7912 26.9581 26.9696 26.434 27.0539 25.8118C27.1341 25.2124 27.1341 24.4498 27.1341 23.5047V23.4287C27.1341 22.4836 27.1341 21.721 27.0539 21.1216C26.9696 20.4994 26.7912 19.9754 26.375 19.5592C25.9588 19.143 25.4348 18.9646 24.8125 18.8809C24.2131 18.8 23.4506 18.8 22.5055 18.8H22.4294Z" fill="#E8632B"/>
</g>
<defs>
<filter id="filter0_d_142_4556" x="0" y="0" width="102" height="48" filterUnits="userSpaceOnUse" color-interpolation-filters="sRGB">
<feFlood flood-opacity="0" result="BackgroundImageFix"/>
<feColorMatrix in="SourceAlpha" type="matrix" values="0 0 0 0 0 0 0 0 0 0 0 0 0 0 0 0 0 0 127 0" result="hardAlpha"/>
<feMorphology radius="1" operator="dilate" in="SourceAlpha" result="effect1_dropShadow_142_4556"/>
<feOffset/>
<feGaussianBlur stdDeviation="2.5"/>
<feComposite in2="hardAlpha" operator="out"/>
<feColorMatrix type="matrix" values="0 0 0 0 0.909804 0 0 0 0 0.388235 0 0 0 0 0.168627 0 0 0 0.25 0"/>
<feBlend mode="normal" in2="BackgroundImageFix" result="effect1_dropShadow_142_4556"/>
<feBlend mode="normal" in="SourceGraphic" in2="effect1_dropShadow_142_4556" result="shape"/>
</filter>
</defs>
</svg>
