<svg width="96" height="36" viewBox="0 0 96 36" fill="none" xmlns="http://www.w3.org/2000/svg">
<rect width="96" height="36" rx="9" fill="#7D7D7D"/>
<path d="M40.306 24.084C39.5127 24.084 38.8033 23.9207 38.178 23.594C37.562 23.258 37.0767 22.8007 36.722 22.222C36.3673 21.634 36.19 20.9713 36.19 20.234V14.186H38.304V20.108C38.304 20.5 38.3927 20.8547 38.57 21.172C38.7473 21.48 38.9853 21.7273 39.284 21.914C39.592 22.1007 39.9327 22.194 40.306 22.194C40.6887 22.194 41.034 22.1007 41.342 21.914C41.6593 21.7273 41.9067 21.48 42.084 21.172C42.2707 20.8547 42.364 20.5 42.364 20.108V14.186H44.408V20.234C44.408 20.9713 44.2307 21.634 43.876 22.222C43.5213 22.8007 43.0313 23.258 42.406 23.594C41.79 23.9207 41.09 24.084 40.306 24.084ZM46.5897 27.08V16.594H48.5077L48.5637 18.26L48.1997 18.134C48.265 17.8353 48.4237 17.56 48.6757 17.308C48.937 17.056 49.259 16.8507 49.6417 16.692C50.0244 16.5333 50.4257 16.454 50.8457 16.454C51.4897 16.454 52.059 16.622 52.5537 16.958C53.0577 17.2847 53.4544 17.7373 53.7437 18.316C54.0424 18.8853 54.1917 19.5433 54.1917 20.29C54.1917 21.0273 54.047 21.6853 53.7577 22.264C53.4684 22.8427 53.0717 23.3 52.5677 23.636C52.0637 23.9627 51.4897 24.126 50.8457 24.126C50.4164 24.126 50.0057 24.0467 49.6137 23.888C49.231 23.72 48.9044 23.5007 48.6337 23.23C48.363 22.9593 48.195 22.67 48.1297 22.362L48.5917 22.166V27.08H46.5897ZM50.3977 22.418C50.7617 22.418 51.0837 22.3293 51.3637 22.152C51.6437 21.9747 51.863 21.7273 52.0217 21.41C52.1804 21.0833 52.2597 20.71 52.2597 20.29C52.2597 19.87 52.1804 19.5013 52.0217 19.184C51.863 18.8667 51.6437 18.6193 51.3637 18.442C51.093 18.2647 50.771 18.176 50.3977 18.176C50.0244 18.176 49.6977 18.2647 49.4177 18.442C49.1377 18.61 48.9184 18.8573 48.7597 19.184C48.601 19.5013 48.5217 19.87 48.5217 20.29C48.5217 20.71 48.601 21.0833 48.7597 21.41C48.9184 21.7273 49.1377 21.9747 49.4177 22.152C49.6977 22.3293 50.0244 22.418 50.3977 22.418ZM55.7092 24V13.64H57.6972V24H55.7092ZM63.022 24.14C62.266 24.14 61.5893 23.9767 60.992 23.65C60.404 23.314 59.9373 22.8567 59.592 22.278C59.256 21.6993 59.088 21.0367 59.088 20.29C59.088 19.5433 59.256 18.8853 59.592 18.316C59.9373 17.7373 60.404 17.28 60.992 16.944C61.5893 16.608 62.266 16.44 63.022 16.44C63.7687 16.44 64.436 16.608 65.024 16.944C65.6213 17.28 66.088 17.7373 66.424 18.316C66.76 18.8853 66.928 19.5433 66.928 20.29C66.928 21.0367 66.76 21.6993 66.424 22.278C66.088 22.8567 65.6213 23.314 65.024 23.65C64.436 23.9767 63.7687 24.14 63.022 24.14ZM63.022 22.404C63.386 22.404 63.7127 22.3153 64.002 22.138C64.2913 21.9513 64.5153 21.6993 64.674 21.382C64.842 21.0553 64.926 20.6913 64.926 20.29C64.926 19.8793 64.842 19.5153 64.674 19.198C64.5153 18.8713 64.2913 18.6193 64.002 18.442C63.7127 18.2553 63.386 18.162 63.022 18.162C62.6487 18.162 62.3173 18.2553 62.028 18.442C61.7387 18.6287 61.51 18.8807 61.342 19.198C61.174 19.5153 61.0947 19.8793 61.104 20.29C61.0947 20.6913 61.174 21.0553 61.342 21.382C61.51 21.6993 61.7387 21.9513 62.028 22.138C62.3173 22.3153 62.6487 22.404 63.022 22.404ZM71.1957 24.14C70.5797 24.14 70.0244 23.972 69.5297 23.636C69.035 23.3 68.643 22.8427 68.3537 22.264C68.0644 21.6853 67.9197 21.0227 67.9197 20.276C67.9197 19.5293 68.0644 18.8713 68.3537 18.302C68.6524 17.7233 69.0537 17.2707 69.5577 16.944C70.0617 16.608 70.6357 16.44 71.2797 16.44C71.6437 16.44 71.975 16.496 72.2737 16.608C72.5817 16.7107 72.8477 16.8553 73.0717 17.042C73.305 17.2287 73.501 17.4433 73.6597 17.686C73.8184 17.9287 73.9304 18.19 73.9957 18.47L73.5757 18.4V16.594H75.5497V24H73.5477V22.222L73.9957 22.18C73.921 22.4413 73.7997 22.6887 73.6317 22.922C73.4637 23.1553 73.2537 23.3653 73.0017 23.552C72.759 23.7293 72.4837 23.874 72.1757 23.986C71.8677 24.0887 71.541 24.14 71.1957 24.14ZM71.7417 22.418C72.115 22.418 72.4417 22.3293 72.7217 22.152C73.0017 21.9747 73.2164 21.7273 73.3657 21.41C73.5244 21.0833 73.6037 20.7053 73.6037 20.276C73.6037 19.856 73.5244 19.4873 73.3657 19.17C73.2164 18.8527 73.0017 18.6053 72.7217 18.428C72.4417 18.2413 72.115 18.148 71.7417 18.148C71.3777 18.148 71.0557 18.2413 70.7757 18.428C70.505 18.6053 70.2904 18.8527 70.1317 19.17C69.973 19.4873 69.8937 19.856 69.8937 20.276C69.8937 20.7053 69.973 21.0833 70.1317 21.41C70.2904 21.7273 70.505 21.9747 70.7757 22.152C71.0557 22.3293 71.3777 22.418 71.7417 22.418ZM80.4408 24.14C79.7968 24.14 79.2182 23.9767 78.7048 23.65C78.1915 23.314 77.7855 22.8613 77.4868 22.292C77.1975 21.7133 77.0528 21.046 77.0528 20.29C77.0528 19.5527 77.1975 18.8947 77.4868 18.316C77.7855 17.7373 78.1868 17.28 78.6908 16.944C79.2042 16.608 79.7875 16.44 80.4408 16.44C80.7862 16.44 81.1175 16.496 81.4348 16.608C81.7615 16.7107 82.0508 16.8553 82.3028 17.042C82.5642 17.2287 82.7742 17.4387 82.9328 17.672C83.0915 17.896 83.1802 18.134 83.1988 18.386L82.6948 18.47V13.64H84.6828V24H82.8068L82.7228 22.292L83.1148 22.334C83.0962 22.5673 83.0122 22.7913 82.8628 23.006C82.7135 23.2207 82.5128 23.4167 82.2608 23.594C82.0182 23.762 81.7382 23.8973 81.4208 24C81.1128 24.0933 80.7862 24.14 80.4408 24.14ZM80.8888 22.488C81.2622 22.488 81.5888 22.3947 81.8688 22.208C82.1488 22.0213 82.3682 21.7647 82.5268 21.438C82.6855 21.1113 82.7648 20.7287 82.7648 20.29C82.7648 19.8607 82.6855 19.4827 82.5268 19.156C82.3682 18.82 82.1488 18.5633 81.8688 18.386C81.5888 18.1993 81.2622 18.106 80.8888 18.106C80.5155 18.106 80.1888 18.1993 79.9088 18.386C79.6382 18.5633 79.4235 18.82 79.2648 19.156C79.1155 19.4827 79.0408 19.8607 79.0408 20.29C79.0408 20.7287 79.1155 21.1113 79.2648 21.438C79.4235 21.7647 79.6382 22.0213 79.9088 22.208C80.1888 22.3947 80.5155 22.488 80.8888 22.488Z" fill="white"/>
<circle cx="17.5" cy="18.5" r="10.5" fill="white"/>
<path fill-rule="evenodd" clip-rule="evenodd" d="M14.4825 19.125H13.75C13.2527 19.125 12.7758 18.9274 12.4242 18.5758C12.0725 18.2242 11.875 17.7473 11.875 17.25C11.875 16.7527 12.0725 16.2758 12.4242 15.9241C12.7758 15.5725 13.2527 15.375 13.75 15.375C13.925 15.375 14.0125 15.375 14.0731 15.3625C14.2594 15.325 14.3481 15.2681 14.4581 15.1131C14.4944 15.0631 14.5456 14.9493 14.6475 14.7218C14.894 14.1715 15.2945 13.7042 15.8006 13.3763C16.3068 13.0485 16.897 12.874 17.5 12.874C18.103 12.874 18.6932 13.0485 19.1994 13.3763C19.7055 13.7042 20.106 14.1715 20.3525 14.7218C20.4544 14.9493 20.5056 15.0625 20.5419 15.1131C20.6525 15.2681 20.7406 15.3256 20.9269 15.3631C20.9881 15.375 21.0756 15.375 21.25 15.375C21.7473 15.375 22.2242 15.5725 22.5758 15.9241C22.9275 16.2758 23.125 16.7527 23.125 17.25C23.125 17.7473 22.9275 18.2242 22.5758 18.5758C22.2242 18.9274 21.7473 19.125 21.25 19.125H20.5175L18.3837 16.9912L17.5 16.1075L16.6163 16.9912L14.4825 19.125Z" fill="#4E4E4E"/>
<path d="M17.5005 18.5L17.0586 18.0581L17.5005 17.6162L17.9423 18.0581L17.5005 18.5ZM18.1255 24.125C18.1255 24.2907 18.0596 24.4497 17.9424 24.5669C17.8252 24.6841 17.6662 24.75 17.5005 24.75C17.3347 24.75 17.1757 24.6841 17.0585 24.5669C16.9413 24.4497 16.8755 24.2907 16.8755 24.125H18.1255ZM14.5586 20.5581L17.0586 18.0581L17.9423 18.9418L15.4423 21.4418L14.5586 20.5581ZM17.9423 18.0581L20.4423 20.5581L19.5586 21.4418L17.0586 18.9418L17.9423 18.0581ZM18.1255 18.5V24.125H16.8755V18.5H18.1255Z" fill="#4E4E4E"/>
</svg>
