<svg width="107" height="36" viewBox="0 0 107 36" fill="none" xmlns="http://www.w3.org/2000/svg">
<rect width="107" height="36" rx="9" fill="#0D9B72"/>
<path d="M38.306 24.084C37.5127 24.084 36.8033 23.9207 36.178 23.594C35.562 23.258 35.0767 22.8007 34.722 22.222C34.3673 21.634 34.19 20.9713 34.19 20.234V14.186H36.304V20.108C36.304 20.5 36.3927 20.8547 36.57 21.172C36.7473 21.48 36.9853 21.7273 37.284 21.914C37.592 22.1007 37.9327 22.194 38.306 22.194C38.6887 22.194 39.034 22.1007 39.342 21.914C39.6593 21.7273 39.9067 21.48 40.084 21.172C40.2707 20.8547 40.364 20.5 40.364 20.108V14.186H42.408V20.234C42.408 20.9713 42.2307 21.634 41.876 22.222C41.5213 22.8007 41.0313 23.258 40.406 23.594C39.79 23.9207 39.09 24.084 38.306 24.084ZM44.5897 27.08V16.594H46.5077L46.5637 18.26L46.1997 18.134C46.265 17.8353 46.4237 17.56 46.6757 17.308C46.937 17.056 47.259 16.8507 47.6417 16.692C48.0244 16.5333 48.4257 16.454 48.8457 16.454C49.4897 16.454 50.059 16.622 50.5537 16.958C51.0577 17.2847 51.4544 17.7373 51.7437 18.316C52.0424 18.8853 52.1917 19.5433 52.1917 20.29C52.1917 21.0273 52.047 21.6853 51.7577 22.264C51.4684 22.8427 51.0717 23.3 50.5677 23.636C50.0637 23.9627 49.4897 24.126 48.8457 24.126C48.4164 24.126 48.0057 24.0467 47.6137 23.888C47.231 23.72 46.9044 23.5007 46.6337 23.23C46.363 22.9593 46.195 22.67 46.1297 22.362L46.5917 22.166V27.08H44.5897ZM48.3977 22.418C48.7617 22.418 49.0837 22.3293 49.3637 22.152C49.6437 21.9747 49.863 21.7273 50.0217 21.41C50.1804 21.0833 50.2597 20.71 50.2597 20.29C50.2597 19.87 50.1804 19.5013 50.0217 19.184C49.863 18.8667 49.6437 18.6193 49.3637 18.442C49.093 18.2647 48.771 18.176 48.3977 18.176C48.0244 18.176 47.6977 18.2647 47.4177 18.442C47.1377 18.61 46.9184 18.8573 46.7597 19.184C46.601 19.5013 46.5217 19.87 46.5217 20.29C46.5217 20.71 46.601 21.0833 46.7597 21.41C46.9184 21.7273 47.1377 21.9747 47.4177 22.152C47.6977 22.3293 48.0244 22.418 48.3977 22.418ZM53.7092 24V13.64H55.6972V24H53.7092ZM61.022 24.14C60.266 24.14 59.5893 23.9767 58.992 23.65C58.404 23.314 57.9373 22.8567 57.592 22.278C57.256 21.6993 57.088 21.0367 57.088 20.29C57.088 19.5433 57.256 18.8853 57.592 18.316C57.9373 17.7373 58.404 17.28 58.992 16.944C59.5893 16.608 60.266 16.44 61.022 16.44C61.7687 16.44 62.436 16.608 63.024 16.944C63.6213 17.28 64.088 17.7373 64.424 18.316C64.76 18.8853 64.928 19.5433 64.928 20.29C64.928 21.0367 64.76 21.6993 64.424 22.278C64.088 22.8567 63.6213 23.314 63.024 23.65C62.436 23.9767 61.7687 24.14 61.022 24.14ZM61.022 22.404C61.386 22.404 61.7127 22.3153 62.002 22.138C62.2913 21.9513 62.5153 21.6993 62.674 21.382C62.842 21.0553 62.926 20.6913 62.926 20.29C62.926 19.8793 62.842 19.5153 62.674 19.198C62.5153 18.8713 62.2913 18.6193 62.002 18.442C61.7127 18.2553 61.386 18.162 61.022 18.162C60.6487 18.162 60.3173 18.2553 60.028 18.442C59.7387 18.6287 59.51 18.8807 59.342 19.198C59.174 19.5153 59.0947 19.8793 59.104 20.29C59.0947 20.6913 59.174 21.0553 59.342 21.382C59.51 21.6993 59.7387 21.9513 60.028 22.138C60.3173 22.3153 60.6487 22.404 61.022 22.404ZM69.1957 24.14C68.5797 24.14 68.0244 23.972 67.5297 23.636C67.035 23.3 66.643 22.8427 66.3537 22.264C66.0644 21.6853 65.9197 21.0227 65.9197 20.276C65.9197 19.5293 66.0644 18.8713 66.3537 18.302C66.6524 17.7233 67.0537 17.2707 67.5577 16.944C68.0617 16.608 68.6357 16.44 69.2797 16.44C69.6437 16.44 69.975 16.496 70.2737 16.608C70.5817 16.7107 70.8477 16.8553 71.0717 17.042C71.305 17.2287 71.501 17.4433 71.6597 17.686C71.8184 17.9287 71.9304 18.19 71.9957 18.47L71.5757 18.4V16.594H73.5497V24H71.5477V22.222L71.9957 22.18C71.921 22.4413 71.7997 22.6887 71.6317 22.922C71.4637 23.1553 71.2537 23.3653 71.0017 23.552C70.759 23.7293 70.4837 23.874 70.1757 23.986C69.8677 24.0887 69.541 24.14 69.1957 24.14ZM69.7417 22.418C70.115 22.418 70.4417 22.3293 70.7217 22.152C71.0017 21.9747 71.2164 21.7273 71.3657 21.41C71.5244 21.0833 71.6037 20.7053 71.6037 20.276C71.6037 19.856 71.5244 19.4873 71.3657 19.17C71.2164 18.8527 71.0017 18.6053 70.7217 18.428C70.4417 18.2413 70.115 18.148 69.7417 18.148C69.3777 18.148 69.0557 18.2413 68.7757 18.428C68.505 18.6053 68.2904 18.8527 68.1317 19.17C67.973 19.4873 67.8937 19.856 67.8937 20.276C67.8937 20.7053 67.973 21.0833 68.1317 21.41C68.2904 21.7273 68.505 21.9747 68.7757 22.152C69.0557 22.3293 69.3777 22.418 69.7417 22.418ZM78.4408 24.14C77.7968 24.14 77.2182 23.9767 76.7048 23.65C76.1915 23.314 75.7855 22.8613 75.4868 22.292C75.1975 21.7133 75.0528 21.046 75.0528 20.29C75.0528 19.5527 75.1975 18.8947 75.4868 18.316C75.7855 17.7373 76.1868 17.28 76.6908 16.944C77.2042 16.608 77.7875 16.44 78.4408 16.44C78.7862 16.44 79.1175 16.496 79.4348 16.608C79.7615 16.7107 80.0508 16.8553 80.3028 17.042C80.5642 17.2287 80.7742 17.4387 80.9328 17.672C81.0915 17.896 81.1802 18.134 81.1988 18.386L80.6948 18.47V13.64H82.6828V24H80.8068L80.7228 22.292L81.1148 22.334C81.0962 22.5673 81.0122 22.7913 80.8628 23.006C80.7135 23.2207 80.5128 23.4167 80.2608 23.594C80.0182 23.762 79.7382 23.8973 79.4208 24C79.1128 24.0933 78.7862 24.14 78.4408 24.14ZM78.8888 22.488C79.2622 22.488 79.5888 22.3947 79.8688 22.208C80.1488 22.0213 80.3682 21.7647 80.5268 21.438C80.6855 21.1113 80.7648 20.7287 80.7648 20.29C80.7648 19.8607 80.6855 19.4827 80.5268 19.156C80.3682 18.82 80.1488 18.5633 79.8688 18.386C79.5888 18.1993 79.2622 18.106 78.8888 18.106C78.5155 18.106 78.1888 18.1993 77.9088 18.386C77.6382 18.5633 77.4235 18.82 77.2648 19.156C77.1155 19.4827 77.0408 19.8607 77.0408 20.29C77.0408 20.7287 77.1155 21.1113 77.2648 21.438C77.4235 21.7647 77.6382 22.0213 77.9088 22.208C78.1888 22.3947 78.5155 22.488 78.8888 22.488ZM88.135 24.14C87.3323 24.14 86.6323 23.9767 86.035 23.65C85.4376 23.3233 84.971 22.8753 84.635 22.306C84.299 21.7367 84.131 21.0833 84.131 20.346C84.131 19.7767 84.2243 19.254 84.411 18.778C84.5976 18.302 84.859 17.8913 85.195 17.546C85.531 17.1913 85.9276 16.9207 86.385 16.734C86.8516 16.538 87.3556 16.44 87.897 16.44C88.401 16.44 88.8676 16.5333 89.297 16.72C89.7263 16.8973 90.095 17.154 90.403 17.49C90.7203 17.8167 90.963 18.204 91.131 18.652C91.299 19.1 91.3736 19.59 91.355 20.122L91.341 20.738H85.391L85.069 19.52H89.703L89.479 19.772V19.464C89.4603 19.212 89.3763 18.9833 89.227 18.778C89.087 18.5727 88.905 18.414 88.681 18.302C88.457 18.19 88.205 18.134 87.925 18.134C87.5143 18.134 87.1643 18.2133 86.875 18.372C86.595 18.5307 86.3803 18.764 86.231 19.072C86.0816 19.38 86.007 19.7533 86.007 20.192C86.007 20.64 86.1003 21.0273 86.287 21.354C86.483 21.6807 86.7536 21.9373 87.099 22.124C87.4536 22.3013 87.869 22.39 88.345 22.39C88.6716 22.39 88.9703 22.3387 89.241 22.236C89.5116 22.1333 89.801 21.956 90.109 21.704L91.061 23.034C90.7903 23.2767 90.4916 23.482 90.165 23.65C89.8383 23.8087 89.5023 23.93 89.157 24.014C88.8116 24.098 88.471 24.14 88.135 24.14ZM95.7221 24.14C95.0781 24.14 94.4994 23.9767 93.9861 23.65C93.4727 23.314 93.0667 22.8613 92.7681 22.292C92.4787 21.7133 92.3341 21.046 92.3341 20.29C92.3341 19.5527 92.4787 18.8947 92.7681 18.316C93.0667 17.7373 93.4681 17.28 93.9721 16.944C94.4854 16.608 95.0687 16.44 95.7221 16.44C96.0674 16.44 96.3987 16.496 96.7161 16.608C97.0427 16.7107 97.3321 16.8553 97.5841 17.042C97.8454 17.2287 98.0554 17.4387 98.2141 17.672C98.3727 17.896 98.4614 18.134 98.4801 18.386L97.9761 18.47V13.64H99.9641V24H98.0881L98.0041 22.292L98.3961 22.334C98.3774 22.5673 98.2934 22.7913 98.1441 23.006C97.9947 23.2207 97.7941 23.4167 97.5421 23.594C97.2994 23.762 97.0194 23.8973 96.7021 24C96.3941 24.0933 96.0674 24.14 95.7221 24.14ZM96.1701 22.488C96.5434 22.488 96.8701 22.3947 97.1501 22.208C97.4301 22.0213 97.6494 21.7647 97.8081 21.438C97.9667 21.1113 98.0461 20.7287 98.0461 20.29C98.0461 19.8607 97.9667 19.4827 97.8081 19.156C97.6494 18.82 97.4301 18.5633 97.1501 18.386C96.8701 18.1993 96.5434 18.106 96.1701 18.106C95.7967 18.106 95.4701 18.1993 95.1901 18.386C94.9194 18.5633 94.7047 18.82 94.5461 19.156C94.3967 19.4827 94.3221 19.8607 94.3221 20.29C94.3221 20.7287 94.3967 21.1113 94.5461 21.438C94.7047 21.7647 94.9194 22.0213 95.1901 22.208C95.4701 22.3947 95.7967 22.488 96.1701 22.488Z" fill="white"/>
<circle cx="17.5" cy="18.5" r="10.5" fill="white"/>
<path d="M16.4688 21.625L20 18.0938L19.0938 17.1875L16.4563 19.8313L15.1437 18.5187L14.25 19.4062M14.0625 23.5C13.1125 23.5 12.3021 23.1729 11.6312 22.5188C10.9604 21.8604 10.625 21.0583 10.625 20.1125C10.625 19.3 10.8688 18.575 11.3563 17.9375C11.8479 17.3 12.4896 16.8937 13.2812 16.7187C13.5438 15.7604 14.0646 14.9854 14.8438 14.3937C15.6271 13.7979 16.5125 13.5 17.5 13.5C18.7208 13.5 19.7542 13.925 20.6 14.775C21.45 15.6208 21.875 16.6542 21.875 17.875C22.5958 17.9583 23.1917 18.2708 23.6625 18.8125C24.1375 19.3458 24.375 19.9708 24.375 20.6875C24.375 21.4708 24.1021 22.1354 23.5563 22.6813C23.0104 23.2271 22.3458 23.5 21.5625 23.5H14.0625Z" fill="#0D9B72"/>
</svg>
