<svg width="36" height="35" viewBox="0 0 36 35" fill="none" xmlns="http://www.w3.org/2000/svg">
<g filter="url(#filter0_d_474_4415)">
<rect x="4" y="3" width="28" height="27" rx="7" fill="white"/>
</g>
<path d="M12.0601 19.9098H15.0201V22.8161C15.0201 23.1441 15.2144 23.3449 15.5293 23.3449C15.8373 23.3449 16.0313 23.1441 16.0313 22.8158V19.9101H19.9287V22.8163C19.9287 23.1443 20.123 23.3452 20.4376 23.3452C20.7456 23.3452 20.9398 23.1443 20.9398 22.8161V19.9101H23.9464C24.2747 19.9101 24.4756 19.7158 24.4756 19.4009C24.4756 19.0861 24.2747 18.8986 23.9464 18.8986H20.9401V15.1286H23.9467C24.275 15.1286 24.4758 14.9343 24.4758 14.6263C24.4758 14.3118 24.275 14.1178 23.9467 14.1178H20.9401V11.1906C20.9401 10.8623 20.7458 10.6549 20.4378 10.6549C20.1233 10.6549 19.929 10.8623 19.929 11.1906V14.1172H16.0316V11.1909C16.0316 10.8626 15.8373 10.6552 15.5293 10.6552C15.2144 10.6552 15.0201 10.8626 15.0201 11.1909V14.1172H12.0601C11.7256 14.1172 11.5247 14.3115 11.5247 14.6261C11.5247 14.9343 11.7256 15.1283 12.0604 15.1283H15.0204V18.8986H12.0601C11.7253 18.8986 11.5244 19.0861 11.5244 19.4006C11.5244 19.7155 11.7253 19.9098 12.0601 19.9098ZM16.0316 18.8983V15.1286H19.9287V18.8989L16.0316 18.8983Z" fill="#505050"/>
<defs>
<filter id="filter0_d_474_4415" x="0" y="0" width="36" height="35" filterUnits="userSpaceOnUse" color-interpolation-filters="sRGB">
<feFlood flood-opacity="0" result="BackgroundImageFix"/>
<feColorMatrix in="SourceAlpha" type="matrix" values="0 0 0 0 0 0 0 0 0 0 0 0 0 0 0 0 0 0 127 0" result="hardAlpha"/>
<feOffset dy="1"/>
<feGaussianBlur stdDeviation="2"/>
<feComposite in2="hardAlpha" operator="out"/>
<feColorMatrix type="matrix" values="0 0 0 0 0 0 0 0 0 0 0 0 0 0 0 0 0 0 0.1 0"/>
<feBlend mode="normal" in2="BackgroundImageFix" result="effect1_dropShadow_474_4415"/>
<feBlend mode="normal" in="SourceGraphic" in2="effect1_dropShadow_474_4415" result="shape"/>
</filter>
</defs>
</svg>
