<svg width="37" height="34" viewBox="0 0 37 34" fill="none" xmlns="http://www.w3.org/2000/svg">
<rect x="0.5" y="0.5" width="36" height="33" rx="7.5" fill="#F7FAFC"/>
<rect x="0.5" y="0.5" width="36" height="33" rx="7.5" stroke="#D5D5D5"/>
<path d="M10.625 17C10.625 18.0342 10.8287 19.0582 11.2244 20.0136C11.6202 20.9691 12.2003 21.8372 12.9315 22.5685C13.6628 23.2997 14.5309 23.8798 15.4864 24.2756C16.4418 24.6713 17.4658 24.875 18.5 24.875C19.5342 24.875 20.5582 24.6713 21.5136 24.2756C22.4691 23.8798 23.3372 23.2997 24.0685 22.5685C24.7997 21.8372 25.3798 20.9691 25.7756 20.0136C26.1713 19.0582 26.375 18.0342 26.375 17C26.375 14.9114 25.5453 12.9084 24.0685 11.4315C22.5916 9.95469 20.5886 9.125 18.5 9.125C16.4114 9.125 14.4084 9.95469 12.9315 11.4315C11.4547 12.9084 10.625 14.9114 10.625 17Z" stroke="#FB913B" stroke-width="2" stroke-linecap="round" stroke-linejoin="round"/>
<path d="M18.5 12.625V17L21.125 19.625" stroke="#FB913B" stroke-width="2" stroke-linecap="round" stroke-linejoin="round"/>
</svg>
