<svg width="37" height="34" viewBox="0 0 37 34" fill="none" xmlns="http://www.w3.org/2000/svg">
<rect x="0.5" y="0.5" width="36" height="33" rx="7.5" fill="#F7FAFC"/>
<rect x="0.5" y="0.5" width="36" height="33" rx="7.5" stroke="#D5D5D5"/>
<path d="M25.0625 9.78125H11.9375C11.4154 9.78125 10.9146 9.98867 10.5454 10.3579C10.1762 10.7271 9.96875 11.2279 9.96875 11.75V20.9375C9.96875 21.4596 10.1762 21.9604 10.5454 22.3296C10.9146 22.6988 11.4154 22.9062 11.9375 22.9062H25.0625C25.5846 22.9062 26.0854 22.6988 26.4546 22.3296C26.8238 21.9604 27.0312 21.4596 27.0312 20.9375V11.75C27.0312 11.2279 26.8238 10.7271 26.4546 10.3579C26.0854 9.98867 25.5846 9.78125 25.0625 9.78125ZM25.7188 20.9375C25.7188 21.1115 25.6496 21.2785 25.5265 21.4015C25.4035 21.5246 25.2365 21.5938 25.0625 21.5938H11.9375C11.7635 21.5938 11.5965 21.5246 11.4735 21.4015C11.3504 21.2785 11.2812 21.1115 11.2812 20.9375V11.75C11.2812 11.576 11.3504 11.409 11.4735 11.286C11.5965 11.1629 11.7635 11.0938 11.9375 11.0938H25.0625C25.2365 11.0938 25.4035 11.1629 25.5265 11.286C25.6496 11.409 25.7188 11.576 25.7188 11.75V20.9375ZM21.7812 24.875C21.7812 25.049 21.7121 25.216 21.589 25.339C21.466 25.4621 21.299 25.5312 21.125 25.5312H15.875C15.701 25.5312 15.534 25.4621 15.411 25.339C15.2879 25.216 15.2188 25.049 15.2188 24.875C15.2188 24.701 15.2879 24.534 15.411 24.411C15.534 24.2879 15.701 24.2188 15.875 24.2188H21.125C21.299 24.2188 21.466 24.2879 21.589 24.411C21.7121 24.534 21.7812 24.701 21.7812 24.875Z" fill="#0DA5E8"/>
<path d="M14.8135 16.2288L17.0739 18.5354C17.1809 18.6445 17.2343 18.7834 17.2343 18.952C17.2343 19.1207 17.1809 19.2596 17.0739 19.3687C16.967 19.4778 16.8309 19.5324 16.6656 19.5324C16.5003 19.5324 16.3642 19.4778 16.2573 19.3687L13.5739 16.6306C13.5156 16.5711 13.4742 16.5066 13.4497 16.4372C13.4252 16.3677 13.4133 16.2933 13.4141 16.2139C13.4149 16.1346 13.4271 16.0602 13.4508 15.9907C13.4746 15.9213 13.5158 15.8568 13.5745 15.7973L16.2578 13.0592C16.3745 12.9401 16.5132 12.8806 16.6738 12.8806C16.8344 12.8806 16.9728 12.9401 17.0891 13.0592C17.2054 13.1782 17.2637 13.3197 17.2641 13.4836C17.2645 13.6475 17.2062 13.7888 17.0891 13.9074L14.8135 16.2288ZM23.1843 16.1991L20.9239 13.8925C20.817 13.7834 20.7635 13.6445 20.7635 13.4759C20.7635 13.3072 20.817 13.1683 20.9239 13.0592C21.0309 12.9501 21.167 12.8955 21.3323 12.8955C21.4975 12.8955 21.6337 12.9501 21.7406 13.0592L24.4239 15.7973C24.4823 15.8568 24.5237 15.9213 24.5482 15.9907C24.5727 16.0602 24.5847 16.1346 24.5843 16.2139C24.584 16.2933 24.5719 16.3677 24.5482 16.4372C24.5245 16.5066 24.483 16.5711 24.4239 16.6306L21.7406 19.3687C21.6239 19.4878 21.4878 19.5449 21.3323 19.5401C21.1767 19.5354 21.0406 19.4733 20.9239 19.3538C20.8073 19.2344 20.7489 19.0931 20.7489 18.93C20.7489 18.7669 20.8073 18.6255 20.9239 18.5056L23.1843 16.1991Z" fill="#0DA5E8"/>
</svg>
