<svg width="37" height="34" viewBox="0 0 37 34" fill="none" xmlns="http://www.w3.org/2000/svg">
<rect x="0.5" y="0.5" width="36" height="33" rx="7.5" fill="#F7FAFC"/>
<rect x="0.5" y="0.5" width="36" height="33" rx="7.5" stroke="#D5D5D5"/>
<g clip-path="url(#clip0_496_3544)">
<mask id="mask0_496_3544" style="mask-type:luminance" maskUnits="userSpaceOnUse" x="10" y="9" width="17" height="16">
<path d="M10.5 9H26.5V25H10.5V9Z" fill="white"/>
</mask>
<g mask="url(#mask0_496_3544)">
<path fill-rule="evenodd" clip-rule="evenodd" d="M14.812 13.29C14.8224 13.1656 14.8631 13.0456 14.9306 12.9406C14.998 12.8355 15.0902 12.7486 15.199 12.6874C15.3079 12.6262 15.4301 12.5927 15.5549 12.5896C15.6797 12.5866 15.8034 12.6142 15.915 12.67C16.0036 12.7199 16.1013 12.7513 16.2023 12.7623C16.3033 12.7732 16.4055 12.7635 16.5027 12.7338C16.5999 12.704 16.69 12.6549 16.7676 12.5892C16.8451 12.5236 16.9086 12.4429 16.954 12.352C16.9995 12.2611 17.026 12.162 17.0319 12.0605C17.0379 11.9591 17.0231 11.8575 16.9886 11.7619C16.9541 11.6664 16.9006 11.5788 16.8312 11.5045C16.7618 11.4303 16.6781 11.3709 16.585 11.33C16.2542 11.1647 15.8879 11.083 15.5182 11.092C15.1485 11.1009 14.7866 11.2003 14.4642 11.3815C14.1418 11.5626 13.8686 11.82 13.6687 12.1311C13.4687 12.4422 13.348 12.7975 13.317 13.166L13.206 14.5H12.25C12.0511 14.5 11.8604 14.5791 11.7197 14.7197C11.5791 14.8604 11.5 15.0511 11.5 15.25C11.5 15.449 11.5791 15.6397 11.7197 15.7804C11.8604 15.921 12.0511 16 12.25 16H13.08L12.688 20.71C12.6777 20.8345 12.637 20.9545 12.5695 21.0595C12.5021 21.1646 12.4099 21.2515 12.301 21.3127C12.1922 21.3739 12.07 21.4074 11.9452 21.4105C11.8204 21.4135 11.6967 21.3859 11.585 21.33C11.4088 21.2526 11.2096 21.2458 11.0285 21.3112C10.8475 21.3766 10.6985 21.509 10.6124 21.6812C10.5263 21.8534 10.5097 22.0521 10.566 22.2361C10.6224 22.4202 10.7473 22.5755 10.915 22.67C11.2459 22.8353 11.6121 22.9171 11.9819 22.9081C12.3516 22.8991 12.7135 22.7997 13.0359 22.6186C13.3583 22.4375 13.6314 22.1801 13.8314 21.869C14.0314 21.5579 14.1521 21.2026 14.183 20.834L14.586 16H15.75C15.8485 16 15.9461 15.9806 16.0371 15.943C16.128 15.9053 16.2107 15.85 16.2804 15.7804C16.35 15.7107 16.4053 15.628 16.4429 15.5371C16.4806 15.4461 16.5 15.3485 16.5 15.25C16.5 15.1516 16.4806 15.054 16.4429 14.963C16.4053 14.872 16.35 14.7894 16.2804 14.7197C16.2107 14.6501 16.128 14.5948 16.0371 14.5571C15.9461 14.5194 15.8485 14.5 15.75 14.5H14.71L14.812 13.29ZM20.826 15.52C20.6971 15.3727 20.5157 15.2816 20.3205 15.2662C20.1253 15.2508 19.9318 15.3124 19.7814 15.4377C19.631 15.563 19.5356 15.7422 19.5155 15.937C19.4954 16.1318 19.5523 16.3267 19.674 16.48L20.524 17.5L19.674 18.52C19.5523 18.6734 19.4954 18.8683 19.5155 19.0631C19.5356 19.2578 19.631 19.437 19.7814 19.5624C19.9318 19.6877 20.1253 19.7493 20.3205 19.7339C20.5157 19.7185 20.6971 19.6274 20.826 19.48L21.5 18.672L22.174 19.48C22.303 19.6274 22.4844 19.7185 22.6796 19.7339C22.8748 19.7493 23.0682 19.6877 23.2187 19.5624C23.3691 19.437 23.4645 19.2578 23.4846 19.0631C23.5046 18.8683 23.4477 18.6734 23.326 18.52L22.476 17.5L23.326 16.48C23.4477 16.3267 23.5046 16.1318 23.4846 15.937C23.4645 15.7422 23.3691 15.563 23.2187 15.4377C23.0682 15.3124 22.8748 15.2508 22.6796 15.2662C22.4844 15.2816 22.303 15.3727 22.174 15.52L21.5 16.328L20.826 15.52ZM18.52 13.55C18.7055 13.6216 18.855 13.7639 18.9356 13.9456C19.0162 14.1272 19.0214 14.3335 18.95 14.519L18.805 14.897C18.1608 16.5722 18.1608 18.4269 18.805 20.102L18.95 20.48C19.0215 20.6657 19.0163 20.8721 18.9356 21.054C18.8548 21.2358 18.7052 21.3781 18.5195 21.4495C18.3339 21.521 18.1274 21.5158 17.9456 21.4351C17.7638 21.3543 17.6215 21.2047 17.55 21.019L17.405 20.641C16.6274 18.6192 16.6274 16.3809 17.405 14.359L17.55 13.981C17.5854 13.889 17.6385 13.8048 17.7064 13.7334C17.7743 13.6619 17.8556 13.6045 17.9457 13.5644C18.0358 13.5244 18.1329 13.5025 18.2314 13.5001C18.33 13.4976 18.4281 13.5146 18.52 13.55ZM24.481 13.55C24.573 13.5145 24.671 13.4975 24.7695 13.4999C24.868 13.5023 24.9651 13.5241 25.0551 13.564C25.1452 13.604 25.2266 13.6613 25.2945 13.7327C25.3624 13.804 25.4156 13.8881 25.451 13.98L25.596 14.359C26.3736 16.3809 26.3736 18.6192 25.596 20.641L25.45 21.019C25.4158 21.1125 25.3634 21.1981 25.2957 21.2711C25.228 21.344 25.1466 21.4028 25.056 21.4439C24.9654 21.485 24.8676 21.5078 24.7681 21.5107C24.6687 21.5137 24.5696 21.4968 24.4768 21.4611C24.3839 21.4254 24.2991 21.3716 24.2272 21.3029C24.1553 21.2341 24.0979 21.1517 24.0582 21.0605C24.0184 20.9692 23.9973 20.871 23.9959 20.7716C23.9945 20.6721 24.0129 20.5733 24.05 20.481L24.196 20.102C24.8403 18.4269 24.8403 16.5722 24.196 14.897L24.05 14.519C24.0146 14.4271 23.9976 14.329 24.0001 14.2304C24.0025 14.1319 24.0244 14.0348 24.0644 13.9447C24.1045 13.8546 24.1619 13.7733 24.2333 13.7054C24.3048 13.6375 24.389 13.5844 24.481 13.549" fill="#EE4444"/>
</g>
</g>
<defs>
<clipPath id="clip0_496_3544">
<rect width="16" height="16" fill="white" transform="translate(10.5 9)"/>
</clipPath>
</defs>
</svg>
