<svg width="20" height="20" viewBox="0 0 20 20" fill="none" xmlns="http://www.w3.org/2000/svg">
<path d="M17.5 14.1667H2.5M15 11.6667L17.5 14.1667L15 16.6667M5 3.33337L2.5 5.83337L5 8.33337M2.5 5.83337H17.5" stroke="#8A5BF7" stroke-width="1.5" stroke-linecap="round" stroke-linejoin="round"/>
<path d="M6.1935 11.6666V11.1666H6.7585V8.66663H6.1935V8.16663H7.8635V8.66663H7.2985V11.1666H7.8635V11.6666H6.1935ZM8.68619 11.6666L8.52119 11.2566L9.59119 10.0516C9.64786 9.99163 9.70619 9.92329 9.76619 9.84663C9.82952 9.76663 9.88952 9.68496 9.94619 9.60163C10.0029 9.51829 10.0479 9.43663 10.0812 9.35663C10.1179 9.27329 10.1362 9.19496 10.1362 9.12163C10.1362 9.01496 10.1145 8.92496 10.0712 8.85163C10.0312 8.77496 9.97119 8.71663 9.89119 8.67663C9.81452 8.63663 9.72119 8.61663 9.61119 8.61663C9.51452 8.61663 9.41952 8.64496 9.32619 8.70163C9.23286 8.75829 9.14786 8.83829 9.07119 8.94163C8.99452 9.04496 8.93452 9.16496 8.89119 9.30163L8.47619 9.04163C8.53286 8.84829 8.61786 8.68329 8.73119 8.54663C8.84786 8.40663 8.98619 8.29996 9.14619 8.22663C9.30952 8.15329 9.48619 8.11663 9.67619 8.11663C9.87286 8.11663 10.0479 8.15829 10.2012 8.24163C10.3545 8.32163 10.4745 8.43496 10.5612 8.58163C10.6479 8.72496 10.6912 8.89163 10.6912 9.08163C10.6912 9.15829 10.6829 9.23663 10.6662 9.31663C10.6495 9.39663 10.6229 9.47996 10.5862 9.56663C10.5495 9.64996 10.5029 9.73829 10.4462 9.83163C10.3895 9.92163 10.3212 10.0166 10.2412 10.1166C10.1645 10.2166 10.0762 10.3216 9.97619 10.4316L9.18119 11.2966L9.08119 11.1466H10.8012V11.6666H8.68619ZM12.8704 11.7166C12.6271 11.7166 12.4038 11.6733 12.2004 11.5866C11.9971 11.5 11.8204 11.3766 11.6704 11.2166C11.5204 11.0533 11.4038 10.8616 11.3204 10.6416C11.2404 10.4216 11.2004 10.18 11.2004 9.91663C11.2004 9.66663 11.2438 9.43496 11.3304 9.22163C11.4204 9.00496 11.5438 8.81496 11.7004 8.65163C11.8571 8.48829 12.0388 8.36163 12.2454 8.27163C12.4521 8.18163 12.6754 8.13663 12.9154 8.13663C13.0854 8.13663 13.2504 8.16329 13.4104 8.21663C13.5738 8.26663 13.7204 8.33829 13.8504 8.43163C13.9838 8.52163 14.0921 8.62496 14.1754 8.74163L13.8154 9.11663C13.7188 9.01996 13.6204 8.93996 13.5204 8.87663C13.4238 8.80996 13.3238 8.75996 13.2204 8.72663C13.1204 8.69329 13.0188 8.67663 12.9154 8.67663C12.7521 8.67663 12.5988 8.70829 12.4554 8.77163C12.3154 8.83163 12.1921 8.91663 12.0854 9.02663C11.9821 9.13663 11.9004 9.26829 11.8404 9.42163C11.7804 9.57163 11.7504 9.73663 11.7504 9.91663C11.7504 10.1066 11.7788 10.28 11.8354 10.4366C11.8954 10.59 11.9788 10.7216 12.0854 10.8316C12.1921 10.9416 12.3188 11.0266 12.4654 11.0866C12.6154 11.1433 12.7804 11.1716 12.9604 11.1716C13.0704 11.1716 13.1788 11.1566 13.2854 11.1266C13.3921 11.0966 13.4921 11.0533 13.5854 10.9966C13.6788 10.94 13.7638 10.8733 13.8404 10.7966L14.1104 11.2366C14.0338 11.3266 13.9288 11.4083 13.7954 11.4816C13.6654 11.555 13.5188 11.6133 13.3554 11.6566C13.1954 11.6966 13.0338 11.7166 12.8704 11.7166Z" fill="#8A5BF7"/>
</svg>
