<svg width="37" height="34" viewBox="0 0 37 34" fill="none" xmlns="http://www.w3.org/2000/svg">
<rect x="0.5" y="0.5" width="36" height="33" rx="7.5" fill="#F7FAFC"/>
<rect x="0.5" y="0.5" width="36" height="33" rx="7.5" stroke="#D5D5D5"/>
<path d="M17 9.5C17 8.70435 17.3161 7.94129 17.8787 7.37868C18.4413 6.81607 19.2044 6.5 20 6.5C20.7956 6.5 21.5587 6.81607 22.1213 7.37868C22.6839 7.94129 23 8.70435 23 9.5H25.25C25.8467 9.5 26.419 9.73705 26.841 10.159C27.2629 10.581 27.5 11.1533 27.5 11.75V15.5H26C25.6022 15.5 25.2206 15.658 24.9393 15.9393C24.658 16.2206 24.5 16.6022 24.5 17C24.5 17.3978 24.658 17.7794 24.9393 18.0607C25.2206 18.342 25.6022 18.5 26 18.5H27.5V22.25C27.5 22.8467 27.2629 23.419 26.841 23.841C26.419 24.2629 25.8467 24.5 25.25 24.5H23C23 25.2956 22.6839 26.0587 22.1213 26.6213C21.5587 27.1839 20.7956 27.5 20 27.5C19.2044 27.5 18.4413 27.1839 17.8787 26.6213C17.3161 26.0587 17 25.2956 17 24.5H14.75C14.1533 24.5 13.581 24.2629 13.159 23.841C12.7371 23.419 12.5 22.8467 12.5 22.25V20C11.7044 20 10.9413 19.6839 10.3787 19.1213C9.81607 18.5587 9.5 17.7956 9.5 17C9.5 16.2044 9.81607 15.4413 10.3787 14.8787C10.9413 14.3161 11.7044 14 12.5 14V11.75C12.5 11.1533 12.7371 10.581 13.159 10.159C13.581 9.73705 14.1533 9.5 14.75 9.5H17ZM20 8C19.6022 8 19.2206 8.15804 18.9393 8.43934C18.658 8.72064 18.5 9.10218 18.5 9.5V11H14.75C14.5511 11 14.3603 11.079 14.2197 11.2197C14.079 11.3603 14 11.5511 14 11.75V15.5H12.5C12.1022 15.5 11.7206 15.658 11.4393 15.9393C11.158 16.2206 11 16.6022 11 17C11 17.3978 11.158 17.7794 11.4393 18.0607C11.7206 18.342 12.1022 18.5 12.5 18.5H14V22.25C14 22.4489 14.079 22.6397 14.2197 22.7803C14.3603 22.921 14.5511 23 14.75 23H18.5V24.5C18.5 24.8978 18.658 25.2794 18.9393 25.5607C19.2206 25.842 19.6022 26 20 26C20.3978 26 20.7794 25.842 21.0607 25.5607C21.342 25.2794 21.5 24.8978 21.5 24.5V23H25.25C25.4489 23 25.6397 22.921 25.7803 22.7803C25.921 22.6397 26 22.4489 26 22.25V20C25.2044 20 24.4413 19.6839 23.8787 19.1213C23.3161 18.5587 23 17.7956 23 17C23 16.2044 23.3161 15.4413 23.8787 14.8787C24.4413 14.3161 25.2044 14 26 14V11.75C26 11.5511 25.921 11.3603 25.7803 11.2197C25.6397 11.079 25.4489 11 25.25 11H21.5V9.5C21.5 9.10218 21.342 8.72064 21.0607 8.43934C20.7794 8.15804 20.3978 8 20 8Z" fill="#A68AF9"/>
</svg>
