<svg width="37" height="34" viewBox="0 0 37 34" fill="none" xmlns="http://www.w3.org/2000/svg">
<rect x="0.5" y="0.5" width="36" height="33" rx="7.5" fill="#F7FAFC"/>
<rect x="0.5" y="0.5" width="36" height="33" rx="7.5" stroke="#D5D5D5"/>
<path fill-rule="evenodd" clip-rule="evenodd" d="M13.2509 9.125C13.8708 9.12408 14.471 9.34258 14.9453 9.74181C15.4195 10.141 15.7372 10.6952 15.842 11.3062C15.9468 11.9172 15.832 12.5456 15.5179 13.08C15.2038 13.6145 14.7107 14.0205 14.1259 14.2263V14.375C14.1259 14.8391 14.3103 15.2843 14.6384 15.6124C14.9666 15.9406 15.4118 16.125 15.8759 16.125H21.1259C22.0541 16.125 22.9444 16.4938 23.6008 17.1501C24.2571 17.8065 24.6259 18.6967 24.6259 19.625V19.7738C25.2099 19.9802 25.7022 20.3864 26.0157 20.9207C26.3292 21.455 26.4437 22.0829 26.339 22.6934C26.2343 23.304 25.9171 23.8579 25.4435 24.2571C24.9699 24.6564 24.3703 24.8754 23.7509 24.8754C23.1314 24.8754 22.5319 24.6564 22.0583 24.2571C21.5847 23.8579 21.2675 23.304 21.1628 22.6934C21.0581 22.0829 21.1726 21.455 21.4861 20.9207C21.7995 20.3864 22.2918 19.9802 22.8759 19.7738V19.625C22.8759 19.1609 22.6915 18.7158 22.3633 18.3876C22.0351 18.0594 21.59 17.875 21.1259 17.875H15.8759C15.2616 17.8752 14.658 17.7138 14.1259 17.4069V19.7746C14.7099 19.981 15.2022 20.3873 15.5157 20.9216C15.8292 21.4559 15.9437 22.0838 15.839 22.6943C15.7342 23.3049 15.4171 23.8587 14.9435 24.258C14.4699 24.6573 13.8703 24.8763 13.2509 24.8763C12.6314 24.8763 12.0319 24.6573 11.5583 24.258C11.0847 23.8587 10.7675 23.3049 10.6628 22.6943C10.5581 22.0838 10.6726 21.4559 10.9861 20.9216C11.2995 20.3873 11.7918 19.981 12.3759 19.7746V14.2254C11.7927 14.0183 11.3015 13.612 10.9887 13.078C10.676 12.544 10.5618 11.9168 10.6665 11.3069C10.7711 10.697 11.0878 10.1436 11.5606 9.74443C12.0334 9.34524 12.6321 9.12587 13.2509 9.125ZM23.7509 21.375C23.5188 21.375 23.2963 21.4672 23.1322 21.6313C22.9681 21.7954 22.8759 22.0179 22.8759 22.25C22.8759 22.4821 22.9681 22.7046 23.1322 22.8687C23.2963 23.0328 23.5188 23.125 23.7509 23.125C23.9829 23.125 24.2055 23.0328 24.3696 22.8687C24.5337 22.7046 24.6259 22.4821 24.6259 22.25C24.6259 22.0179 24.5337 21.7954 24.3696 21.6313C24.2055 21.4672 23.9829 21.375 23.7509 21.375ZM13.2509 21.375C13.0188 21.375 12.7963 21.4672 12.6322 21.6313C12.4681 21.7954 12.3759 22.0179 12.3759 22.25C12.3759 22.4821 12.4681 22.7046 12.6322 22.8687C12.7963 23.0328 13.0188 23.125 13.2509 23.125C13.4829 23.125 13.7055 23.0328 13.8696 22.8687C14.0337 22.7046 14.1259 22.4821 14.1259 22.25C14.1259 22.0179 14.0337 21.7954 13.8696 21.6313C13.7055 21.4672 13.4829 21.375 13.2509 21.375ZM13.2509 10.875C13.0188 10.875 12.7963 10.9672 12.6322 11.1313C12.4681 11.2954 12.3759 11.5179 12.3759 11.75C12.3759 11.9821 12.4681 12.2046 12.6322 12.3687C12.7963 12.5328 13.0188 12.625 13.2509 12.625C13.4829 12.625 13.7055 12.5328 13.8696 12.3687C14.0337 12.2046 14.1259 11.9821 14.1259 11.75C14.1259 11.5179 14.0337 11.2954 13.8696 11.1313C13.7055 10.9672 13.4829 10.875 13.2509 10.875Z" fill="#04B6D4"/>
</svg>
