<svg width="37" height="34" viewBox="0 0 37 34" fill="none" xmlns="http://www.w3.org/2000/svg">
<rect x="0.5" y="0.5" width="36" height="33" rx="7.5" fill="#F7FAFC"/>
<rect x="0.5" y="0.5" width="36" height="33" rx="7.5" stroke="#D5D5D5"/>
<path d="M9.84766 16.9999C9.84766 15.6699 10.5127 13.0059 13.8417 13.0059C17.8358 13.0059 19.1658 20.994 23.1599 20.994C26.4889 20.994 27.1539 18.3313 27.1539 16.9999C27.1539 15.6699 26.4889 13.0059 23.1599 13.0059C19.1658 13.0059 17.8358 20.994 13.8417 20.994C10.5127 20.994 9.84766 18.3299 9.84766 16.9999Z" stroke="#6265F0" stroke-width="1.25" stroke-linecap="round" stroke-linejoin="round"/>
<circle cx="25" cy="11.5" r="3" fill="#6265F0"/>
<path d="M23.9695 12.5298C23.8232 12.5298 23.6925 12.5046 23.5774 12.4542C23.4631 12.4038 23.3725 12.3338 23.3058 12.2443C23.2397 12.1541 23.2042 12.0497 23.1992 11.9311H23.5337C23.538 11.9957 23.5597 12.0518 23.5987 12.0994C23.6385 12.1463 23.6903 12.1825 23.7543 12.2081C23.8182 12.2337 23.8892 12.2464 23.9673 12.2464C24.0533 12.2464 24.1293 12.2315 24.1953 12.2017C24.2621 12.1719 24.3143 12.1303 24.3519 12.0771C24.3896 12.0231 24.4084 11.9609 24.4084 11.8906C24.4084 11.8175 24.3896 11.7532 24.3519 11.6978C24.315 11.6417 24.2607 11.5977 24.1889 11.5657C24.1179 11.5337 24.032 11.5178 23.9311 11.5178H23.7468V11.2493H23.9311C24.0121 11.2493 24.0831 11.2347 24.1442 11.2056C24.206 11.1765 24.2543 11.136 24.2891 11.0842C24.3239 11.0316 24.3413 10.9702 24.3413 10.8999C24.3413 10.8324 24.326 10.7738 24.2955 10.7241C24.2656 10.6737 24.223 10.6342 24.1676 10.6058C24.1129 10.5774 24.0483 10.5632 23.9737 10.5632C23.9027 10.5632 23.8363 10.5763 23.7745 10.6026C23.7134 10.6282 23.6637 10.6651 23.6254 10.7134C23.587 10.761 23.5664 10.8182 23.5636 10.8849H23.245C23.2486 10.767 23.2834 10.6634 23.3494 10.5739C23.4162 10.4844 23.5043 10.4144 23.6136 10.364C23.723 10.3136 23.8445 10.2884 23.978 10.2884C24.1179 10.2884 24.2386 10.3157 24.3402 10.3704C24.4425 10.4244 24.5213 10.4964 24.5767 10.5866C24.6328 10.6768 24.6605 10.7756 24.6598 10.8828C24.6605 11.005 24.6264 11.1087 24.5575 11.1939C24.4893 11.2791 24.3984 11.3363 24.2848 11.3654V11.3825C24.4297 11.4045 24.5419 11.462 24.6214 11.555C24.7017 11.6481 24.7415 11.7635 24.7408 11.9013C24.7415 12.0213 24.7081 12.1289 24.6406 12.2241C24.5739 12.3192 24.4826 12.3942 24.3668 12.4489C24.2511 12.5028 24.1186 12.5298 23.9695 12.5298ZM25.3991 10.8636L25.7603 11.5007L26.1246 10.8636H26.473L25.9627 11.6818L26.4773 12.5H26.1289L25.7603 11.8885L25.3928 12.5H25.0433L25.5526 11.6818L25.0497 10.8636H25.3991Z" fill="white"/>
</svg>
