<svg width="19" height="19" viewBox="0 0 19 19" fill="none" xmlns="http://www.w3.org/2000/svg">
<path fill-rule="evenodd" clip-rule="evenodd" d="M5.9376 10.45C6.06358 10.45 6.18439 10.5 6.27347 10.5891C6.36255 10.6782 6.4126 10.799 6.4126 10.925V15.675C6.4126 15.8009 6.36255 15.9217 6.27347 16.0108C6.18439 16.0999 6.06358 16.15 5.9376 16.15H4.5126C4.38662 16.15 4.2658 16.0999 4.17672 16.0108C4.08764 15.9217 4.0376 15.8009 4.0376 15.675V10.925C4.0376 10.799 4.08764 10.6782 4.17672 10.5891C4.2658 10.5 4.38662 10.45 4.5126 10.45H5.9376Z" fill="#F49E09"/>
<path d="M6.8875 15.675V10.925H5.9375V15.675H6.8875ZM4.5125 16.625H5.9375V15.675H4.5125V16.625ZM3.5625 10.925V15.675H4.5125V10.925H3.5625ZM5.9375 9.97498H4.5125V10.925H5.9375V9.97498ZM4.5125 10.925V9.97498C4.26054 9.97498 4.01891 10.0751 3.84075 10.2532C3.66259 10.4314 3.5625 10.673 3.5625 10.925H4.5125ZM4.5125 15.675H3.5625C3.5625 15.9269 3.66259 16.1686 3.84075 16.3467C4.01891 16.5249 4.26054 16.625 4.5125 16.625V15.675ZM6.8875 10.925C6.8875 10.673 6.78741 10.4314 6.60925 10.2532C6.43109 10.0751 6.18946 9.97498 5.9375 9.97498V10.925H6.8875ZM5.9375 15.675V16.625C6.18946 16.625 6.43109 16.5249 6.60925 16.3467C6.78741 16.1686 6.8875 15.9269 6.8875 15.675H5.9375Z" fill="#F49E09"/>
<path fill-rule="evenodd" clip-rule="evenodd" d="M10.2125 6.65002C10.3385 6.65002 10.4593 6.70007 10.5484 6.78915C10.6375 6.87823 10.6875 6.99905 10.6875 7.12502V15.675C10.6875 15.801 10.6375 15.9218 10.5484 16.0109C10.4593 16.1 10.3385 16.15 10.2125 16.15H8.7875C8.66152 16.15 8.5407 16.1 8.45162 16.0109C8.36254 15.9218 8.3125 15.801 8.3125 15.675V7.12502C8.3125 6.99905 8.36254 6.87823 8.45162 6.78915C8.5407 6.70007 8.66152 6.65002 8.7875 6.65002H10.2125Z" fill="#F49E09"/>
<path d="M11.1624 15.675V7.12505H10.2124V15.675H11.1624ZM8.7874 16.625H10.2124V15.675H8.7874V16.625ZM7.8374 7.12505V15.675H8.7874V7.12505H7.8374ZM10.2124 6.17505H8.7874V7.12505H10.2124V6.17505ZM8.7874 7.12505V6.17505C8.53545 6.17505 8.29381 6.27514 8.11565 6.4533C7.93749 6.63146 7.8374 6.87309 7.8374 7.12505H8.7874ZM8.7874 15.675H7.8374C7.8374 15.927 7.93749 16.1686 8.11565 16.3468C8.29381 16.525 8.53545 16.625 8.7874 16.625V15.675ZM11.1624 7.12505C11.1624 6.87309 11.0623 6.63146 10.8842 6.4533C10.706 6.27514 10.4644 6.17505 10.2124 6.17505V7.12505H11.1624ZM10.2124 15.675V16.625C10.4644 16.625 10.706 16.525 10.8842 16.3468C11.0623 16.1686 11.1624 15.927 11.1624 15.675H10.2124Z" fill="#F49E09"/>
<path fill-rule="evenodd" clip-rule="evenodd" d="M14.4874 2.84998C14.6134 2.84998 14.7342 2.90002 14.8233 2.9891C14.9124 3.07818 14.9624 3.199 14.9624 3.32498V15.675C14.9624 15.801 14.9124 15.9218 14.8233 16.0109C14.7342 16.0999 14.6134 16.15 14.4874 16.15H13.0624C12.9364 16.15 12.8156 16.0999 12.7265 16.0109C12.6374 15.9218 12.5874 15.801 12.5874 15.675V3.32498C12.5874 3.199 12.6374 3.07818 12.7265 2.9891C12.8156 2.90002 12.9364 2.84998 13.0624 2.84998H14.4874Z" fill="#F49E09"/>
<path d="M15.4373 15.675V3.325H14.4873V15.675H15.4373ZM13.0623 16.625H14.4873V15.675H13.0623V16.625ZM12.1123 3.325V15.675H13.0623V3.325H12.1123ZM14.4873 2.375H13.0623V3.325H14.4873V2.375ZM13.0623 3.325V2.375C12.8103 2.375 12.5687 2.47509 12.3906 2.65325C12.2124 2.83141 12.1123 3.07304 12.1123 3.325H13.0623ZM13.0623 15.675H12.1123C12.1123 15.927 12.2124 16.1686 12.3906 16.3468C12.5687 16.5249 12.8103 16.625 13.0623 16.625V15.675ZM15.4373 3.325C15.4373 3.07304 15.3372 2.83141 15.1591 2.65325C14.9809 2.47509 14.7393 2.375 14.4873 2.375V3.325H15.4373ZM14.4873 15.675V16.625C14.7393 16.625 14.9809 16.5249 15.1591 16.3468C15.3372 16.1686 15.4373 15.927 15.4373 15.675H14.4873Z" fill="#F49E09"/>
<path d="M17.0999 16.15H1.8999" stroke="#F49E09" stroke-width="1.5" stroke-linecap="round" stroke-linejoin="round"/>
</svg>
