<svg width="37" height="31" viewBox="0 0 37 31" fill="none" xmlns="http://www.w3.org/2000/svg">
<rect width="37" height="31" rx="8" fill="#F4F4F4"/>
<path d="M24.7 22.75L19.975 18.025C19.6 18.325 19.1688 18.5625 18.6813 18.7375C18.1938 18.9125 17.675 19 17.125 19C15.7625 19 14.6095 18.528 13.666 17.584C12.7225 16.64 12.2505 15.487 12.25 14.125C12.2495 12.763 12.7215 11.61 13.666 10.666C14.6105 9.722 15.7635 9.25 17.125 9.25C18.4865 9.25 19.6398 9.722 20.5848 10.666C21.5298 11.61 22.0015 12.763 22 14.125C22 14.675 21.9125 15.1937 21.7375 15.6812C21.5625 16.1687 21.325 16.6 21.025 16.975L25.75 21.7L24.7 22.75ZM17.125 17.5C18.0625 17.5 18.8595 17.172 19.516 16.516C20.1725 15.86 20.5005 15.063 20.5 14.125C20.4995 13.187 20.1715 12.3903 19.516 11.7348C18.8605 11.0793 18.0635 10.751 17.125 10.75C16.1865 10.749 15.3898 11.0773 14.7348 11.7348C14.0798 12.3923 13.7515 13.189 13.75 14.125C13.7485 15.061 14.0768 15.858 14.7348 16.516C15.3928 17.174 16.1895 17.502 17.125 17.5Z" fill="#989898"/>
</svg>
