<svg width="37" height="34" viewBox="0 0 37 34" fill="none" xmlns="http://www.w3.org/2000/svg">
<rect x="0.5" y="0.5" width="36" height="33" rx="7.5" fill="#F7FAFC"/>
<rect x="0.5" y="0.5" width="36" height="33" rx="7.5" stroke="#D5D5D5"/>
<path d="M25.5 8H11.5C10.4 8 9.5 8.9 9.5 10V11H19.5C19.88 11 20.22 11.21 20.39 11.55L21.62 14.01C22.66 14.08 23.5 14.94 23.5 16C23.5 17.06 22.6 18 21.5 18C20.4 18 19.5 17.1 19.5 16C19.5 15.59 19.62 15.22 19.83 14.9L18.88 13H9.5V24C9.5 25.1 10.4 26 11.5 26H25.5C26.6 26 27.5 25.1 27.5 24V23H17.5C17.12 23 16.78 22.79 16.61 22.45L15.38 19.99C14.34 19.92 13.5 19.06 13.5 18C13.5 16.94 14.4 16 15.5 16C16.6 16 17.5 16.9 17.5 18C17.5 18.41 17.38 18.78 17.17 19.1L18.12 21H27.5V10C27.5 8.9 26.6 8 25.5 8Z" fill="#EB4899"/>
</svg>
