<svg width="22" height="22" viewBox="0 0 22 22" fill="none" xmlns="http://www.w3.org/2000/svg">
<path d="M10.9998 12.8333C12.0124 12.8333 12.8332 12.0125 12.8332 11C12.8332 9.98744 12.0124 9.16663 10.9998 9.16663C9.98732 9.16663 9.1665 9.98744 9.1665 11C9.1665 12.0125 9.98732 12.8333 10.9998 12.8333Z" stroke="#3B82F6" stroke-width="2" stroke-linecap="round" stroke-linejoin="round"/>
<path d="M14.8868 7.11333C15.3982 7.62413 15.8039 8.23072 16.0807 8.89841C16.3574 9.5661 16.4999 10.2818 16.4999 11.0046C16.4999 11.7274 16.3574 12.4431 16.0807 13.1108C15.8039 13.7784 15.3982 14.385 14.8868 14.8958M7.11349 14.8867C6.60212 14.3759 6.19645 13.7693 5.91966 13.1016C5.64288 12.4339 5.50042 11.7182 5.50042 10.9954C5.50042 10.2726 5.64288 9.55693 5.91966 8.88924C6.19645 8.22155 6.60212 7.61497 7.11349 7.10417M17.481 4.51917C19.1995 6.23817 20.1649 8.56933 20.1649 11C20.1649 13.4307 19.1995 15.7618 17.481 17.4808M4.51933 17.4808C2.80084 15.7618 1.83545 13.4307 1.83545 11C1.83545 8.56933 2.80084 6.23817 4.51933 4.51917" stroke="#3B82F6" stroke-width="2" stroke-linecap="round" stroke-linejoin="round"/>
</svg>
