<svg width="37" height="34" viewBox="0 0 37 34" fill="none" xmlns="http://www.w3.org/2000/svg">
<rect x="0.5" y="0.5" width="36" height="33" rx="7.5" fill="#F7FAFC"/>
<rect x="0.5" y="0.5" width="36" height="33" rx="7.5" stroke="#D5D5D5"/>
<path d="M15.0469 12.75C15.0469 12.5387 15.1308 12.336 15.2803 12.1865C15.4297 12.0371 15.6324 11.9531 15.8438 11.9531H24.3438C24.5551 11.9531 24.7578 12.0371 24.9072 12.1865C25.0567 12.336 25.1406 12.5387 25.1406 12.75C25.1406 12.9613 25.0567 13.164 24.9072 13.3135C24.7578 13.4629 24.5551 13.5469 24.3438 13.5469H15.8438C15.6324 13.5469 15.4297 13.4629 15.2803 13.3135C15.1308 13.164 15.0469 12.9613 15.0469 12.75ZM24.3438 16.2031H15.8438C15.6324 16.2031 15.4297 16.2871 15.2803 16.4365C15.1308 16.586 15.0469 16.7887 15.0469 17C15.0469 17.2113 15.1308 17.414 15.2803 17.5635C15.4297 17.7129 15.6324 17.7969 15.8438 17.7969H24.3438C24.5551 17.7969 24.7578 17.7129 24.9072 17.5635C25.0567 17.414 25.1406 17.2113 25.1406 17C25.1406 16.7887 25.0567 16.586 24.9072 16.4365C24.7578 16.2871 24.5551 16.2031 24.3438 16.2031ZM24.3438 20.4531H15.8438C15.6324 20.4531 15.4297 20.5371 15.2803 20.6865C15.1308 20.836 15.0469 21.0387 15.0469 21.25C15.0469 21.4613 15.1308 21.664 15.2803 21.8135C15.4297 21.9629 15.6324 22.0469 15.8438 22.0469H24.3438C24.5551 22.0469 24.7578 21.9629 24.9072 21.8135C25.0567 21.664 25.1406 21.4613 25.1406 21.25C25.1406 21.0387 25.0567 20.836 24.9072 20.6865C24.7578 20.5371 24.5551 20.4531 24.3438 20.4531ZM12.9219 15.9375C12.7117 15.9375 12.5063 15.9998 12.3316 16.1166C12.1569 16.2333 12.0207 16.3993 11.9403 16.5934C11.8598 16.7875 11.8388 17.0012 11.8798 17.2073C11.9208 17.4134 12.022 17.6027 12.1706 17.7513C12.3192 17.8999 12.5085 18.0011 12.7146 18.0421C12.9207 18.0831 13.1343 18.062 13.3285 17.9816C13.5226 17.9012 13.6886 17.765 13.8053 17.5903C13.9221 17.4156 13.9844 17.2101 13.9844 17C13.9844 16.7182 13.8724 16.448 13.6732 16.2487C13.4739 16.0494 13.2037 15.9375 12.9219 15.9375ZM12.9219 11.6875C12.7117 11.6875 12.5063 11.7498 12.3316 11.8666C12.1569 11.9833 12.0207 12.1493 11.9403 12.3434C11.8598 12.5375 11.8388 12.7512 11.8798 12.9573C11.9208 13.1634 12.022 13.3527 12.1706 13.5013C12.3192 13.6499 12.5085 13.7511 12.7146 13.7921C12.9207 13.8331 13.1343 13.812 13.3285 13.7316C13.5226 13.6512 13.6886 13.515 13.8053 13.3403C13.9221 13.1656 13.9844 12.9601 13.9844 12.75C13.9844 12.4682 13.8724 12.198 13.6732 11.9987C13.4739 11.7994 13.2037 11.6875 12.9219 11.6875ZM12.9219 20.1875C12.7117 20.1875 12.5063 20.2498 12.3316 20.3666C12.1569 20.4833 12.0207 20.6493 11.9403 20.8434C11.8598 21.0375 11.8388 21.2512 11.8798 21.4573C11.9208 21.6634 12.022 21.8527 12.1706 22.0013C12.3192 22.1499 12.5085 22.2511 12.7146 22.2921C12.9207 22.3331 13.1343 22.312 13.3285 22.2316C13.5226 22.1512 13.6886 22.015 13.8053 21.8403C13.9221 21.6656 13.9844 21.4601 13.9844 21.25C13.9844 20.9682 13.8724 20.698 13.6732 20.4987C13.4739 20.2994 13.2037 20.1875 12.9219 20.1875Z" fill="#0FB881"/>
</svg>
