<svg width="14" height="14" viewBox="0 0 14 14" fill="none" xmlns="http://www.w3.org/2000/svg">
<path opacity="0.5" d="M3.0625 4.66663L1.75 5.97913L3.0625 7.29163M1.75 5.97913H4.14167C5.44833 5.97913 6.10167 5.97913 6.601 6.23346C7.04003 6.45716 7.39697 6.8141 7.62067 7.25313C7.875 7.75246 7.875 8.40579 7.875 9.71246V9.91663" stroke="#4A75D1" stroke-linecap="round" stroke-linejoin="round"/>
<path opacity="0.5" d="M11.562 4.95823H9.62533C9.47062 4.95823 9.32224 4.89677 9.21285 4.78738C9.10345 4.67798 9.04199 4.52961 9.04199 4.3749V2.43823C9.25958 2.5374 9.42233 2.71357 9.58858 2.87982L11.1204 4.41165C11.2867 4.5779 11.4634 4.74065 11.562 4.95823Z" fill="#4A75D1"/>
<path d="M11.562 4.95823H9.62533C9.47062 4.95823 9.32224 4.89677 9.21285 4.78738C9.10345 4.67798 9.04199 4.52961 9.04199 4.3749V2.43823C9.25958 2.5374 9.42233 2.71357 9.58858 2.87982L11.1204 4.41165C11.2867 4.5779 11.4634 4.74065 11.562 4.95823Z" fill="#4A75D1"/>
<path d="M4.22949 5.83329C4.22949 5.94932 4.27559 6.0606 4.35763 6.14265C4.43968 6.2247 4.55096 6.27079 4.66699 6.27079C4.78302 6.27079 4.8943 6.2247 4.97635 6.14265C5.0584 6.0606 5.10449 5.94932 5.10449 5.83329H4.22949ZM5.10449 8.16662C5.10449 8.05059 5.0584 7.93931 4.97635 7.85726C4.8943 7.77522 4.78302 7.72912 4.66699 7.72912C4.55096 7.72912 4.43968 7.77522 4.35763 7.85726C4.27559 7.93931 4.22949 8.05059 4.22949 8.16662H5.10449ZM11.562 4.95829V5.39579C11.6352 5.3958 11.7072 5.37744 11.7715 5.34241C11.8357 5.30737 11.8902 5.25678 11.9298 5.19526C11.9694 5.13374 11.993 5.06325 11.9984 4.99026C12.0037 4.91727 11.9907 4.8441 11.9604 4.77746L11.562 4.95829ZM9.04199 2.43829L9.22283 2.03987C9.15618 2.00962 9.08301 1.99657 9.01002 2.00192C8.93703 2.00727 8.86655 2.03084 8.80503 2.07049C8.7435 2.11013 8.69291 2.16457 8.65787 2.22883C8.62284 2.29308 8.60449 2.3651 8.60449 2.43829H9.04199ZM9.80032 11.2291H6.53366V12.1041H9.80032V11.2291ZM6.53366 2.77079H8.26908V1.89579H6.53366V2.77079ZM11.2295 5.73121V9.79996H12.1045V5.73121H11.2295ZM9.27941 3.18904L10.8107 4.72087L11.4296 4.10254L9.89833 2.57071L9.27941 3.18904ZM5.10449 5.83329V4.19996H4.22949V5.83329H5.10449ZM5.10449 9.79996V8.16662H4.22949V9.79996H5.10449ZM10.8107 4.72087C11.0277 4.93729 11.0831 4.99737 11.1222 5.06037L11.8682 4.60362C11.7627 4.43096 11.6168 4.28979 11.4296 4.10254L10.8107 4.72087ZM9.89833 2.57071C9.71108 2.38404 9.56933 2.23821 9.39666 2.13204L8.93991 2.87871C9.00291 2.91721 9.06241 2.97204 9.27941 3.18904L9.89833 2.57071ZM8.26908 2.77079C8.60566 2.77079 8.78066 2.78129 8.93991 2.87871L9.39666 2.13204C8.99591 1.88704 8.57008 1.89579 8.26849 1.89579L8.26908 2.77079ZM12.1045 5.73121C12.1045 5.43021 12.1138 5.00437 11.8682 4.60362L11.1222 5.06037C11.2202 5.21962 11.2295 5.39462 11.2295 5.73121H12.1045ZM11.562 4.52079H9.62533V5.39579H11.562V4.52079ZM9.47949 4.37496V2.43829H8.60449V4.37496H9.47949ZM9.62533 4.52079C9.58665 4.52079 9.54955 4.50543 9.52221 4.47808C9.49486 4.45073 9.47949 4.41363 9.47949 4.37496H8.60449C8.60449 4.93846 9.06183 5.39579 9.62533 5.39579V4.52079ZM8.86116 2.83612C8.98949 2.89446 9.08924 2.99887 9.27941 3.18904L9.89774 2.57071C9.75482 2.42721 9.52966 2.17987 9.22283 2.03987L8.86116 2.83612ZM10.8107 4.72087C11.0008 4.91104 11.1052 5.01079 11.1642 5.13971L11.9604 4.77746C11.8204 4.47121 11.5731 4.24604 11.4296 4.10254L10.8107 4.72087ZM6.53366 11.2291C5.87508 11.2291 5.56183 11.12 5.39499 10.959C5.23166 10.8015 5.10449 10.4924 5.10449 9.79996H4.22949C4.22949 10.549 4.35666 11.1731 4.78774 11.5885C5.21474 12.0009 5.83483 12.1041 6.53366 12.1041V11.2291ZM11.2295 9.79996C11.2295 10.4585 11.1204 10.7718 10.9594 10.9386C10.8019 11.102 10.4927 11.2291 9.80032 11.2291V12.1041C10.5493 12.1041 11.1735 11.977 11.5888 11.5459C12.0012 11.1189 12.1045 10.4988 12.1045 9.79996H11.2295ZM5.10449 4.19996C5.10449 3.54137 5.21358 3.22812 5.37458 3.06129C5.53208 2.89796 5.84124 2.77079 6.53366 2.77079V1.89579C5.78466 1.89579 5.16049 2.02296 4.74458 2.45404C4.33274 2.88104 4.22949 3.50112 4.22949 4.19996H5.10449Z" fill="#4A75D1"/>
</svg>
