<svg width="20" height="20" viewBox="0 0 20 20" fill="none" xmlns="http://www.w3.org/2000/svg">
<path d="M14.167 2.78332C15.1224 3.32651 15.9609 4.05331 16.6342 4.92187C17.3076 5.79044 17.8025 6.78361 18.0904 7.84422C18.3784 8.90483 18.4537 10.0119 18.312 11.1017C18.1704 12.1916 17.8145 13.2426 17.265 14.1944C16.7155 15.1461 15.9832 15.9798 15.1102 16.6474C14.2371 17.3149 13.2407 17.8032 12.1782 18.0841C11.1157 18.3651 10.0082 18.433 8.91928 18.2841C7.83042 18.1353 6.78175 17.7725 5.83366 17.2167C3.93527 16.1037 2.55415 14.2851 1.99168 12.1576C1.42921 10.0302 1.73107 7.7666 2.83137 5.86087C3.93168 3.95514 5.7411 2.56198 7.86479 1.98542C9.98848 1.40885 12.254 1.69568 14.167 2.78332ZM10.0003 13.3333C9.79622 13.3333 9.59921 13.4083 9.44668 13.5439C9.29415 13.6796 9.19671 13.8664 9.17283 14.0692L9.16699 14.175C9.16723 14.3874 9.24856 14.5917 9.39437 14.7461C9.54017 14.9006 9.73945 14.9935 9.95149 15.006C10.1635 15.0184 10.3723 14.9494 10.5352 14.8131C10.6981 14.6768 10.8027 14.4834 10.8278 14.2725L10.8337 14.1667C10.8337 13.9456 10.7459 13.7337 10.5896 13.5774C10.4333 13.4211 10.2213 13.3333 10.0003 13.3333ZM10.9778 5.11999C10.3862 4.92985 9.7502 4.9281 9.15757 5.115C8.56494 5.30189 8.04498 5.6682 7.66949 6.16332C7.54018 6.33214 7.48029 6.544 7.5021 6.75553C7.52391 6.96706 7.62576 7.16225 7.78679 7.30114C7.94783 7.44002 8.15587 7.51208 8.3683 7.50258C8.58074 7.49307 8.78151 7.4027 8.92949 7.24999L8.99783 7.16999C9.12261 7.00567 9.28383 6.87255 9.4688 6.78111C9.65377 6.68967 9.85743 6.64241 10.0638 6.64304C10.2701 6.64367 10.4735 6.69218 10.6579 6.78475C10.8423 6.87732 11.0027 7.01142 11.1265 7.1765C11.2502 7.34159 11.334 7.53314 11.3712 7.7361C11.4084 7.93906 11.3979 8.14787 11.3407 8.34611C11.2835 8.54435 11.1811 8.72661 11.0414 8.87854C10.9018 9.03047 10.7289 9.14792 10.5362 9.22166C10.1148 9.37359 9.75391 9.6578 9.50743 10.0318C9.26095 10.4058 9.1421 10.8495 9.16866 11.2967C9.18162 11.5082 9.27467 11.7068 9.42888 11.8521C9.58308 11.9974 9.78686 12.0786 9.99876 12.079C10.2107 12.0794 10.4148 11.9991 10.5696 11.8544C10.7243 11.7097 10.8182 11.5114 10.832 11.3V11.2025C10.8277 11.124 10.8456 11.0459 10.8838 10.9772C10.922 10.9084 10.9789 10.8519 11.0478 10.8142L11.1103 10.7858C11.6952 10.5659 12.197 10.1692 12.5462 9.65104C12.8953 9.13285 13.0744 8.5188 13.0587 7.89416C13.0417 7.27322 12.8324 6.67287 12.4597 6.17595C12.087 5.67904 11.5692 5.31007 10.9778 5.11999Z" fill="#F7FAFC"/>
</svg>
