<svg width="36" height="35" viewBox="0 0 36 35" fill="none" xmlns="http://www.w3.org/2000/svg">
<g filter="url(#filter0_d_319_684)">
<rect x="4" y="3" width="28" height="27" rx="7" fill="white"/>
</g>
<path d="M15.9999 19.9334L13.4165 22.5334C13.2832 22.6667 13.1276 22.7334 12.9499 22.7334C12.7721 22.7334 12.6165 22.6667 12.4832 22.5334C12.3499 22.4001 12.2832 22.2418 12.2832 22.0587C12.2832 21.8756 12.3499 21.7172 12.4832 21.5834L15.0665 19.0001H13.9999C13.811 19.0001 13.6528 18.9363 13.5252 18.8087C13.3976 18.6812 13.3336 18.5227 13.3332 18.3334C13.3328 18.1441 13.3968 17.9858 13.5252 17.8587C13.6536 17.7316 13.8119 17.6676 13.9999 17.6667H16.6665C16.8554 17.6667 17.0139 17.7307 17.1419 17.8587C17.2699 17.9867 17.3336 18.1449 17.3332 18.3334V21.0001C17.3332 21.1889 17.2692 21.3474 17.1412 21.4754C17.0132 21.6034 16.855 21.6672 16.6665 21.6667C16.4781 21.6663 16.3199 21.6023 16.1919 21.4747C16.0639 21.3472 15.9999 21.1889 15.9999 21.0001V19.9334ZM20.9332 15.0001H21.9999C22.1888 15.0001 22.3472 15.0641 22.4752 15.1921C22.6032 15.3201 22.667 15.4783 22.6665 15.6667C22.6661 15.8552 22.6021 16.0136 22.4745 16.1421C22.347 16.2705 22.1888 16.3343 21.9999 16.3334H19.3332C19.1443 16.3334 18.9861 16.2694 18.8585 16.1414C18.731 16.0134 18.667 15.8552 18.6665 15.6667V13.0001C18.6665 12.8112 18.7305 12.6529 18.8585 12.5254C18.9865 12.3978 19.1448 12.3338 19.3332 12.3334C19.5216 12.3329 19.6801 12.3969 19.8085 12.5254C19.937 12.6538 20.0008 12.8121 19.9999 13.0001V14.0667L22.5832 11.4667C22.7165 11.3334 22.8721 11.2667 23.0499 11.2667C23.2276 11.2667 23.3832 11.3334 23.5165 11.4667C23.6499 11.6001 23.7165 11.7583 23.7165 11.9414C23.7165 12.1245 23.6499 12.2829 23.5165 12.4167L20.9332 15.0001Z" fill="#505050"/>
<defs>
<filter id="filter0_d_319_684" x="0" y="0" width="36" height="35" filterUnits="userSpaceOnUse" color-interpolation-filters="sRGB">
<feFlood flood-opacity="0" result="BackgroundImageFix"/>
<feColorMatrix in="SourceAlpha" type="matrix" values="0 0 0 0 0 0 0 0 0 0 0 0 0 0 0 0 0 0 127 0" result="hardAlpha"/>
<feOffset dy="1"/>
<feGaussianBlur stdDeviation="2"/>
<feComposite in2="hardAlpha" operator="out"/>
<feColorMatrix type="matrix" values="0 0 0 0 0 0 0 0 0 0 0 0 0 0 0 0 0 0 0.1 0"/>
<feBlend mode="normal" in2="BackgroundImageFix" result="effect1_dropShadow_319_684"/>
<feBlend mode="normal" in="SourceGraphic" in2="effect1_dropShadow_319_684" result="shape"/>
</filter>
</defs>
</svg>
