<svg width="14" height="14" viewBox="0 0 14 14" fill="none" xmlns="http://www.w3.org/2000/svg">
<path opacity="0.5" d="M9.04134 8.74992L7.58301 10.2083L6.12467 8.74992M7.58301 10.2083V9.56658C7.58301 8.25992 7.58301 7.60659 7.32867 7.10725C7.10497 6.66823 6.74803 6.31129 6.30901 6.08759C5.80967 5.83325 5.15634 5.83325 3.84967 5.83325H2.33301" stroke="#4A75D1" stroke-linecap="round" stroke-linejoin="round"/>
<path d="M10.978 4.95823H9.04134C8.88663 4.95823 8.73826 4.89677 8.62886 4.78738C8.51947 4.67798 8.45801 4.52961 8.45801 4.3749V2.43823C8.67559 2.5374 8.83834 2.71357 9.00459 2.87982L10.5364 4.41165C10.7027 4.5779 10.8794 4.74065 10.978 4.95823Z" fill="#4A75D1"/>
<path d="M3.64551 5.83329C3.64551 5.94932 3.6916 6.0606 3.77365 6.14265C3.8557 6.2247 3.96698 6.27079 4.08301 6.27079C4.19904 6.27079 4.31032 6.2247 4.39237 6.14265C4.47441 6.0606 4.52051 5.94932 4.52051 5.83329H3.64551ZM4.52051 8.16662C4.52051 8.05059 4.47441 7.93931 4.39237 7.85726C4.31032 7.77522 4.19904 7.72912 4.08301 7.72912C3.96698 7.72912 3.8557 7.77522 3.77365 7.85726C3.6916 7.93931 3.64551 8.05059 3.64551 8.16662H4.52051ZM10.978 4.95829V5.39579C11.0512 5.3958 11.1232 5.37744 11.1875 5.34241C11.2517 5.30737 11.3062 5.25678 11.3458 5.19526C11.3855 5.13374 11.409 5.06325 11.4144 4.99026C11.4197 4.91727 11.4067 4.8441 11.3764 4.77746L10.978 4.95829ZM8.45801 2.43829L8.63884 2.03987C8.5722 2.00962 8.49903 1.99657 8.42604 2.00192C8.35305 2.00727 8.28256 2.03084 8.22104 2.07049C8.15952 2.11013 8.10892 2.16457 8.07389 2.22883C8.03886 2.29308 8.0205 2.3651 8.02051 2.43829H8.45801ZM9.21634 11.2291H5.94967V12.1041H9.21634V11.2291ZM5.94967 2.77079H7.68509V1.89579H5.94967V2.77079ZM10.6455 5.73121V9.79996H11.5205V5.73121H10.6455ZM8.69542 3.18904L10.2267 4.72087L10.8456 4.10254L9.31434 2.57071L8.69542 3.18904ZM4.52051 5.83329V4.19996H3.64551V5.83329H4.52051ZM4.52051 9.79996V8.16662H3.64551V9.79996H4.52051ZM10.2267 4.72087C10.4437 4.93729 10.4991 4.99737 10.5382 5.06037L11.2843 4.60362C11.1787 4.43096 11.0328 4.28979 10.8456 4.10254L10.2267 4.72087ZM9.31434 2.57071C9.12709 2.38404 8.98534 2.23821 8.81267 2.13204L8.35592 2.87871C8.41892 2.91721 8.47842 2.97204 8.69542 3.18904L9.31434 2.57071ZM7.68509 2.77079C8.02167 2.77079 8.19667 2.78129 8.35592 2.87871L8.81267 2.13204C8.41192 1.88704 7.98609 1.89579 7.68451 1.89579L7.68509 2.77079ZM11.5205 5.73121C11.5205 5.43021 11.5298 5.00437 11.2843 4.60362L10.5382 5.06037C10.6362 5.21962 10.6455 5.39462 10.6455 5.73121H11.5205ZM10.978 4.52079H9.04134V5.39579H10.978V4.52079ZM8.89551 4.37496V2.43829H8.02051V4.37496H8.89551ZM9.04134 4.52079C9.00266 4.52079 8.96557 4.50543 8.93822 4.47808C8.91087 4.45073 8.89551 4.41363 8.89551 4.37496H8.02051C8.02051 4.93846 8.47784 5.39579 9.04134 5.39579V4.52079ZM8.27717 2.83612C8.40551 2.89446 8.50526 2.99887 8.69542 3.18904L9.31376 2.57071C9.17084 2.42721 8.94567 2.17987 8.63884 2.03987L8.27717 2.83612ZM10.2267 4.72087C10.4168 4.91104 10.5213 5.01079 10.5802 5.13971L11.3764 4.77746C11.2364 4.47121 10.9891 4.24604 10.8456 4.10254L10.2267 4.72087ZM5.94967 11.2291C5.29109 11.2291 4.97784 11.12 4.81101 10.959C4.64767 10.8015 4.52051 10.4924 4.52051 9.79996H3.64551C3.64551 10.549 3.77267 11.1731 4.20376 11.5885C4.63076 12.0009 5.25084 12.1041 5.94967 12.1041V11.2291ZM10.6455 9.79996C10.6455 10.4585 10.5364 10.7718 10.3754 10.9386C10.2179 11.102 9.90876 11.2291 9.21634 11.2291V12.1041C9.96534 12.1041 10.5895 11.977 11.0048 11.5459C11.4173 11.1189 11.5205 10.4988 11.5205 9.79996H10.6455ZM4.52051 4.19996C4.52051 3.54137 4.62959 3.22812 4.79059 3.06129C4.94809 2.89796 5.25726 2.77079 5.94967 2.77079V1.89579C5.20067 1.89579 4.57651 2.02296 4.16059 2.45404C3.74876 2.88104 3.64551 3.50112 3.64551 4.19996H4.52051Z" fill="#4A75D1"/>
<path opacity="0.5" d="M10.978 4.95823H9.04134C8.88663 4.95823 8.73826 4.89677 8.62886 4.78738C8.51947 4.67798 8.45801 4.52961 8.45801 4.3749V2.43823C8.67559 2.5374 8.83834 2.71357 9.00459 2.87982L10.5364 4.41165C10.7027 4.5779 10.8794 4.74065 10.978 4.95823Z" fill="#4A75D1"/>
</svg>
