<svg width="96" height="48" viewBox="0 0 96 48" fill="none" xmlns="http://www.w3.org/2000/svg">
<g filter="url(#filter0_d_142_4557)">
<rect x="6" y="6" width="84" height="36" rx="9" fill="#0D9B72"/>
<path d="M45.456 30V18.8H50.416C51.1093 18.8 51.7387 18.96 52.304 19.28C52.8693 19.5893 53.312 20.0107 53.632 20.544C53.9627 21.0773 54.128 21.6853 54.128 22.368C54.128 23.04 53.9627 23.6533 53.632 24.208C53.312 24.752 52.8693 25.184 52.304 25.504C51.7387 25.824 51.1093 25.984 50.416 25.984H47.776V30H45.456ZM51.808 30L48.96 24.944L51.424 24.544L54.592 30.016L51.808 30ZM47.776 24.032H50.304C50.592 24.032 50.8427 23.968 51.056 23.84C51.28 23.7013 51.4507 23.5147 51.568 23.28C51.6853 23.0347 51.744 22.7627 51.744 22.464C51.744 22.144 51.6747 21.8667 51.536 21.632C51.3973 21.3973 51.1947 21.216 50.928 21.088C50.6613 20.9493 50.352 20.88 50 20.88H47.776V24.032ZM59.0949 30.16C58.4762 30.16 57.9429 30.0267 57.4949 29.76C57.0575 29.4827 56.7162 29.0933 56.4709 28.592C56.2362 28.08 56.1189 27.4667 56.1189 26.752V21.536H58.3909V26.384C58.3909 26.768 58.4549 27.104 58.5829 27.392C58.7109 27.6693 58.8922 27.8827 59.1269 28.032C59.3615 28.1813 59.6495 28.256 59.9909 28.256C60.2362 28.256 60.4655 28.2187 60.6789 28.144C60.8922 28.0587 61.0735 27.9413 61.2229 27.792C61.3722 27.6427 61.4895 27.4667 61.5749 27.264C61.6602 27.0613 61.7029 26.8427 61.7029 26.608V21.536H63.9749V30H61.8149L61.7349 28.256L62.1509 28.064C62.0229 28.4587 61.8095 28.816 61.5109 29.136C61.2122 29.456 60.8549 29.7067 60.4389 29.888C60.0229 30.0693 59.5749 30.16 59.0949 30.16ZM66.261 30V21.536H68.437L68.501 23.264L68.053 23.456C68.1703 23.072 68.3783 22.7253 68.677 22.416C68.9863 22.096 69.3543 21.84 69.781 21.648C70.2077 21.456 70.6557 21.36 71.125 21.36C71.765 21.36 72.2983 21.488 72.725 21.744C73.1623 22 73.4877 22.3893 73.701 22.912C73.925 23.424 74.037 24.0587 74.037 24.816V30H71.765V24.992C71.765 24.608 71.7117 24.288 71.605 24.032C71.4983 23.776 71.333 23.5893 71.109 23.472C70.8957 23.344 70.629 23.2907 70.309 23.312C70.053 23.312 69.813 23.3547 69.589 23.44C69.3757 23.5147 69.189 23.6267 69.029 23.776C68.8797 23.9253 68.757 24.096 68.661 24.288C68.5757 24.48 68.533 24.688 68.533 24.912V30H67.413C67.1677 30 66.949 30 66.757 30C66.565 30 66.3997 30 66.261 30Z" fill="white"/>
<circle cx="22.5" cy="23.5" r="10.5" fill="white"/>
<path d="M26.9198 22.8971C27.1199 23.0036 27.2873 23.1624 27.404 23.3567C27.5208 23.551 27.5824 23.7734 27.5824 24C27.5824 24.2267 27.5208 24.4491 27.404 24.6434C27.2873 24.8377 27.1199 24.9965 26.9198 25.103L21.5814 28.0059C20.7218 28.4738 19.666 27.8655 19.666 26.9034V21.0971C19.666 20.1346 20.7218 19.5267 21.5814 19.9938L26.9198 22.8971Z" fill="#0D9B72"/>
</g>
<defs>
<filter id="filter0_d_142_4557" x="0" y="0" width="96" height="48" filterUnits="userSpaceOnUse" color-interpolation-filters="sRGB">
<feFlood flood-opacity="0" result="BackgroundImageFix"/>
<feColorMatrix in="SourceAlpha" type="matrix" values="0 0 0 0 0 0 0 0 0 0 0 0 0 0 0 0 0 0 127 0" result="hardAlpha"/>
<feMorphology radius="1" operator="dilate" in="SourceAlpha" result="effect1_dropShadow_142_4557"/>
<feOffset/>
<feGaussianBlur stdDeviation="2.5"/>
<feComposite in2="hardAlpha" operator="out"/>
<feColorMatrix type="matrix" values="0 0 0 0 0.133333 0 0 0 0 0.772549 0 0 0 0 0.368627 0 0 0 0.25 0"/>
<feBlend mode="normal" in2="BackgroundImageFix" result="effect1_dropShadow_142_4557"/>
<feBlend mode="normal" in="SourceGraphic" in2="effect1_dropShadow_142_4557" result="shape"/>
</filter>
</defs>
</svg>
