<svg width="20" height="20" viewBox="0 0 20 20" fill="none" xmlns="http://www.w3.org/2000/svg">
<path d="M9.02106 18.3334C8.64606 18.3334 8.32328 18.2084 8.05273 17.9584C7.78217 17.7084 7.61884 17.4028 7.56273 17.0417L7.37523 15.6667C7.19467 15.5972 7.02467 15.5139 6.86523 15.4167C6.70578 15.3195 6.54939 15.2153 6.39606 15.1042L5.10439 15.6459C4.75717 15.7986 4.40995 15.8125 4.06273 15.6875C3.71551 15.5625 3.44467 15.3403 3.25023 15.0209L2.27106 13.3125C2.07662 12.9931 2.02106 12.6528 2.10439 12.2917C2.18773 11.9306 2.37523 11.632 2.66689 11.3959L3.77106 10.5625C3.75717 10.4653 3.75023 10.3714 3.75023 10.2809V9.71835C3.75023 9.62835 3.75717 9.53474 3.77106 9.43752L2.66689 8.60419C2.37523 8.36808 2.18773 8.06946 2.10439 7.70835C2.02106 7.34724 2.07662 7.00696 2.27106 6.68752L3.25023 4.97919C3.44467 4.65974 3.71551 4.43752 4.06273 4.31252C4.40995 4.18752 4.75717 4.20141 5.10439 4.35419L6.39606 4.89585C6.54884 4.78474 6.70856 4.68058 6.87523 4.58335C7.04189 4.48613 7.20856 4.4028 7.37523 4.33335L7.56273 2.95835C7.61828 2.59724 7.78162 2.29169 8.05273 2.04169C8.32384 1.79169 8.64662 1.66669 9.02106 1.66669H10.9794C11.3544 1.66669 11.6774 1.79169 11.9486 2.04169C12.2197 2.29169 12.3827 2.59724 12.4377 2.95835L12.6252 4.33335C12.8058 4.4028 12.9761 4.48613 13.1361 4.58335C13.2961 4.68058 13.4522 4.78474 13.6044 4.89585L14.8961 4.35419C15.2433 4.20141 15.5905 4.18752 15.9377 4.31252C16.285 4.43752 16.5558 4.65974 16.7502 4.97919L17.7294 6.68752C17.9238 7.00696 17.9794 7.34724 17.8961 7.70835C17.8127 8.06946 17.6252 8.36808 17.3336 8.60419L16.2294 9.43752C16.2433 9.53474 16.2502 9.62863 16.2502 9.71919V10.2809C16.2502 10.3714 16.2363 10.4653 16.2086 10.5625L17.3127 11.3959C17.6044 11.632 17.7919 11.9306 17.8752 12.2917C17.9586 12.6528 17.903 12.9931 17.7086 13.3125L16.7086 15.0209C16.5141 15.3403 16.2433 15.5625 15.8961 15.6875C15.5488 15.8125 15.2016 15.7986 14.8544 15.6459L13.6044 15.1042C13.4516 15.2153 13.2919 15.3195 13.1252 15.4167C12.9586 15.5139 12.7919 15.5972 12.6252 15.6667L12.4377 17.0417C12.3822 17.4028 12.2191 17.7084 11.9486 17.9584C11.678 18.2084 11.3549 18.3334 10.9794 18.3334H9.02106ZM10.0419 12.9167C10.8474 12.9167 11.5349 12.632 12.1044 12.0625C12.6738 11.4931 12.9586 10.8056 12.9586 10C12.9586 9.19446 12.6738 8.50696 12.1044 7.93752C11.5349 7.36808 10.8474 7.08335 10.0419 7.08335C9.22245 7.08335 8.53134 7.36808 7.96856 7.93752C7.40578 8.50696 7.12467 9.19446 7.12523 10C7.12578 10.8056 7.40717 11.4931 7.96939 12.0625C8.53162 12.632 9.22245 12.9167 10.0419 12.9167Z" fill="#333840"/>
</svg>
