<svg width="20" height="20" viewBox="0 0 20 20" fill="none" xmlns="http://www.w3.org/2000/svg">
<path d="M9.02057 18.3334C8.64557 18.3334 8.32279 18.2084 8.05224 17.9584C7.78168 17.7084 7.61835 17.4028 7.56224 17.0417L7.37474 15.6667C7.19418 15.5972 7.02418 15.5139 6.86474 15.4167C6.7053 15.3195 6.54891 15.2153 6.39557 15.1042L5.10391 15.6459C4.75668 15.7986 4.40946 15.8125 4.06224 15.6875C3.71502 15.5625 3.44418 15.3403 3.24974 15.0209L2.27057 13.3125C2.07613 12.9931 2.02057 12.6528 2.10391 12.2917C2.18724 11.9306 2.37474 11.632 2.66641 11.3959L3.77057 10.5625C3.75668 10.4653 3.74974 10.3714 3.74974 10.2809V9.71835C3.74974 9.62835 3.75668 9.53474 3.77057 9.43752L2.66641 8.60419C2.37474 8.36808 2.18724 8.06946 2.10391 7.70835C2.02057 7.34724 2.07613 7.00696 2.27057 6.68752L3.24974 4.97919C3.44418 4.65974 3.71502 4.43752 4.06224 4.31252C4.40946 4.18752 4.75668 4.20141 5.10391 4.35419L6.39557 4.89585C6.54835 4.78474 6.70807 4.68058 6.87474 4.58335C7.04141 4.48613 7.20807 4.4028 7.37474 4.33335L7.56224 2.95835C7.61779 2.59724 7.78113 2.29169 8.05224 2.04169C8.32335 1.79169 8.64613 1.66669 9.02057 1.66669H10.9789C11.3539 1.66669 11.677 1.79169 11.9481 2.04169C12.2192 2.29169 12.3822 2.59724 12.4372 2.95835L12.6247 4.33335C12.8053 4.4028 12.9756 4.48613 13.1356 4.58335C13.2956 4.68058 13.4517 4.78474 13.6039 4.89585L14.8956 4.35419C15.2428 4.20141 15.59 4.18752 15.9372 4.31252C16.2845 4.43752 16.5553 4.65974 16.7497 4.97919L17.7289 6.68752C17.9234 7.00696 17.9789 7.34724 17.8956 7.70835C17.8122 8.06946 17.6247 8.36808 17.3331 8.60419L16.2289 9.43752C16.2428 9.53474 16.2497 9.62863 16.2497 9.71919V10.2809C16.2497 10.3714 16.2359 10.4653 16.2081 10.5625L17.3122 11.3959C17.6039 11.632 17.7914 11.9306 17.8747 12.2917C17.9581 12.6528 17.9025 12.9931 17.7081 13.3125L16.7081 15.0209C16.5136 15.3403 16.2428 15.5625 15.8956 15.6875C15.5484 15.8125 15.2011 15.7986 14.8539 15.6459L13.6039 15.1042C13.4511 15.2153 13.2914 15.3195 13.1247 15.4167C12.9581 15.5139 12.7914 15.5972 12.6247 15.6667L12.4372 17.0417C12.3817 17.4028 12.2186 17.7084 11.9481 17.9584C11.6775 18.2084 11.3545 18.3334 10.9789 18.3334H9.02057ZM10.0414 12.9167C10.847 12.9167 11.5345 12.632 12.1039 12.0625C12.6733 11.4931 12.9581 10.8056 12.9581 10C12.9581 9.19446 12.6733 8.50696 12.1039 7.93752C11.5345 7.36808 10.847 7.08335 10.0414 7.08335C9.22196 7.08335 8.53085 7.36808 7.96807 7.93752C7.4053 8.50696 7.12418 9.19446 7.12474 10C7.1253 10.8056 7.40668 11.4931 7.96891 12.0625C8.53113 12.632 9.22196 12.9167 10.0414 12.9167Z" fill="#F7FAFC"/>
</svg>
