<svg width="37" height="34" viewBox="0 0 37 34" fill="none" xmlns="http://www.w3.org/2000/svg">
<rect x="0.5" y="0.5" width="36" height="33" rx="7.5" fill="#F7FAFC"/>
<rect x="0.5" y="0.5" width="36" height="33" rx="7.5" stroke="#D5D5D5"/>
<path d="M19.4987 7C19.764 7 20.0183 7.10536 20.2058 7.29289C20.3934 7.48043 20.4987 7.73478 20.4987 8C20.4987 8.26522 20.3934 8.51957 20.2058 8.70711C20.0183 8.89464 19.764 9 19.4987 9C18.6837 9.00018 17.8773 9.1664 17.1286 9.48853C16.3799 9.81065 15.7048 10.2819 15.1442 10.8736C14.5837 11.4653 14.1496 12.165 13.8684 12.9299C13.5872 13.6949 13.4649 14.5092 13.5087 15.323C13.5157 15.473 13.4887 15.623 13.4317 15.761L12.3907 18.258L12.8937 18.359C13.2022 18.421 13.4834 18.5784 13.6975 18.809C13.9116 19.0396 14.0478 19.3317 14.0867 19.644L14.2727 21.124C14.303 21.3658 14.4204 21.5883 14.6031 21.7496C14.7858 21.9109 15.021 21.9999 15.2647 22H16.9987C17.3966 22 17.7781 22.158 18.0594 22.4393C18.3407 22.7206 18.4987 23.1022 18.4987 23.5V25H22.4987V21.006C22.4987 20.509 22.7437 20.069 23.1087 19.794L23.3897 19.567C24.2712 18.8149 24.9173 17.8247 25.2507 16.715C25.3278 16.4625 25.5016 16.2508 25.7341 16.1259C25.9667 16.0011 26.2392 15.9732 26.4922 16.0484C26.7452 16.1237 26.9582 16.2959 27.0847 16.5275C27.2113 16.7592 27.2411 17.0314 27.1677 17.285C26.7011 18.8441 25.77 20.2238 24.4987 21.24V25.5C24.4987 25.8978 24.3407 26.2794 24.0594 26.5607C23.7781 26.842 23.3966 27 22.9987 27H17.9987C17.6009 27 17.2194 26.842 16.9381 26.5607C16.6568 26.2794 16.4987 25.8978 16.4987 25.5V24H15.2647C14.5335 24 13.8274 23.733 13.2792 23.2491C12.731 22.7651 12.3784 22.0976 12.2877 21.372L12.1467 20.249L11.4017 20.101C11.184 20.0576 10.9787 19.9663 10.8005 19.8339C10.6224 19.7015 10.4758 19.5312 10.3714 19.3353C10.2671 19.1393 10.2075 18.9227 10.197 18.7009C10.1865 18.4792 10.2253 18.2579 10.3107 18.053L11.5037 15.187L11.4987 15C11.4987 12.8783 12.3416 10.8434 13.8419 9.34315C15.3422 7.84286 17.377 7 19.4987 7ZM25.4987 6C25.7075 5.99987 25.9111 6.06509 26.0809 6.1865C26.2507 6.30791 26.3783 6.47943 26.4457 6.677L26.5747 7.055C26.8747 7.934 27.5647 8.625 28.4447 8.925L28.8227 9.054C29.0199 9.12157 29.1911 9.24908 29.3123 9.41869C29.4334 9.58831 29.4986 9.79155 29.4986 10C29.4986 10.2085 29.4334 10.4117 29.3123 10.5813C29.1911 10.7509 29.0199 10.8784 28.8227 10.946L28.4447 11.076C27.5647 11.376 26.8747 12.066 26.5747 12.946L26.4447 13.323C26.3772 13.5202 26.2497 13.6913 26.08 13.8125C25.9104 13.9337 25.7072 13.9988 25.4987 13.9988C25.2903 13.9988 25.087 13.9337 24.9174 13.8125C24.7478 13.6913 24.6203 13.5202 24.5527 13.323L24.4237 12.945C24.2756 12.5111 24.0301 12.117 23.7059 11.7928C23.3817 11.4687 22.9876 11.2231 22.5537 11.075L22.1757 10.946C21.9785 10.8784 21.8074 10.7509 21.6862 10.5813C21.565 10.4117 21.4999 10.2085 21.4999 10C21.4999 9.79155 21.565 9.58831 21.6862 9.41869C21.8074 9.24908 21.9785 9.12157 22.1757 9.054L22.5537 8.924C23.4327 8.624 24.1237 7.934 24.4237 7.054L24.5537 6.677L24.6157 6.531C24.7009 6.37069 24.828 6.23657 24.9836 6.14302C25.1391 6.04948 25.3172 6.00004 25.4987 6ZM25.4987 9.196C25.2625 9.49364 24.9931 9.76339 24.6957 10C24.9937 10.2367 25.2614 10.5043 25.4987 10.803C25.7361 10.505 26.0037 10.2373 26.3017 10C26.0044 9.76339 25.735 9.49364 25.4987 9.196Z" fill="#F4405D"/>
</svg>
