<svg width="37" height="34" viewBox="0 0 37 34" fill="none" xmlns="http://www.w3.org/2000/svg">
<rect x="0.5" y="0.5" width="36" height="33" rx="7.5" fill="#F7FAFC"/>
<rect x="0.5" y="0.5" width="36" height="33" rx="7.5" stroke="#D5D5D5"/>
<path fill-rule="evenodd" clip-rule="evenodd" d="M14.75 18C14.8826 18 15.0098 18.0527 15.1036 18.1464C15.1973 18.2402 15.25 18.3674 15.25 18.5V23.5C15.25 23.6326 15.1973 23.7598 15.1036 23.8536C15.0098 23.9473 14.8826 24 14.75 24H13.25C13.1174 24 12.9902 23.9473 12.8964 23.8536C12.8027 23.7598 12.75 23.6326 12.75 23.5V18.5C12.75 18.3674 12.8027 18.2402 12.8964 18.1464C12.9902 18.0527 13.1174 18 13.25 18H14.75Z" fill="#F49E09"/>
<path d="M15.75 23.5V18.5H14.75V23.5H15.75ZM13.25 24.5H14.75V23.5H13.25V24.5ZM12.25 18.5V23.5H13.25V18.5H12.25ZM14.75 17.5H13.25V18.5H14.75V17.5ZM13.25 18.5V17.5C12.9848 17.5 12.7304 17.6054 12.5429 17.7929C12.3554 17.9804 12.25 18.2348 12.25 18.5H13.25ZM13.25 23.5H12.25C12.25 23.7652 12.3554 24.0196 12.5429 24.2071C12.7304 24.3946 12.9848 24.5 13.25 24.5V23.5ZM15.75 18.5C15.75 18.2348 15.6446 17.9804 15.4571 17.7929C15.2696 17.6054 15.0152 17.5 14.75 17.5V18.5H15.75ZM14.75 23.5V24.5C15.0152 24.5 15.2696 24.3946 15.4571 24.2071C15.6446 24.0196 15.75 23.7652 15.75 23.5H14.75Z" fill="#F49E09"/>
<path fill-rule="evenodd" clip-rule="evenodd" d="M19.25 14C19.3826 14 19.5098 14.0527 19.6036 14.1464C19.6973 14.2402 19.75 14.3674 19.75 14.5V23.5C19.75 23.6326 19.6973 23.7598 19.6036 23.8536C19.5098 23.9473 19.3826 24 19.25 24H17.75C17.6174 24 17.4902 23.9473 17.3964 23.8536C17.3027 23.7598 17.25 23.6326 17.25 23.5V14.5C17.25 14.3674 17.3027 14.2402 17.3964 14.1464C17.4902 14.0527 17.6174 14 17.75 14H19.25Z" fill="#F49E09"/>
<path d="M20.25 23.5V14.5H19.25V23.5H20.25ZM17.75 24.5H19.25V23.5H17.75V24.5ZM16.75 14.5V23.5H17.75V14.5H16.75ZM19.25 13.5H17.75V14.5H19.25V13.5ZM17.75 14.5V13.5C17.4848 13.5 17.2304 13.6054 17.0429 13.7929C16.8554 13.9804 16.75 14.2348 16.75 14.5H17.75ZM17.75 23.5H16.75C16.75 23.7652 16.8554 24.0196 17.0429 24.2071C17.2304 24.3946 17.4848 24.5 17.75 24.5V23.5ZM20.25 14.5C20.25 14.2348 20.1446 13.9804 19.9571 13.7929C19.7696 13.6054 19.5152 13.5 19.25 13.5V14.5H20.25ZM19.25 23.5V24.5C19.5152 24.5 19.7696 24.3946 19.9571 24.2071C20.1446 24.0196 20.25 23.7652 20.25 23.5H19.25Z" fill="#F49E09"/>
<path fill-rule="evenodd" clip-rule="evenodd" d="M23.75 10C23.8826 10 24.0098 10.0527 24.1036 10.1464C24.1973 10.2402 24.25 10.3674 24.25 10.5V23.5C24.25 23.6326 24.1973 23.7598 24.1036 23.8536C24.0098 23.9473 23.8826 24 23.75 24H22.25C22.1174 24 21.9902 23.9473 21.8964 23.8536C21.8027 23.7598 21.75 23.6326 21.75 23.5V10.5C21.75 10.3674 21.8027 10.2402 21.8964 10.1464C21.9902 10.0527 22.1174 10 22.25 10H23.75Z" fill="#F49E09"/>
<path d="M24.75 23.5V10.5H23.75V23.5H24.75ZM22.25 24.5H23.75V23.5H22.25V24.5ZM21.25 10.5V23.5H22.25V10.5H21.25ZM23.75 9.5H22.25V10.5H23.75V9.5ZM22.25 10.5V9.5C21.9848 9.5 21.7304 9.60536 21.5429 9.79289C21.3554 9.98043 21.25 10.2348 21.25 10.5H22.25ZM22.25 23.5H21.25C21.25 23.7652 21.3554 24.0196 21.5429 24.2071C21.7304 24.3946 21.9848 24.5 22.25 24.5V23.5ZM24.75 10.5C24.75 10.2348 24.6446 9.98043 24.4571 9.79289C24.2696 9.60536 24.0152 9.5 23.75 9.5V10.5H24.75ZM23.75 23.5V24.5C24.0152 24.5 24.2696 24.3946 24.4571 24.2071C24.6446 24.0196 24.75 23.7652 24.75 23.5H23.75Z" fill="#F49E09"/>
<path d="M26.5 24H10.5" stroke="#F49E09" stroke-width="1.5" stroke-linecap="round" stroke-linejoin="round"/>
</svg>
