<svg width="37" height="34" viewBox="0 0 37 34" fill="none" xmlns="http://www.w3.org/2000/svg">
<rect x="0.5" y="0.5" width="36" height="33" rx="7.5" fill="#F7FAFC"/>
<rect x="0.5" y="0.5" width="36" height="33" rx="7.5" stroke="#D5D5D5"/>
<path d="M18.5 19C19.6046 19 20.5 18.1046 20.5 17C20.5 15.8954 19.6046 15 18.5 15C17.3954 15 16.5 15.8954 16.5 17C16.5 18.1046 17.3954 19 18.5 19Z" stroke="#3B82F6" stroke-width="2" stroke-linecap="round" stroke-linejoin="round"/>
<path d="M22.7398 12.7601C23.2977 13.3173 23.7402 13.979 24.0422 14.7074C24.3441 15.4358 24.4995 16.2166 24.4995 17.0051C24.4995 17.7935 24.3441 18.5743 24.0422 19.3027C23.7402 20.0311 23.2977 20.6928 22.7398 21.2501M14.2598 21.2401C13.702 20.6828 13.2594 20.0211 12.9575 19.2927C12.6555 18.5643 12.5001 17.7835 12.5001 16.9951C12.5001 16.2066 12.6555 15.4258 12.9575 14.6974C13.2594 13.969 13.702 13.3073 14.2598 12.7501M25.5698 9.93005C27.4445 11.8053 28.4977 14.3484 28.4977 17.0001C28.4977 19.6517 27.4445 22.1948 25.5698 24.0701M11.4298 24.0701C9.55511 22.1948 8.50195 19.6517 8.50195 17.0001C8.50195 14.3484 9.55511 11.8053 11.4298 9.93005" stroke="#3B82F6" stroke-width="2" stroke-linecap="round" stroke-linejoin="round"/>
</svg>
