<svg width="37" height="34" viewBox="0 0 37 34" fill="none" xmlns="http://www.w3.org/2000/svg">
<rect x="0.5" y="0.5" width="36" height="33" rx="7.5" fill="#F7FAFC"/>
<rect x="0.5" y="0.5" width="36" height="33" rx="7.5" stroke="#D5D5D5"/>
<path d="M24.332 18.25H24.1237C24.0684 18.25 24.0155 18.2281 23.9764 18.189C23.9373 18.1499 23.9154 18.0969 23.9154 18.0417V12.4167C23.9154 10.9801 23.3447 9.60233 22.3289 8.5865C21.313 7.57068 19.9353 7 18.4987 7C17.0621 7 15.6844 7.57068 14.6685 8.5865C13.6527 9.60233 13.082 10.9801 13.082 12.4167V18.0417C13.082 18.0969 13.0601 18.1499 13.021 18.189C12.9819 18.2281 12.929 18.25 12.8737 18.25H12.6654C12.4444 18.25 12.2324 18.3378 12.0761 18.4941C11.9198 18.6504 11.832 18.8623 11.832 19.0833C11.832 19.3043 11.9198 19.5163 12.0761 19.6726C12.2324 19.8289 12.4444 19.9167 12.6654 19.9167H14.957C15.0123 19.9167 15.0653 19.9386 15.1043 19.9777C15.1434 20.0168 15.1654 20.0697 15.1654 20.125V26.1667C15.1654 26.3877 15.2532 26.5996 15.4094 26.7559C15.5657 26.9122 15.7777 27 15.9987 27C16.2197 27 16.4317 26.9122 16.588 26.7559C16.7442 26.5996 16.832 26.3877 16.832 26.1667V20.125C16.832 20.0697 16.854 20.0168 16.8931 19.9777C16.9321 19.9386 16.9851 19.9167 17.0404 19.9167H19.957C20.0123 19.9167 20.0653 19.9386 20.1043 19.9777C20.1434 20.0168 20.1654 20.0697 20.1654 20.125V26.1667C20.1654 26.3877 20.2532 26.5996 20.4094 26.7559C20.5657 26.9122 20.7777 27 20.9987 27C21.2197 27 21.4317 26.9122 21.588 26.7559C21.7442 26.5996 21.832 26.3877 21.832 26.1667V20.125C21.832 20.0697 21.854 20.0168 21.8931 19.9777C21.9321 19.9386 21.9851 19.9167 22.0404 19.9167H24.332C24.553 19.9167 24.765 19.8289 24.9213 19.6726C25.0776 19.5163 25.1654 19.3043 25.1654 19.0833C25.1654 18.8623 25.0776 18.6504 24.9213 18.4941C24.765 18.3378 24.553 18.25 24.332 18.25ZM16.3904 13.25C16.28 13.1315 16.2199 12.9748 16.2227 12.8129C16.2256 12.651 16.2912 12.4965 16.4057 12.382C16.5202 12.2675 16.6747 12.2019 16.8366 12.199C16.9985 12.1962 17.1552 12.2563 17.2737 12.3667L18.3487 13.4417C18.3681 13.4618 18.3914 13.4779 18.4172 13.4888C18.443 13.4998 18.4707 13.5054 18.4987 13.5054C18.5267 13.5054 18.5544 13.4998 18.5802 13.4888C18.606 13.4779 18.6293 13.4618 18.6487 13.4417L19.7237 12.3667C19.8422 12.2563 19.9989 12.1962 20.1608 12.199C20.3227 12.2019 20.4772 12.2675 20.5917 12.382C20.7062 12.4965 20.7718 12.651 20.7747 12.8129C20.7775 12.9748 20.7174 13.1315 20.607 13.25L19.182 14.7C19.146 14.7385 19.1252 14.7889 19.1237 14.8417V18.0417C19.1237 18.0969 19.1017 18.1499 19.0627 18.189C19.0236 18.2281 18.9706 18.25 18.9154 18.25H18.082C18.0268 18.25 17.9738 18.2281 17.9347 18.189C17.8956 18.1499 17.8737 18.0969 17.8737 18.0417V14.8417C17.8722 14.7889 17.8514 14.7385 17.8154 14.7L16.3904 13.25Z" fill="#22C45D"/>
</svg>
