<svg width="37" height="34" viewBox="0 0 37 34" fill="none" xmlns="http://www.w3.org/2000/svg">
<rect x="0.5" y="0.5" width="36" height="33" rx="7.5" fill="#F7FAFC"/>
<rect x="0.5" y="0.5" width="36" height="33" rx="7.5" stroke="#D5D5D5"/>
<path d="M5.63847 13.1667C4.96925 14.5131 4.62229 15.9966 4.62502 17.5001C4.62502 19.0568 4.98956 20.528 5.63847 21.8334M13.2922 21.8334C13.9613 20.487 14.308 19.0035 14.3051 17.5001C14.3051 15.9433 13.9406 14.4722 13.2922 13.1667M7.87502 15.8751H8.54993C8.66757 15.8751 8.782 15.9135 8.87591 15.9843C8.96983 16.0552 9.03812 16.1547 9.07047 16.2678L9.92956 19.274C9.96191 19.3871 10.0302 19.4866 10.1241 19.5575C10.218 19.6283 10.3325 19.6667 10.4501 19.6667H11.125M11.6667 15.8751H11.6233C11.467 15.875 11.3126 15.9088 11.1706 15.974C11.0285 16.0393 10.9023 16.1345 10.8006 16.2532L8.20002 19.2887C8.0982 19.4074 7.9719 19.5026 7.82977 19.5679C7.68765 19.6332 7.53308 19.6669 7.37668 19.6667H7.33335" stroke="#E9B308" stroke-linecap="round" stroke-linejoin="round"/>
<path d="M17.3867 17.4165C17.3867 17.3088 17.4295 17.2054 17.5057 17.1292C17.5819 17.0531 17.6852 17.0103 17.793 17.0103H23.2096C23.3174 17.0103 23.4207 17.0531 23.4969 17.1292C23.5731 17.2054 23.6159 17.3088 23.6159 17.4165C23.6159 17.5242 23.5731 17.6276 23.4969 17.7038C23.4207 17.78 23.3174 17.8228 23.2096 17.8228H17.793C17.6852 17.8228 17.5819 17.78 17.5057 17.7038C17.4295 17.6276 17.3867 17.5242 17.3867 17.4165ZM17.3867 19.5832C17.3867 19.4754 17.4295 19.3721 17.5057 19.2959C17.5819 19.2197 17.6852 19.1769 17.793 19.1769H23.2096C23.3174 19.1769 23.4207 19.2197 23.4969 19.2959C23.5731 19.3721 23.6159 19.4754 23.6159 19.5832C23.6159 19.6909 23.5731 19.7942 23.4969 19.8704C23.4207 19.9466 23.3174 19.9894 23.2096 19.9894H17.793C17.6852 19.9894 17.5819 19.9466 17.5057 19.8704C17.4295 19.7942 17.3867 19.6909 17.3867 19.5832Z" fill="#E9B308"/>
<path d="M27.5 15.5C27.5 14.6719 28.1719 14 29 14C29.8281 14 30.5 14.6719 30.5 15.5C30.5 16.1672 30.0641 16.7328 29.4609 16.9281C29.0172 17.0719 28.5 17.4797 28.5 18.125V18.5C28.5 18.7766 28.7234 19 29 19C29.2766 19 29.5 18.7766 29.5 18.5V18.125C29.5 18.0984 29.5094 18.0609 29.5547 18.0109C29.6016 17.9594 29.6781 17.9094 29.7688 17.8797C30.7734 17.5562 31.5 16.6141 31.5 15.5C31.5 14.1187 30.3812 13 29 13C27.6187 13 26.5 14.1187 26.5 15.5C26.5 15.7766 26.7234 16 27 16C27.2766 16 27.5 15.7766 27.5 15.5ZM29 21C29.3453 21 29.625 20.7203 29.625 20.375C29.625 20.0297 29.3453 19.75 29 19.75C28.6547 19.75 28.375 20.0297 28.375 20.375C28.375 20.7203 28.6547 21 29 21Z" fill="#E9B308"/>
</svg>
