<svg width="37" height="34" viewBox="0 0 37 34" fill="none" xmlns="http://www.w3.org/2000/svg">
<rect x="0.5" y="0.5" width="36" height="33" rx="7.5" fill="#F7FAFC"/>
<rect x="0.5" y="0.5" width="36" height="33" rx="7.5" stroke="#D5D5D5"/>
<path d="M17.75 13.5C17.75 13.6989 17.671 13.8897 17.5303 14.0303C17.3897 14.171 17.1989 14.25 17 14.25H13C12.8011 14.25 12.6103 14.171 12.4697 14.0303C12.329 13.8897 12.25 13.6989 12.25 13.5C12.25 13.3011 12.329 13.1103 12.4697 12.9696C12.6103 12.829 12.8011 12.75 13 12.75H17C17.1989 12.75 17.3897 12.829 17.5303 12.9696C17.671 13.1103 17.75 13.3011 17.75 13.5ZM17 19.75H15.75V18.5C15.75 18.3011 15.671 18.1103 15.5303 17.9696C15.3897 17.829 15.1989 17.75 15 17.75C14.8011 17.75 14.6103 17.829 14.4697 17.9696C14.329 18.1103 14.25 18.3011 14.25 18.5V19.75H13C12.8011 19.75 12.6103 19.829 12.4697 19.9696C12.329 20.1103 12.25 20.3011 12.25 20.5C12.25 20.6989 12.329 20.8896 12.4697 21.0303C12.6103 21.171 12.8011 21.25 13 21.25H14.25V22.5C14.25 22.6989 14.329 22.8896 14.4697 23.0303C14.6103 23.171 14.8011 23.25 15 23.25C15.1989 23.25 15.3897 23.171 15.5303 23.0303C15.671 22.8896 15.75 22.6989 15.75 22.5V21.25H17C17.1989 21.25 17.3897 21.171 17.5303 21.0303C17.671 20.8896 17.75 20.6989 17.75 20.5C17.75 20.3011 17.671 20.1103 17.5303 19.9696C17.3897 19.829 17.1989 19.75 17 19.75ZM20 20H24C24.1989 20 24.3897 19.921 24.5303 19.7803C24.671 19.6396 24.75 19.4489 24.75 19.25C24.75 19.0511 24.671 18.8603 24.5303 18.7196C24.3897 18.579 24.1989 18.5 24 18.5H20C19.8011 18.5 19.6103 18.579 19.4697 18.7196C19.329 18.8603 19.25 19.0511 19.25 19.25C19.25 19.4489 19.329 19.6396 19.4697 19.7803C19.6103 19.921 19.8011 20 20 20ZM24 21H20C19.8011 21 19.6103 21.079 19.4697 21.2196C19.329 21.3603 19.25 21.5511 19.25 21.75C19.25 21.9489 19.329 22.1396 19.4697 22.2803C19.6103 22.421 19.8011 22.5 20 22.5H24C24.1989 22.5 24.3897 22.421 24.5303 22.2803C24.671 22.1396 24.75 21.9489 24.75 21.75C24.75 21.5511 24.671 21.3603 24.5303 21.2196C24.3897 21.079 24.1989 21 24 21ZM19.9694 15.5306C20.0391 15.6005 20.1218 15.656 20.213 15.6938C20.3042 15.7317 20.4019 15.7512 20.5006 15.7512C20.5993 15.7512 20.6971 15.7317 20.7882 15.6938C20.8794 15.656 20.9622 15.6005 21.0319 15.5306L22 14.5625L22.9694 15.5325C23.1103 15.6734 23.3014 15.7525 23.5006 15.7525C23.6999 15.7525 23.891 15.6734 24.0319 15.5325C24.1728 15.3916 24.2519 15.2005 24.2519 15.0012C24.2519 14.802 24.1728 14.6109 24.0319 14.47L23.0625 13.5L24.0325 12.5306C24.1734 12.3897 24.2526 12.1986 24.2526 11.9993C24.2526 11.8001 24.1734 11.609 24.0325 11.4681C23.8916 11.3272 23.7005 11.248 23.5013 11.248C23.302 11.248 23.1109 11.3272 22.97 11.4681L22 12.4375L21.0306 11.4693C20.8897 11.3285 20.6986 11.2493 20.4994 11.2493C20.3001 11.2493 20.109 11.3285 19.9681 11.4693C19.8272 11.6102 19.7481 11.8013 19.7481 12.0006C19.7481 12.1999 19.8272 12.391 19.9681 12.5318L20.9375 13.5L19.9694 14.4693C19.8996 14.539 19.8443 14.6217 19.8066 14.7128C19.7688 14.8038 19.7494 14.9014 19.7494 15C19.7494 15.0985 19.7688 15.1961 19.8066 15.2872C19.8443 15.3782 19.8996 15.4609 19.9694 15.5306Z" fill="#84CB17"/>
</svg>
