<svg width="37" height="34" viewBox="0 0 37 34" fill="none" xmlns="http://www.w3.org/2000/svg">
<rect x="0.5" y="0.5" width="36" height="33" rx="7.5" fill="#F7FAFC"/>
<rect x="0.5" y="0.5" width="36" height="33" rx="7.5" stroke="#D5D5D5"/>
<path d="M27.5 22H9.5M24.5 19L27.5 22L24.5 25M12.5 9L9.5 12L12.5 15M9.5 12H27.5" stroke="#8A5BF7" stroke-width="2" stroke-linecap="round" stroke-linejoin="round"/>
<path d="M13.86 19V18.5H14.425V16H13.86V15.5H15.53V16H14.965V18.5H15.53V19H13.86ZM16.3527 19L16.1877 18.59L17.2577 17.385C17.3144 17.325 17.3727 17.2567 17.4327 17.18C17.496 17.1 17.556 17.0183 17.6127 16.935C17.6694 16.8517 17.7144 16.77 17.7477 16.69C17.7844 16.6067 17.8027 16.5283 17.8027 16.455C17.8027 16.3483 17.781 16.2583 17.7377 16.185C17.6977 16.1083 17.6377 16.05 17.5577 16.01C17.481 15.97 17.3877 15.95 17.2777 15.95C17.181 15.95 17.086 15.9783 16.9927 16.035C16.8994 16.0917 16.8144 16.1717 16.7377 16.275C16.661 16.3783 16.601 16.4983 16.5577 16.635L16.1427 16.375C16.1994 16.1817 16.2844 16.0167 16.3977 15.88C16.5144 15.74 16.6527 15.6333 16.8127 15.56C16.976 15.4867 17.1527 15.45 17.3427 15.45C17.5394 15.45 17.7144 15.4917 17.8677 15.575C18.021 15.655 18.141 15.7683 18.2277 15.915C18.3144 16.0583 18.3577 16.225 18.3577 16.415C18.3577 16.4917 18.3494 16.57 18.3327 16.65C18.316 16.73 18.2894 16.8133 18.2527 16.9C18.216 16.9833 18.1694 17.0717 18.1127 17.165C18.056 17.255 17.9877 17.35 17.9077 17.45C17.831 17.55 17.7427 17.655 17.6427 17.765L16.8477 18.63L16.7477 18.48H18.4677V19H16.3527ZM20.537 19.05C20.2936 19.05 20.0703 19.0067 19.867 18.92C19.6636 18.8333 19.487 18.71 19.337 18.55C19.187 18.3867 19.0703 18.195 18.987 17.975C18.907 17.755 18.867 17.5133 18.867 17.25C18.867 17 18.9103 16.7683 18.997 16.555C19.087 16.3383 19.2103 16.1483 19.367 15.985C19.5236 15.8217 19.7053 15.695 19.912 15.605C20.1186 15.515 20.342 15.47 20.582 15.47C20.752 15.47 20.917 15.4967 21.077 15.55C21.2403 15.6 21.387 15.6717 21.517 15.765C21.6503 15.855 21.7586 15.9583 21.842 16.075L21.482 16.45C21.3853 16.3533 21.287 16.2733 21.187 16.21C21.0903 16.1433 20.9903 16.0933 20.887 16.06C20.787 16.0267 20.6853 16.01 20.582 16.01C20.4186 16.01 20.2653 16.0417 20.122 16.105C19.982 16.165 19.8586 16.25 19.752 16.36C19.6486 16.47 19.567 16.6017 19.507 16.755C19.447 16.905 19.417 17.07 19.417 17.25C19.417 17.44 19.4453 17.6133 19.502 17.77C19.562 17.9233 19.6453 18.055 19.752 18.165C19.8586 18.275 19.9853 18.36 20.132 18.42C20.282 18.4767 20.447 18.505 20.627 18.505C20.737 18.505 20.8453 18.49 20.952 18.46C21.0586 18.43 21.1586 18.3867 21.252 18.33C21.3453 18.2733 21.4303 18.2067 21.507 18.13L21.777 18.57C21.7003 18.66 21.5953 18.7417 21.462 18.815C21.332 18.8883 21.1853 18.9467 21.022 18.99C20.862 19.03 20.7003 19.05 20.537 19.05Z" fill="#8A5BF7"/>
</svg>
