<svg width="37" height="34" viewBox="0 0 37 34" fill="none" xmlns="http://www.w3.org/2000/svg">
<rect x="0.5" y="0.5" width="36" height="33" rx="7.5" fill="#F7FAFC"/>
<rect x="0.5" y="0.5" width="36" height="33" rx="7.5" stroke="#D5D5D5"/>
<g clip-path="url(#clip0_496_3494)">
<path d="M23.3125 10.8125H13.6875C10.2758 10.8125 7.5 13.5883 7.5 17C7.5 20.4117 10.2758 23.1875 13.6875 23.1875H23.3125C26.7242 23.1875 29.5 20.4117 29.5 17C29.5 13.5883 26.7242 10.8125 23.3125 10.8125ZM23.3125 21.8125C22.3607 21.8125 21.4302 21.5303 20.6388 21.0014C19.8474 20.4726 19.2306 19.721 18.8663 18.8417C18.5021 17.9623 18.4068 16.9947 18.5925 16.0611C18.7782 15.1276 19.2365 14.2701 19.9095 13.597C20.5826 12.924 21.4401 12.4657 22.3736 12.28C23.3072 12.0943 24.2748 12.1896 25.1542 12.5538C26.0335 12.9181 26.7851 13.5349 27.3139 14.3263C27.8428 15.1177 28.125 16.0482 28.125 17C28.1236 18.2759 27.6162 19.4992 26.7139 20.4014C25.8117 21.3037 24.5884 21.8111 23.3125 21.8125Z" fill="#E57333"/>
<path d="M12.924 20.08C12.4973 20.08 12.1293 19.9627 11.82 19.728C11.516 19.4933 11.2813 19.1627 11.116 18.736C10.9507 18.304 10.868 17.792 10.868 17.2C10.868 16.608 10.9507 16.0987 11.116 15.672C11.2813 15.24 11.516 14.9067 11.82 14.672C12.1293 14.4373 12.4973 14.32 12.924 14.32C13.3507 14.32 13.7187 14.4373 14.028 14.672C14.3373 14.9067 14.5747 15.24 14.74 15.672C14.9053 16.0987 14.988 16.608 14.988 17.2C14.988 17.792 14.9053 18.304 14.74 18.736C14.5747 19.1627 14.3373 19.4933 14.028 19.728C13.7187 19.9627 13.3507 20.08 12.924 20.08ZM12.924 19.296C13.3133 19.296 13.6147 19.1147 13.828 18.752C14.0413 18.384 14.148 17.8667 14.148 17.2C14.148 16.5333 14.0413 16.0187 13.828 15.656C13.6147 15.288 13.3133 15.104 12.924 15.104C12.5347 15.104 12.2333 15.288 12.02 15.656C11.8067 16.0187 11.7 16.5333 11.7 17.2C11.7 17.8667 11.8067 18.384 12.02 18.752C12.2333 19.1147 12.5347 19.296 12.924 19.296Z" fill="white"/>
<path d="M23.236 19.608V15.064L23.532 15.288L22.428 15.872L22.196 15.12L23.692 14.32H24.108V19.608H23.236ZM22.348 20V19.168H25.02V20H22.348Z" fill="#E57333"/>
</g>
<defs>
<clipPath id="clip0_496_3494">
<rect width="22" height="22" fill="white" transform="translate(7.5 6)"/>
</clipPath>
</defs>
</svg>
