<svg width="37" height="34" viewBox="0 0 37 34" fill="none" xmlns="http://www.w3.org/2000/svg">
<rect x="0.5" y="0.5" width="36" height="33" rx="7.5" fill="#F7FAFC"/>
<rect x="0.5" y="0.5" width="36" height="33" rx="7.5" stroke="#D5D5D5"/>
<path d="M26.0625 9.4375H10.9375C10.5728 9.4375 10.2231 9.58237 9.96523 9.84023C9.70737 10.0981 9.5625 10.4478 9.5625 10.8125V23.1875C9.5625 23.5522 9.70737 23.9019 9.96523 24.1598C10.2231 24.4176 10.5728 24.5625 10.9375 24.5625H26.0625C26.4272 24.5625 26.7769 24.4176 27.0348 24.1598C27.2926 23.9019 27.4375 23.5522 27.4375 23.1875V10.8125C27.4375 10.4478 27.2926 10.0981 27.0348 9.84023C26.7769 9.58237 26.4272 9.4375 26.0625 9.4375ZM25.6517 17.2956C24.2183 20.3034 22.9825 21.6406 21.6427 21.6406C19.9515 21.6406 18.9452 19.53 17.8795 17.2956C17.125 15.7109 16.1797 13.7344 15.3573 13.7344C15.0359 13.7344 14.1223 14.0781 12.5892 17.2956C12.5081 17.4557 12.3676 17.5777 12.1978 17.6356C12.028 17.6935 11.8422 17.6827 11.6802 17.6055C11.5183 17.5283 11.3929 17.3909 11.3308 17.2225C11.2688 17.0541 11.2751 16.8682 11.3483 16.7044C12.7817 13.6991 14.0175 12.3594 15.3573 12.3594C17.0485 12.3594 18.0548 14.47 19.1205 16.7044C19.875 18.2891 20.8203 20.2656 21.6427 20.2656C21.9641 20.2656 22.8777 19.9219 24.4108 16.7044C24.4482 16.6207 24.502 16.5453 24.569 16.4827C24.6359 16.42 24.7148 16.3715 24.8008 16.3398C24.8869 16.3081 24.9784 16.2939 25.07 16.2981C25.1616 16.3023 25.2514 16.3248 25.3342 16.3642C25.4169 16.4037 25.491 16.4593 25.552 16.5278C25.6129 16.5962 25.6596 16.6762 25.6892 16.763C25.7188 16.8498 25.7307 16.9416 25.7243 17.0331C25.7178 17.1246 25.6932 17.2138 25.6517 17.2956Z" fill="#0FB881"/>
</svg>
